<svg width="59" height="51" viewBox="0 0 59 51" fill="none" xmlns="http://www.w3.org/2000/svg">
<path d="M14.3704 45.2969V39.9807H11.6446C10.1454 39.9807 8.91878 38.6749 8.91878 36.6697V29.3015C8.91878 27.3429 8.32819 25.7107 6.829 25.0579C8.32819 24.405 8.91878 22.7728 8.91878 20.8142V13.3994C8.91878 11.3476 10.1454 10.1351 11.6446 10.1351H14.3704V4.81885H11.6446C7.23787 4.81885 3.24004 8.03657 3.24004 13.4461V19.8815C3.24004 21.607 2.46773 22.8661 0.877686 22.8661V27.2497C2.46773 27.2497 3.24004 28.5088 3.24004 30.2342V36.7163C3.24004 42.1258 7.23787 45.2969 11.6446 45.2969H14.3704Z" fill="#5537D2"/>
<path d="M42.3196 4.81889L42.3196 10.1351L45.0454 10.1351C46.5446 10.1351 47.7712 11.4409 47.7712 13.4461L47.7712 20.8142C47.7712 22.7729 48.3618 24.405 49.8609 25.0579C48.3618 25.7108 47.7712 27.343 47.7712 29.3016L47.7712 36.7163C47.7712 38.7682 46.5446 39.9807 45.0454 39.9807L42.3196 39.9807L42.3196 45.2969L45.0454 45.2969C49.4521 45.2969 53.4499 42.0792 53.4499 36.6697L53.4499 30.2343C53.4499 28.5088 54.2222 27.2497 55.8123 27.2497L55.8123 22.8661C54.2222 22.8661 53.4499 21.607 53.4499 19.8816L53.4499 13.3995C53.4499 7.98998 49.4521 4.81889 45.0454 4.81889L42.3196 4.81889Z" fill="#9C6DF6"/>
<path d="M35.5731 37.5867V12.5289H31.5691V21.8833H25.1207V12.5289H21.1167V37.5867H25.1207V27.5185H31.5691V37.5867H35.5731Z" fill="url(#paint0_linear_295_2)"/>
<defs>
<linearGradient id="paint0_linear_295_2" x1="28.3449" y1="12.5289" x2="28.3449" y2="37.5867" gradientUnits="userSpaceOnUse">
<stop stop-color="#A171F6"/>
<stop offset="1" stop-color="#4D32CE"/>
</linearGradient>
</defs>
</svg>
