<svg width="16" height="16" viewBox="0 0 16 16" fill="none" xmlns="http://www.w3.org/2000/svg">
<path d="M15.1564 7.44369L1.40636 0.568693C1.29859 0.514797 1.17754 0.493202 1.05778 0.506509C0.938028 0.519815 0.82467 0.567455 0.731361 0.643693C0.642251 0.718376 0.57574 0.816434 0.539304 0.926845C0.502869 1.03726 0.497953 1.15564 0.525111 1.26869L2.37511 7.99994L0.500111 14.7124C0.474627 14.8069 0.471653 14.9059 0.491426 15.0017C0.511199 15.0975 0.553169 15.1873 0.61396 15.2639C0.674751 15.3404 0.752668 15.4017 0.841444 15.4427C0.930221 15.4837 1.02738 15.5033 1.12511 15.4999C1.22295 15.4994 1.31928 15.4758 1.40636 15.4312L15.1564 8.55619C15.2587 8.50374 15.3447 8.42406 15.4046 8.32591C15.4646 8.22777 15.4964 8.11497 15.4964 7.99994C15.4964 7.88491 15.4646 7.77212 15.4046 7.67397C15.3447 7.57583 15.2587 7.49614 15.1564 7.44369ZM2.09386 13.6937L3.47511 8.62494H9.25011V7.37494H3.47511L2.09386 2.30619L13.4751 7.99994L2.09386 13.6937Z" fill="white"/>
</svg>
