<svg width="25" height="24" viewBox="0 0 25 24" fill="none" xmlns="http://www.w3.org/2000/svg">
<path d="M14.5833 14.92H8.4375C7.5417 14.92 7.0208 15.45 7.0208 16.21C7.0208 16.89 7.5 17.37 8.1875 17.37C8.98955 17.37 9.44795 16.84 9.48955 16.08H11.2708C11.1771 17.94 9.96875 18.93 8.1667 18.93C6.4792 18.93 5.21875 17.83 5.21875 16.19C5.21875 14.48 6.5417 13.29 8.53125 13.29H14.6146C16.6667 13.29 18.2292 11.84 18.2292 9.88997C18.2292 7.92 16.8333 6.52997 14.8438 6.52997C12.875 6.52997 11.2812 7.90997 11.2812 10.46V12.13H9.4792V10.46C9.4792 7.08 11.7396 4.89 14.875 4.89C17.8646 4.89 20.0417 6.94997 20.0417 9.87C20.0625 12.79 17.7292 14.92 14.5833 14.92ZM12.5 24C19.4896 24 25 18.69 25 12C25 5.31 19.4896 0 12.5 0C5.51045 0 0 5.32997 0 12C0 18.69 5.51045 24 12.5 24Z" fill="#169CEE"/>
</svg>
