<svg width="18" height="14" viewBox="0 0 18 14" fill="none" xmlns="http://www.w3.org/2000/svg">
<path d="M15.9667 0.333252H2.36675C1.43175 0.333252 0.675248 1.0645 0.675248 1.95825L0.666748 11.7083C0.666748 12.602 1.43175 13.3333 2.36675 13.3333H15.9667C16.9017 13.3333 17.6667 12.602 17.6667 11.7083V1.95825C17.6667 1.0645 16.9017 0.333252 15.9667 0.333252ZM15.6267 3.78638L9.61725 7.37763C9.34525 7.54013 8.98825 7.54013 8.71625 7.37763L2.70675 3.78638C2.62152 3.74064 2.54688 3.67885 2.48735 3.60475C2.42783 3.53064 2.38465 3.44576 2.36044 3.35524C2.33622 3.26472 2.33148 3.17045 2.34648 3.07813C2.36149 2.9858 2.39593 2.89735 2.44774 2.81812C2.49954 2.73889 2.56762 2.67053 2.64787 2.61719C2.72811 2.56384 2.81884 2.5266 2.91457 2.50774C3.0103 2.48888 3.10904 2.48879 3.20481 2.50746C3.30058 2.52613 3.39139 2.56319 3.47175 2.61638L9.16675 6.02075L14.8617 2.61638C14.9421 2.56319 15.0329 2.52613 15.1287 2.50746C15.2245 2.48879 15.3232 2.48888 15.4189 2.50774C15.5147 2.5266 15.6054 2.56384 15.6856 2.61719C15.7659 2.67053 15.834 2.73889 15.8858 2.81812C15.9376 2.89735 15.972 2.9858 15.987 3.07813C16.002 3.17045 15.9973 3.26472 15.9731 3.35524C15.9488 3.44576 15.9057 3.53064 15.8461 3.60475C15.7866 3.67885 15.712 3.74064 15.6267 3.78638Z" fill="white"/>
</svg>
