<svg width="21" height="22" viewBox="0 0 21 22" fill="none" xmlns="http://www.w3.org/2000/svg">
<g clip-path="url(#clip0_1367_419)">
<path d="M10.8878 0.00712459L17.64 0L6.31157 10.8412L3.35917 13.6523L0 10.432L10.8878 0.00712459ZM10.8249 9.68705C10.9126 9.57623 11.0738 9.63085 11.1961 9.6166L17.6342 9.61818L11.7666 15.2308L8.39008 12.0176L10.8249 9.68705Z" fill="#44D1FD"/>
<path d="M5.04004 16.074L8.3877 12.6923L11.7461 16.0681L11.76 16.0831L8.38853 19.4615L5.04004 16.074Z" fill="#1FBCFD"/>
<path d="M8.40002 19.4659L11.7877 16.0769L17.64 21.9923C15.4356 21.9973 13.232 21.9906 11.0283 21.9956C10.9027 22.024 10.8251 21.908 10.7449 21.8362L8.40002 19.4659Z" fill="#08589C"/>
</g>
<defs>
<clipPath id="clip0_1367_419">
<rect width="21" height="22" fill="white"/>
</clipPath>
</defs>
</svg>
