<svg width="135" height="24" viewBox="0 0 135 24" fill="none" xmlns="http://www.w3.org/2000/svg">
<path d="M6.24555 21.1388V18.678H4.98382C4.28987 18.678 3.7221 18.0736 3.7221 17.1454V13.7348C3.7221 12.8282 3.44872 12.0727 2.75477 11.7705C3.44872 11.4683 3.7221 10.7128 3.7221 9.80616V6.37399C3.7221 5.4242 4.28987 4.86297 4.98382 4.86297H6.24555V2.40216H4.98382C2.94403 2.40216 1.0935 3.8916 1.0935 6.39557V9.37444C1.0935 10.1731 0.736008 10.7559 0 10.7559V12.785C0.736008 12.785 1.0935 13.3679 1.0935 14.1665V17.167C1.0935 19.671 2.94403 21.1388 4.98382 21.1388H6.24555Z" fill="#5537D2"/>
<path d="M17.992 15V6.996H16.276V10.14H12.496V6.996H10.792V15H12.496V11.64H16.276V15H17.992ZM22.2213 15.144C24.1413 15.144 25.2933 13.752 25.2933 12.096C25.2933 10.452 24.1413 9.06 22.2213 9.06C20.3133 9.06 19.1613 10.452 19.1613 12.096C19.1613 13.752 20.3133 15.144 22.2213 15.144ZM22.2213 13.788C21.2733 13.788 20.7453 13.008 20.7453 12.096C20.7453 11.196 21.2733 10.416 22.2213 10.416C23.1693 10.416 23.7093 11.196 23.7093 12.096C23.7093 13.008 23.1693 13.788 22.2213 13.788ZM29.568 15L31.896 9.204H30.252L28.74 13.236L27.228 9.204H25.596L27.924 15H29.568ZM38.0243 15V10.884C38.0243 9.756 37.4123 9.06 36.1403 9.06C35.1923 9.06 34.4723 9.516 34.1003 9.96V6.996H32.5763V15H34.1003V11.1C34.3643 10.752 34.8323 10.416 35.4203 10.416C36.0803 10.416 36.5003 10.668 36.5003 11.472V15H38.0243ZM44.5413 15V11.256C44.5413 9.588 43.3293 9.06 42.0093 9.06C41.0973 9.06 40.1853 9.348 39.4773 9.972L40.0533 10.992C40.5452 10.536 41.1213 10.308 41.7453 10.308C42.5133 10.308 43.0173 10.692 43.0173 11.28V12.06C42.6333 11.604 41.9492 11.352 41.1813 11.352C40.2573 11.352 39.1653 11.868 39.1653 13.224C39.1653 14.52 40.2573 15.144 41.1813 15.144C41.9373 15.144 42.6213 14.868 43.0173 14.4V15H44.5413ZM41.7933 14.112C41.1933 14.112 40.7013 13.8 40.7013 13.26C40.7013 12.696 41.1933 12.384 41.7933 12.384C42.2853 12.384 42.7653 12.552 43.0173 12.888V13.608C42.7653 13.944 42.2853 14.112 41.7933 14.112ZM51.4889 15V10.908C51.4889 9.78 50.8769 9.06 49.6049 9.06C48.6569 9.06 47.9489 9.516 47.5769 9.96V9.204H46.0529V15H47.5769V11.1C47.8289 10.752 48.2969 10.416 48.8969 10.416C49.5449 10.416 49.9649 10.692 49.9649 11.496V15H51.4889ZM58.4381 15V10.908C58.4381 9.78 57.8261 9.06 56.5541 9.06C55.6061 9.06 54.8981 9.516 54.5261 9.96V9.204H53.0021V15H54.5261V11.1C54.7781 10.752 55.2461 10.416 55.8461 10.416C56.4941 10.416 56.9141 10.692 56.9141 11.496V15H58.4381ZM62.6753 15.144C63.5753 15.144 64.4873 14.868 65.0633 14.34L64.3913 13.356C64.0193 13.716 63.3353 13.932 62.8433 13.932C61.8593 13.932 61.2713 13.32 61.1753 12.588H65.4833V12.252C65.4833 10.356 64.3073 9.06 62.5793 9.06C60.8153 9.06 59.5793 10.416 59.5793 12.096C59.5793 13.956 60.9113 15.144 62.6753 15.144ZM64.0073 11.556H61.1513C61.2233 10.98 61.6313 10.272 62.5793 10.272C63.5873 10.272 63.9713 11.004 64.0073 11.556ZM68.6721 15.144C70.2801 15.144 71.1801 14.34 71.1801 13.284C71.1801 10.944 67.7481 11.664 67.7481 10.8C67.7481 10.476 68.1081 10.224 68.6601 10.224C69.3681 10.224 70.0281 10.524 70.3761 10.896L70.9881 9.852C70.4121 9.396 69.6321 9.06 68.6481 9.06C67.1241 9.06 66.2721 9.912 66.2721 10.884C66.2721 13.164 69.7161 12.384 69.7161 13.344C69.7161 13.704 69.4041 13.968 68.7441 13.968C68.0241 13.968 67.1601 13.572 66.7401 13.176L66.0801 14.244C66.6921 14.808 67.6641 15.144 68.6721 15.144ZM78.2532 15.144C80.4132 15.144 81.4572 14.04 81.4572 12.576C81.4572 9.588 76.8612 10.44 76.8612 9.168C76.8612 8.688 77.2692 8.364 78.0012 8.364C78.8172 8.364 79.6812 8.64 80.3292 9.24L81.2772 7.992C80.4852 7.26 79.4292 6.876 78.1572 6.876C76.2732 6.876 75.1212 7.98 75.1212 9.312C75.1212 12.324 79.7292 11.352 79.7292 12.768C79.7292 13.224 79.2732 13.656 78.3372 13.656C77.2332 13.656 76.3572 13.164 75.7932 12.576L74.8692 13.872C75.6132 14.628 76.7172 15.144 78.2532 15.144ZM88.0165 15V10.884C88.0165 9.756 87.4045 9.06 86.1325 9.06C85.1845 9.06 84.4645 9.516 84.0925 9.96V6.996H82.5685V15H84.0925V11.1C84.3565 10.752 84.8245 10.416 85.4125 10.416C86.0725 10.416 86.4925 10.668 86.4925 11.472V15H88.0165ZM90.2854 8.58C90.7894 8.58 91.1974 8.172 91.1974 7.668C91.1974 7.164 90.7894 6.768 90.2854 6.768C89.7934 6.768 89.3734 7.164 89.3734 7.668C89.3734 8.172 89.7934 8.58 90.2854 8.58ZM91.0534 15V9.204H89.5294V15H91.0534ZM94.5086 15.144C95.1446 15.144 95.5526 14.976 95.7806 14.772L95.4566 13.62C95.3726 13.704 95.1566 13.788 94.9286 13.788C94.5926 13.788 94.4006 13.512 94.4006 13.152V10.536H95.5766V9.204H94.4006V7.62H92.8646V9.204H91.9046V10.536H92.8646V13.56C92.8646 14.592 93.4406 15.144 94.5086 15.144ZM97.3753 8.58C97.8793 8.58 98.2873 8.172 98.2873 7.668C98.2873 7.164 97.8793 6.768 97.3753 6.768C96.8833 6.768 96.4633 7.164 96.4633 7.668C96.4633 8.172 96.8833 8.58 97.3753 8.58ZM98.1433 15V9.204H96.6193V15H98.1433ZM105.318 15L102.954 11.832L105.246 9.204H103.374L101.178 11.784V6.996H99.6544V15H101.178V13.512L101.874 12.768L103.41 15H105.318ZM105.872 17.268C106.064 17.316 106.448 17.352 106.628 17.352C107.624 17.328 108.392 17.04 108.824 15.948L111.548 9.204H109.904L108.392 13.236L106.88 9.204H105.248L107.6 15.084L107.384 15.576C107.24 15.888 106.976 15.996 106.58 15.996C106.436 15.996 106.232 15.96 106.1 15.9L105.872 17.268ZM117.233 15V11.256C117.233 9.588 116.021 9.06 114.701 9.06C113.789 9.06 112.877 9.348 112.169 9.972L112.745 10.992C113.237 10.536 113.813 10.308 114.437 10.308C115.205 10.308 115.709 10.692 115.709 11.28V12.06C115.325 11.604 114.641 11.352 113.873 11.352C112.949 11.352 111.857 11.868 111.857 13.224C111.857 14.52 112.949 15.144 113.873 15.144C114.629 15.144 115.313 14.868 115.709 14.4V15H117.233ZM114.485 14.112C113.885 14.112 113.393 13.8 113.393 13.26C113.393 12.696 113.885 12.384 114.485 12.384C114.977 12.384 115.457 12.552 115.709 12.888V13.608C115.457 13.944 114.977 14.112 114.485 14.112ZM124.18 15V10.908C124.18 9.78 123.568 9.06 122.296 9.06C121.348 9.06 120.64 9.516 120.268 9.96V9.204H118.744V15H120.268V11.1C120.52 10.752 120.988 10.416 121.588 10.416C122.236 10.416 122.656 10.692 122.656 11.496V15H124.18Z" fill="url(#paint0_linear_994_2)"/>
<path d="M128.274 1.92173L128.274 4.38254L129.536 4.38254C130.23 4.38254 130.797 4.98694 130.797 5.91514L130.797 9.32573C130.797 10.2323 131.071 10.9879 131.765 11.2901C131.071 11.5923 130.797 12.3478 130.797 13.2544L130.797 16.6866C130.797 17.6363 130.23 18.1976 129.536 18.1976L128.274 18.1976L128.274 20.6584L129.536 20.6584C131.576 20.6584 133.426 19.169 133.426 16.665L133.426 13.6861C133.426 12.8874 133.784 12.3046 134.52 12.3046L134.52 10.2755C133.784 10.2755 133.426 9.69269 133.426 8.89401L133.426 5.89356C133.426 3.38958 131.576 1.92173 129.536 1.92173L128.274 1.92173Z" fill="#9C6DF6"/>
<defs>
<linearGradient id="paint0_linear_994_2" x1="67.5" y1="4" x2="67.5" y2="19" gradientUnits="userSpaceOnUse">
<stop stop-color="#4E32CF"/>
<stop offset="1" stop-color="#895EEC"/>
</linearGradient>
</defs>
</svg>
