<svg width="281" height="49" viewBox="0 0 281 49" fill="none" xmlns="http://www.w3.org/2000/svg">
<path d="M13.0001 44V38.8779H10.3739C8.92941 38.8779 7.7476 37.6198 7.7476 35.6878V28.5887C7.7476 26.7016 7.17857 25.129 5.73413 24.5C7.17857 23.871 7.7476 22.2984 7.7476 20.4113V13.2673C7.7476 11.2903 8.92941 10.1221 10.3739 10.1221H13.0001V5H10.3739C6.12807 5 2.27622 8.10023 2.27622 13.3122V19.5127C2.27622 21.1751 1.53211 22.3882 0.00012207 22.3882V26.6118C1.53211 26.6118 2.27622 27.8249 2.27622 29.4873V35.7327C2.27622 40.9447 6.12807 44 10.3739 44H13.0001Z" fill="#5537D2"/>
<path d="M37.6095 32V15.3656H34.0432V21.8997H26.1873V15.3656H22.646V32H26.1873V25.017H34.0432V32H37.6095ZM46.3991 32.2993C50.3894 32.2993 52.7836 29.4063 52.7836 25.9647C52.7836 22.5481 50.3894 19.6551 46.3991 19.6551C42.4338 19.6551 40.0397 22.5481 40.0397 25.9647C40.0397 29.4063 42.4338 32.2993 46.3991 32.2993ZM46.3991 29.4811C44.4289 29.4811 43.3316 27.8601 43.3316 25.9647C43.3316 24.0943 44.4289 22.4733 46.3991 22.4733C48.3693 22.4733 49.4916 24.0943 49.4916 25.9647C49.4916 27.8601 48.3693 29.4811 46.3991 29.4811ZM61.6673 32L66.5055 19.9544H63.0889L59.9465 28.3339L56.8042 19.9544H53.4125L58.2507 32H61.6673ZM79.2418 32V23.4459C79.2418 21.1016 77.9699 19.6551 75.3264 19.6551C73.3562 19.6551 71.8598 20.6028 71.0867 21.5256V15.3656H67.9195V32H71.0867V23.8948C71.6354 23.1715 72.608 22.4733 73.83 22.4733C75.2017 22.4733 76.0746 22.997 76.0746 24.6679V32H79.2418ZM92.7857 32V24.219C92.7857 20.7525 90.2669 19.6551 87.5236 19.6551C85.6282 19.6551 83.7328 20.2537 82.2614 21.5505L83.4585 23.6703C84.481 22.7226 85.6781 22.2488 86.9749 22.2488C88.571 22.2488 89.6185 23.0469 89.6185 24.2689V25.8899C88.8204 24.9422 87.3989 24.4185 85.8028 24.4185C83.8825 24.4185 81.613 25.4909 81.613 28.309C81.613 31.0024 83.8825 32.2993 85.8028 32.2993C87.3739 32.2993 88.7955 31.7257 89.6185 30.753V32H92.7857ZM87.0747 30.1545C85.8277 30.1545 84.8052 29.5061 84.8052 28.3838C84.8052 27.2117 85.8277 26.5633 87.0747 26.5633C88.0972 26.5633 89.0947 26.9124 89.6185 27.6107V29.1071C89.0947 29.8054 88.0972 30.1545 87.0747 30.1545ZM107.225 32V23.4958C107.225 21.1515 105.953 19.6551 103.309 19.6551C101.339 19.6551 99.8677 20.6028 99.0946 21.5256V19.9544H95.9273V32H99.0946V23.8948C99.6183 23.1715 100.591 22.4733 101.838 22.4733C103.185 22.4733 104.057 23.0469 104.057 24.7178V32H107.225ZM121.667 32V23.4958C121.667 21.1515 120.395 19.6551 117.752 19.6551C115.781 19.6551 114.31 20.6028 113.537 21.5256V19.9544H110.37V32H113.537V23.8948C114.061 23.1715 115.033 22.4733 116.28 22.4733C117.627 22.4733 118.5 23.0469 118.5 24.7178V32H121.667ZM130.473 32.2993C132.343 32.2993 134.239 31.7257 135.436 30.6283L134.039 28.5833C133.266 29.3315 131.845 29.7804 130.822 29.7804C128.777 29.7804 127.555 28.5085 127.356 26.9872H136.309V26.2889C136.309 22.3486 133.865 19.6551 130.274 19.6551C126.607 19.6551 124.039 22.4733 124.039 25.9647C124.039 29.8303 126.807 32.2993 130.473 32.2993ZM133.241 24.8425H127.306C127.455 23.6454 128.303 22.174 130.274 22.174C132.368 22.174 133.166 23.6953 133.241 24.8425ZM142.936 32.2993C146.278 32.2993 148.148 30.6283 148.148 28.4337C148.148 23.5706 141.016 25.0669 141.016 23.2713C141.016 22.5979 141.764 22.0742 142.911 22.0742C144.382 22.0742 145.754 22.6977 146.477 23.4708L147.749 21.3011C146.552 20.3534 144.931 19.6551 142.886 19.6551C139.719 19.6551 137.948 21.4258 137.948 23.4459C137.948 28.1843 145.106 26.5633 145.106 28.5584C145.106 29.3066 144.457 29.8552 143.086 29.8552C141.589 29.8552 139.794 29.0322 138.921 28.2093L137.549 30.4288C138.821 31.601 140.841 32.2993 142.936 32.2993ZM162.848 32.2993C167.337 32.2993 169.507 30.0049 169.507 26.9623C169.507 20.7525 159.955 22.5231 159.955 19.8796C159.955 18.882 160.803 18.2087 162.324 18.2087C164.02 18.2087 165.816 18.7823 167.162 20.0292L169.133 17.4355C167.487 15.9143 165.292 15.1162 162.648 15.1162C158.733 15.1162 156.339 17.4106 156.339 20.1789C156.339 26.4386 165.915 24.4185 165.915 27.3613C165.915 28.309 164.968 29.2068 163.022 29.2068C160.728 29.2068 158.908 28.1843 157.735 26.9623L155.815 29.6557C157.361 31.2269 159.656 32.2993 162.848 32.2993ZM183.139 32V23.4459C183.139 21.1016 181.867 19.6551 179.223 19.6551C177.253 19.6551 175.757 20.6028 174.984 21.5256V15.3656H171.816V32H174.984V23.8948C175.532 23.1715 176.505 22.4733 177.727 22.4733C179.098 22.4733 179.971 22.997 179.971 24.6679V32H183.139ZM187.854 18.6576C188.902 18.6576 189.749 17.8096 189.749 16.7622C189.749 15.7147 188.902 14.8918 187.854 14.8918C186.832 14.8918 185.959 15.7147 185.959 16.7622C185.959 17.8096 186.832 18.6576 187.854 18.6576ZM189.45 32V19.9544H186.283V32H189.45ZM196.631 32.2993C197.953 32.2993 198.801 31.9501 199.274 31.5262L198.601 29.132C198.427 29.3066 197.978 29.4811 197.504 29.4811C196.805 29.4811 196.406 28.9075 196.406 28.1594V22.7226H198.85V19.9544H196.406V16.6624H193.214V19.9544H191.219V22.7226H193.214V29.0073C193.214 31.1521 194.411 32.2993 196.631 32.2993ZM202.589 18.6576C203.636 18.6576 204.484 17.8096 204.484 16.7622C204.484 15.7147 203.636 14.8918 202.589 14.8918C201.566 14.8918 200.693 15.7147 200.693 16.7622C200.693 17.8096 201.566 18.6576 202.589 18.6576ZM204.185 32V19.9544H201.017V32H204.185ZM219.097 32L214.184 25.4161L218.947 19.9544H215.056L210.493 25.3163V15.3656H207.325V32H210.493V28.9075L211.939 27.3613L215.131 32H219.097ZM220.248 36.7135C220.647 36.8133 221.445 36.8881 221.819 36.8881C223.889 36.8382 225.485 36.2397 226.383 33.9702L232.044 19.9544H228.627L225.485 28.3339L222.343 19.9544H218.951L223.839 32.1746L223.39 33.1971C223.091 33.8455 222.542 34.0699 221.719 34.0699C221.42 34.0699 220.996 33.9951 220.722 33.8704L220.248 36.7135ZM243.857 32V24.219C243.857 20.7525 241.339 19.6551 238.595 19.6551C236.7 19.6551 234.805 20.2537 233.333 21.5505L234.53 23.6703C235.553 22.7226 236.75 22.2488 238.047 22.2488C239.643 22.2488 240.69 23.0469 240.69 24.2689V25.8899C239.892 24.9422 238.471 24.4185 236.874 24.4185C234.954 24.4185 232.685 25.4909 232.685 28.309C232.685 31.0024 234.954 32.2993 236.874 32.2993C238.446 32.2993 239.867 31.7257 240.69 30.753V32H243.857ZM238.146 30.1545C236.899 30.1545 235.877 29.5061 235.877 28.3838C235.877 27.2117 236.899 26.5633 238.146 26.5633C239.169 26.5633 240.166 26.9124 240.69 27.6107V29.1071C240.166 29.8054 239.169 30.1545 238.146 30.1545ZM258.296 32V23.4958C258.296 21.1515 257.025 19.6551 254.381 19.6551C252.411 19.6551 250.939 20.6028 250.166 21.5256V19.9544H246.999V32H250.166V23.8948C250.69 23.1715 251.663 22.4733 252.91 22.4733C254.256 22.4733 255.129 23.0469 255.129 24.7178V32H258.296Z" fill="url(#paint0_linear_1367_672)"/>
<path d="M267 4L267 9.12212L269.626 9.12212C271.071 9.12212 272.253 10.3802 272.253 12.3122L272.253 19.4113C272.253 21.2984 272.822 22.871 274.266 23.5C272.822 24.129 272.253 25.7016 272.253 27.5887L272.253 34.7327C272.253 36.7097 271.071 37.8779 269.626 37.8779L267 37.8779L267 43L269.626 43C273.872 43 277.724 39.8998 277.724 34.6878L277.724 28.4873C277.724 26.8249 278.468 25.6118 280 25.6118L280 21.3882C278.468 21.3882 277.724 20.1751 277.724 18.5127L277.724 12.2673C277.724 7.0553 273.872 4 269.626 4L267 4Z" fill="#9C6DF6"/>
<defs>
<linearGradient id="paint0_linear_1367_672" x1="140.5" y1="9" x2="140.5" y2="39" gradientUnits="userSpaceOnUse">
<stop stop-color="#4E32CF"/>
<stop offset="1" stop-color="#895EEC"/>
</linearGradient>
</defs>
</svg>
