<svg width="24" height="25" viewBox="0 0 24 25" fill="none" xmlns="http://www.w3.org/2000/svg">
<path d="M15.2283 12L9.94142 13.5945L5.34195 15.4694L4.05518 15.7831C3.72746 16.071 3.38385 16.3626 3.0122 16.6579C2.6046 16.9826 2.22498 17.2779 1.93322 17.492C1.60956 17.7282 1.13002 18.1711 0.886279 18.4515C0.522614 18.8723 0.234906 19.3189 0.111018 19.6621C-0.108785 20.2822 -0.000837462 20.9096 0.422736 21.4891C0.966199 22.2273 2.04916 22.9802 3.31189 23.4932C3.9553 23.7553 5.03823 24.0911 5.8534 24.2793C7.20804 24.5967 9.82951 24.94 11.2721 24.9917C11.5637 25.0028 11.9554 25.0028 11.9713 24.9917C12.0033 24.9732 12.2271 24.5783 12.4869 24.0875C13.3741 22.4155 14.0134 20.8469 14.361 19.5072C14.5688 18.6952 14.7327 17.6138 14.8405 16.3331C14.8685 15.9751 14.8805 14.7756 14.8565 14.3696C14.8205 13.7052 14.7566 13.1664 14.6568 12.6386C14.6408 12.5611 14.6367 12.491 14.6447 12.4873C14.6607 12.4762 14.7086 12.4615 15.36 12.288L15.2282 12.0001V12H15.2283V12ZM14.0214 12.6533C14.0694 12.6533 14.1972 13.7864 14.2292 14.5024C14.2372 14.6537 14.2332 14.7534 14.2252 14.7534C14.1933 14.7534 13.5499 14.4028 13.0904 14.1371C12.6907 13.9045 11.9315 13.4395 11.8116 13.3509C11.7716 13.3251 11.7756 13.3214 12.1033 13.218C12.6587 13.0445 13.9775 12.6533 14.0214 12.6533ZM11.3281 13.4727C11.3641 13.4727 11.4559 13.5206 11.6757 13.6461C12.4989 14.1222 13.6178 14.698 14.0974 14.89C14.2452 14.949 14.2611 14.9269 13.9215 15.141C13.1942 15.5986 12.2871 16.0489 11.1761 16.5028C10.9804 16.584 10.8165 16.6468 10.8126 16.6468C10.8046 16.6468 10.8285 16.5545 10.8604 16.4438C11.1282 15.5247 11.2801 14.5947 11.2881 13.8491C11.2921 13.48 11.2921 13.48 11.3281 13.469C11.32 13.4727 11.324 13.4727 11.3281 13.4727ZM10.7726 13.6683C10.7965 13.6904 10.7806 14.5172 10.7486 14.7423C10.6767 15.2812 10.5648 15.7831 10.381 16.3478C10.3371 16.4843 10.297 16.5988 10.2891 16.6061C10.2731 16.6246 9.7256 16.13 9.54578 15.9381C9.23407 15.6059 8.99037 15.2737 8.81053 14.949C8.71861 14.7829 8.57479 14.4581 8.58675 14.447C8.65067 14.4064 10.7566 13.6535 10.7726 13.6683ZM8.15914 14.6168C8.16312 14.6168 8.1671 14.6168 8.17115 14.6205C8.17911 14.6279 8.20714 14.6869 8.23112 14.7534C8.35895 15.0745 8.64662 15.5469 8.89445 15.8495C9.16618 16.1817 9.52187 16.536 9.8175 16.7685C9.91345 16.8423 10.0013 16.9124 10.0133 16.9235C10.0373 16.9457 10.0453 16.942 9.39389 17.1708C8.63871 17.4366 7.81547 17.7023 6.87237 17.9828C6.64708 18.0499 6.422 18.1175 6.19713 18.1858C6.1611 18.1969 6.17312 18.1784 6.27701 18.0271C6.74454 17.3517 7.45582 16.0267 7.85545 15.0892C7.9234 14.9268 7.99132 14.7644 8.00333 14.7275C8.01933 14.6758 8.03927 14.6574 8.0912 14.6315C8.11917 14.6242 8.14718 14.6168 8.15914 14.6168ZM7.35999 14.9231C7.37195 14.9306 7.16815 15.3254 6.96834 15.6871C6.5807 16.3847 6.15712 17.0712 5.58969 17.9053C5.49379 18.0492 5.40191 18.1821 5.3899 18.1969C5.36994 18.2228 5.3619 18.2153 5.29798 18.1009C5.16211 17.8537 5.05019 17.5362 4.99026 17.2446C4.9303 16.9567 4.94231 16.4548 5.01027 16.1448C5.06216 15.916 5.05822 15.9197 5.17809 15.8643C5.68958 15.6244 7.344 14.9084 7.35999 14.9231ZM14.2532 15.1815V15.3365C14.2532 16.1596 14.1573 17.289 14.0174 18.112C13.9934 18.256 13.9734 18.374 13.9694 18.3778C13.9694 18.3778 13.8536 18.3483 13.7177 18.3113C13.1183 18.1378 12.4669 17.8832 11.8795 17.5843C11.4918 17.3886 10.9284 17.0675 10.9444 17.0527C10.9484 17.0491 11.1162 16.9679 11.312 16.8719C12.0953 16.4954 12.8465 16.0895 13.4979 15.6872C13.7417 15.5358 14.1093 15.2923 14.1893 15.2258L14.2532 15.1815ZM4.34288 16.2739C4.35886 16.2739 4.35486 16.3035 4.33089 16.4363C4.31489 16.5323 4.29494 16.7095 4.28699 16.8312C4.25495 17.3701 4.35092 17.7687 4.63863 18.3149C4.71855 18.4663 4.78253 18.5918 4.77847 18.5954C4.75048 18.6176 2.10513 19.3337 1.27388 19.544C1.02614 19.6067 0.810395 19.6621 0.794327 19.6657C0.766409 19.6732 0.762392 19.6695 0.77437 19.6067C0.866267 19.0642 1.31385 18.3555 1.93722 17.7576C2.35283 17.359 2.68452 17.1265 3.25196 16.8275C3.65956 16.6135 4.28694 16.2924 4.33489 16.2776C4.33492 16.2739 4.3389 16.2739 4.34288 16.2739ZM10.5768 17.3037C10.5808 17.3 10.6767 17.348 10.7926 17.4107C11.6477 17.8684 12.8386 18.2929 13.8535 18.5106L13.9455 18.5291L13.8176 18.5954C13.2861 18.8686 11.5398 19.5403 9.75361 20.1567C9.49382 20.2452 9.2381 20.3338 9.19008 20.3523C9.14213 20.3707 9.09817 20.3818 9.09817 20.3781C9.09817 20.3744 9.17014 20.2452 9.26198 20.0865C9.7615 19.2229 10.265 18.171 10.5208 17.4402C10.5528 17.3701 10.5727 17.3074 10.5768 17.3037ZM9.94142 17.4956C9.94548 17.4994 9.91347 17.5768 9.87348 17.6654C9.52585 18.4441 9.07023 19.2931 8.48683 20.2453C8.33901 20.4889 8.2151 20.6845 8.21105 20.6845C8.20712 20.6845 8.0872 20.618 7.94335 20.5369C7.09613 20.057 6.3449 19.4665 5.85342 18.8945L5.78146 18.8133L6.14507 18.721C7.44782 18.3925 8.55468 18.0382 9.65366 17.6027C9.80954 17.5436 9.93744 17.4956 9.94142 17.4956ZM13.8896 18.7689C13.8896 18.7689 13.8936 18.7726 13.8896 18.7689C13.8935 18.8538 13.6897 19.6142 13.5219 20.164C13.382 20.6254 13.2621 20.9871 13.0424 21.6256C12.9465 21.9061 12.8626 22.1386 12.8585 22.1386C12.8546 22.1386 12.8306 22.1349 12.8066 22.1276C11.6198 21.9282 10.5568 21.6514 9.5578 21.2824C9.27804 21.179 8.87845 21.0129 8.85448 20.9945C8.84652 20.987 9.0863 20.8837 9.38998 20.7619C11.2082 20.0275 13.0943 19.1933 13.7417 18.8354C13.8176 18.7911 13.8775 18.7689 13.8896 18.7689ZM4.77449 19.0569C4.78249 19.0642 4.27498 19.7396 3.56364 20.6586C3.3159 20.9797 3.0282 21.3562 2.92032 21.4964C2.81241 21.6367 2.64859 21.8581 2.55667 21.991L2.38876 22.2309L2.20893 22.0907C1.99712 21.9283 1.62953 21.5813 1.46569 21.3894C1.122 20.9945 0.890278 20.5775 0.798362 20.1974C0.754394 20.0202 0.754394 19.9315 0.794307 19.9205C0.854234 19.9058 1.9212 19.6732 2.92028 19.4591C3.47574 19.3411 4.11906 19.2008 4.35084 19.1492C4.58264 19.0974 4.77051 19.0569 4.77449 19.0569ZM5.28597 19.2377L5.4138 19.3706C5.9893 19.9648 6.57672 20.4041 7.28802 20.7878C7.41592 20.8543 7.5118 20.9133 7.50376 20.9171C7.47587 20.9355 5.03419 21.7363 3.90332 22.098C3.26797 22.3047 2.74445 22.4708 2.74051 22.4708C2.73653 22.4708 2.70054 22.4487 2.66051 22.4228L2.58863 22.3748L2.7045 22.2198C3.08011 21.7179 3.55172 21.168 4.5787 20.0238L5.28597 19.2377ZM8.47489 21.3451C8.47882 21.3414 8.65465 21.4005 8.87042 21.4744C9.38998 21.6552 9.8015 21.7696 10.353 21.8988C11.0324 22.0575 12.0154 22.2125 12.5948 22.2568C12.6828 22.2641 12.7307 22.2715 12.7147 22.2826C12.6867 22.2974 12.0993 22.4782 11.6677 22.6037C10.9804 22.803 8.88245 23.3751 7.17214 23.8291C6.85645 23.9139 6.5847 23.9841 6.56872 23.9877C6.5288 23.9952 6.39688 23.9619 6.39688 23.9471C6.39688 23.9398 6.49278 23.8254 6.60869 23.6999C7.18409 23.065 7.75558 22.3564 8.23112 21.6847C8.36295 21.5001 8.47489 21.3488 8.47489 21.3451ZM7.77152 21.3636C7.7755 21.3673 7.49181 21.788 6.99635 22.5114C6.7845 22.8177 6.54872 23.1647 6.46479 23.2865C6.38487 23.4046 6.265 23.5891 6.19709 23.6925L6.08118 23.8807L6.02126 23.8659C5.87736 23.829 4.86637 23.5005 4.59862 23.4009C4.26693 23.2791 3.92327 23.1315 3.6675 23.006C3.34786 22.8473 2.94828 22.611 2.98021 22.6037C2.98819 22.6 3.53567 22.4634 4.19498 22.2974C5.9453 21.8581 6.91632 21.6035 7.55175 21.4189C7.66766 21.3857 7.76754 21.3599 7.77152 21.3636ZM12.7467 22.4413H12.7506C12.7666 22.4782 12.1193 24.1391 11.8834 24.6631C11.8316 24.7812 11.8116 24.8108 11.7836 24.807C11.7157 24.8034 10.7766 24.6816 10.2051 24.6041C9.21015 24.4638 7.53975 24.1944 7.1202 24.1058L7.0243 24.0874L7.61964 23.9618C8.89843 23.6961 9.51381 23.5522 10.1372 23.375C10.9244 23.1536 11.7037 22.8768 12.4909 22.5372C12.6148 22.4855 12.7187 22.445 12.7467 22.4413Z" fill="url(#paint0_linear_1367_565)"/>
<path d="M9.81241 0.000204701C9.72141 -0.0117194 8.2531 0.499838 7.30601 0.871475C6.02796 1.37511 5.03539 1.85473 4.42325 2.27028C4.19581 2.42622 3.91037 2.70195 3.86494 2.80983C3.8484 2.84981 3.84009 2.89776 3.84009 2.94572L4.39433 3.45329L5.71367 3.86094L8.85287 4.4045L12.4428 5L12.4801 4.70026C12.4677 4.70026 12.4594 4.69628 12.4471 4.69628L11.9755 4.62431L11.8804 4.46047C11.3923 3.62915 10.8547 2.59802 10.5404 1.90261C10.2964 1.36305 10.0647 0.739647 9.93649 0.292004C9.86617 0.0202378 9.85793 0.00425923 9.8125 0.00027838V0.00018614H9.81241V0.000204701ZM9.74615 0.204094H9.75041C9.75447 0.208038 9.77102 0.320018 9.7876 0.451828C9.85784 1.01143 9.98616 1.55089 10.1888 2.13442C10.3418 2.57406 10.3418 2.5501 10.164 2.49811C9.74211 2.38624 7.85199 2.0705 6.48299 1.88666C6.26377 1.85867 6.07765 1.83071 6.07765 1.82673C6.06111 1.81075 7.06611 1.30314 7.50867 1.10336C8.07529 0.851516 9.6304 0.224054 9.74615 0.204094ZM5.75912 1.99455L5.92049 2.04645C6.79725 2.33425 9.00166 2.74192 10.2177 2.83783C10.3541 2.84983 10.47 2.86184 10.4741 2.86184C10.4782 2.86582 10.3625 2.92578 10.2135 2.99369C9.62628 3.27745 8.98104 3.62517 8.53435 3.89296C8.40204 3.97285 8.28204 4.03684 8.26554 4.03684C8.24899 4.03684 8.16217 4.02084 8.07117 4.00884L7.90574 3.98483L7.49219 3.59314C6.76425 2.90976 6.19347 2.38222 5.97425 2.18235L5.75912 1.99455ZM5.59374 2.11842L6.1769 2.82185C6.49533 3.20952 6.81794 3.58918 6.88832 3.67307C6.95856 3.75705 7.0165 3.82502 7.01239 3.829C6.99583 3.84098 6.1687 3.68509 5.73022 3.58921C5.27941 3.48927 5.0933 3.44131 4.8162 3.35742L4.5887 3.28545V3.22946C4.59282 2.96168 4.94442 2.56205 5.53997 2.15443L5.59374 2.11842ZM10.5486 3.07762C10.5652 3.07762 10.5858 3.11358 10.6354 3.22148C10.776 3.52121 11.2145 4.32856 11.322 4.48441C11.3551 4.53642 11.4129 4.5404 10.8298 4.44847C9.42779 4.2286 8.97692 4.15674 8.97692 4.14874C8.97692 4.14476 9.01829 4.11677 9.07206 4.08877C9.50635 3.85702 9.94473 3.56124 10.3335 3.2455C10.4287 3.16955 10.5155 3.09762 10.532 3.0856C10.5361 3.07762 10.5445 3.07364 10.5486 3.07762Z" fill="url(#paint1_linear_1367_565)"/>
<path d="M4.01767 3C4.01767 3 3.93015 3.13557 4.01372 3.33692C4.06552 3.46078 4.21675 3.61177 4.38788 3.76668C4.38788 3.76668 6.15921 5.44708 6.37417 5.68718C7.35334 6.78678 7.77929 7.87093 7.8191 9.36552C7.84298 10.3258 7.65584 11.1698 7.19016 12.1495C6.36221 13.9073 4.61472 15.8472 1.91992 18L2.31406 17.8722C2.5688 17.6863 2.91511 17.4889 3.72712 17.0552C5.60191 16.0562 7.71161 15.1386 10.299 14.1938C14.0247 12.8309 20.1508 11.2356 23.6376 10.7168L23.9999 10.6626L23.9442 10.5774C23.6258 10.0973 23.4068 9.79915 23.144 9.48165C22.3798 8.56012 21.4524 7.81287 20.3179 7.19334C18.7575 6.34542 16.7394 5.68332 14.1839 5.19158C13.7023 5.09861 12.6435 4.92052 11.7837 4.79275C9.96057 4.51791 8.78233 4.32814 7.48471 4.11131C7.01903 4.03384 6.32237 3.91771 5.86064 3.82094C5.62181 3.77055 5.16409 3.66603 4.80584 3.54601C4.51926 3.43754 4.10524 3.32912 4.01767 3ZM5.04471 3.96803C5.04864 3.96421 5.11231 3.98736 5.19596 4.01449C5.34721 4.06476 5.54224 4.12286 5.77317 4.18486C5.94788 4.2316 6.12302 4.27677 6.29859 4.32036C6.53741 4.37841 6.73641 4.43263 6.74037 4.43263C6.76829 4.45975 7.17034 5.7103 7.30567 6.19044C7.35734 6.37247 7.39723 6.52731 7.39325 6.52731C7.38915 6.53124 7.34543 6.46537 7.2937 6.37633C6.82796 5.57869 6.09157 4.76947 5.23972 4.11896C5.12832 4.04159 5.04471 3.97188 5.04471 3.96803ZM7.00312 4.49461C7.02303 4.49461 7.11061 4.50623 7.21802 4.52944C7.89473 4.67657 9.10881 4.90115 9.88498 5.02893C10.0164 5.04827 10.1199 5.07155 10.1199 5.07925C10.1199 5.08703 10.0721 5.11408 10.0123 5.1451C9.88103 5.21089 9.35158 5.51675 9.17649 5.63293C8.73461 5.91945 8.3366 6.2292 8.04998 6.50797C7.93456 6.62028 7.835 6.7132 7.835 6.7132C7.835 6.7132 7.81119 6.6474 7.7912 6.56604C7.64799 6.02783 7.3494 5.2302 7.07872 4.6688C7.03492 4.57977 6.99908 4.49844 6.99908 4.49073C6.99908 4.49846 6.99908 4.49461 7.00312 4.49461ZM10.4502 5.13348C10.4741 5.14119 10.5139 5.27285 10.5935 5.56323C10.7408 6.1247 10.8085 6.75194 10.7846 7.3366C10.7766 7.49923 10.7687 7.65021 10.7607 7.66962L10.7488 7.70829L10.5418 7.6425C10.1159 7.51085 9.42328 7.31334 8.83021 7.15075C8.4918 7.06169 8.21722 6.98038 8.21722 6.97265C8.21722 6.94938 8.71082 6.46928 8.92176 6.28732C9.32372 5.94266 10.4144 5.12183 10.4502 5.13348ZM10.7249 5.17215C10.7369 5.1606 12.3728 5.43544 13.1172 5.57485C13.6705 5.67937 14.4746 5.84202 14.5223 5.86141C14.5462 5.86912 14.4626 5.91558 14.1959 6.03172C13.145 6.49253 12.3648 6.90676 11.5887 7.41017C11.3857 7.54181 11.2145 7.65021 11.2105 7.65021C11.2066 7.65021 11.2026 7.53795 11.2026 7.40242C11.2026 6.66677 11.0513 5.92335 10.7726 5.2961C10.7448 5.23414 10.7209 5.17608 10.7249 5.17215ZM14.9562 5.9853C14.9681 5.99691 14.9164 6.31057 14.8686 6.49638C14.7253 7.07331 14.3392 7.92907 13.8656 8.73438C13.7819 8.87765 13.7063 8.99381 13.6983 8.99767C13.6904 9.00153 13.5829 8.94343 13.4595 8.87374C12.9978 8.61045 12.4724 8.36266 11.8991 8.13031C11.74 8.06452 11.6006 8.01027 11.5966 8.0026C11.5687 7.97933 12.8505 7.15461 13.5272 6.75967C14.0646 6.44219 14.9402 5.96979 14.9562 5.9853ZM15.2587 6.03174C15.2945 6.03174 16.019 6.22536 16.3971 6.33378C17.3325 6.60483 18.4072 6.98813 19.1078 7.29788L19.3984 7.4257L19.1954 7.47212C17.4838 7.85542 16.019 8.29688 14.6059 8.85442C14.4904 8.90088 14.3869 8.93961 14.379 8.93961C14.371 8.93961 14.4109 8.85056 14.4626 8.74211C14.8885 7.8632 15.1632 6.94554 15.2308 6.16337C15.2348 6.08979 15.2467 6.03174 15.2587 6.03174ZM8.04601 7.6425C8.05793 7.63085 8.61124 7.75866 8.90978 7.8399C9.36355 7.96385 10.3268 8.27744 10.3268 8.3007C10.3268 8.30456 10.2194 8.39362 10.092 8.50207C9.57058 8.92411 9.069 9.36932 8.4679 9.93465C8.28877 10.1012 8.13755 10.2367 8.12962 10.2367C8.12162 10.2367 8.11771 10.2134 8.12162 10.1825C8.21316 9.53195 8.19332 8.69564 8.06593 7.84769C8.05394 7.73923 8.04203 7.64635 8.04601 7.6425ZM19.6731 7.65414C19.681 7.66183 19.4183 8.06452 19.2512 8.29294C19.0124 8.62591 18.662 9.0674 17.8699 10.0354C17.452 10.5464 16.9822 11.1234 16.827 11.317C16.6677 11.5105 16.5364 11.6731 16.5324 11.6731C16.5284 11.6731 16.4768 11.6035 16.421 11.5183C15.9752 10.8678 15.4418 10.2986 14.8088 9.78754C14.6894 9.69071 14.5581 9.58617 14.5143 9.55519C14.4706 9.52423 14.4347 9.49326 14.4347 9.4894C14.4347 9.47781 15.1113 9.1951 15.6249 8.9938C16.5245 8.63755 17.7504 8.21166 18.67 7.93673C19.1516 7.78962 19.6651 7.64635 19.6731 7.65414ZM19.9796 7.73152C19.9955 7.72768 20.0911 7.77414 20.2065 7.8399C21.1738 8.3781 22.1211 9.07122 22.8695 9.78367C23.0804 9.98504 23.6019 10.5116 23.5939 10.5155C23.5939 10.5155 23.4108 10.531 23.1959 10.5464C21.5201 10.6704 19.3746 11.0149 17.3127 11.4989C17.1734 11.5298 17.05 11.557 17.042 11.557C17.0341 11.557 17.1893 11.406 17.3844 11.224C18.5944 10.0895 19.1478 9.37323 19.8005 8.09546C19.892 7.90579 19.9717 7.74316 19.9796 7.73152C19.9756 7.73152 19.9756 7.73152 19.9796 7.73152ZM11.115 8.61438C11.1707 8.62593 11.6882 8.86221 12.0783 9.05188C12.4365 9.22606 12.9739 9.5049 13.0018 9.52809C13.0057 9.53195 12.8146 9.62876 12.5799 9.74107C11.8315 10.105 11.1906 10.4496 10.5219 10.8445C10.3308 10.9568 10.1716 11.0498 10.1676 11.0498C10.1517 11.0498 10.1557 11.0342 10.2632 10.8445C10.6214 10.2096 10.908 9.45069 11.0712 8.71112C11.0871 8.65305 11.103 8.61438 11.115 8.61438ZM10.5975 8.70726C10.6094 8.7189 10.4741 9.19511 10.3906 9.45455C10.2273 9.94629 9.95266 10.5619 9.686 11.0266C9.62224 11.1349 9.52673 11.2937 9.47499 11.3827L9.3755 11.5376L9.15259 11.3286C8.89388 11.0846 8.68287 10.9336 8.41225 10.7981C8.3047 10.7439 8.22115 10.6974 8.22115 10.6897C8.22115 10.6587 8.90181 10.0586 9.42326 9.62492C9.79741 9.31128 10.5856 8.69566 10.5975 8.70726ZM13.7621 9.97341L13.9571 10.0973C14.4029 10.38 14.9283 10.7555 15.3304 11.0846C15.5572 11.2666 15.995 11.6499 16.0827 11.7429L16.1304 11.7932L15.808 11.8823C13.9849 12.374 12.5758 12.8115 10.9319 13.4001C10.7488 13.4659 10.5935 13.5201 10.5815 13.5201C10.5577 13.5201 10.5378 13.5394 10.9478 13.1716C11.9987 12.2308 12.9301 11.193 13.6227 10.1824L13.7621 9.97341ZM12.9301 10.1747C12.9381 10.1825 12.3927 10.9297 12.0663 11.3518C11.6762 11.8552 10.9836 12.6992 10.5059 13.249C10.307 13.4775 10.1358 13.6672 10.1278 13.6711C10.1159 13.6749 10.1119 13.6169 10.1119 13.5278C10.1119 13.0593 9.98853 12.5598 9.77354 12.1339C9.68198 11.9558 9.66605 11.9132 9.68602 11.8939C9.76163 11.828 10.9199 11.1853 11.6523 10.802C12.1459 10.5464 12.9181 10.167 12.9301 10.1747ZM7.89869 11.375C7.91066 11.375 8.00222 11.4215 8.10573 11.4757C8.36047 11.6112 8.58736 11.7622 8.79036 11.9249C8.79829 11.9326 8.69483 12.0139 8.5595 12.1107C8.18133 12.374 7.60816 12.796 7.27384 13.0555C6.92347 13.3265 6.91161 13.3342 6.95137 13.2762C7.21411 12.8851 7.34541 12.6644 7.48479 12.3818C7.60816 12.1301 7.73152 11.832 7.8191 11.5725C7.85093 11.4602 7.89076 11.375 7.89869 11.375ZM9.24018 12.3972C9.26002 12.3934 9.28398 12.4282 9.3914 12.5831C9.61829 12.9121 9.79344 13.3536 9.83729 13.7098L9.84517 13.7873L9.29991 13.9925C8.32462 14.3603 7.42508 14.7243 6.81598 14.9953C6.64487 15.0728 6.34631 15.2121 6.1513 15.3051C5.95623 15.4018 5.79702 15.4754 5.79702 15.4716C5.79702 15.4677 5.92038 15.3787 6.07164 15.2702C7.26189 14.43 8.29281 13.5085 9.06501 12.587C9.14862 12.4901 9.22428 12.4011 9.23218 12.3972L9.24018 12.3972ZM8.62321 12.5444C8.63914 12.5599 8.18537 13.0593 7.87488 13.3652C7.10664 14.128 6.34635 14.7243 5.40294 15.3051C5.28353 15.3787 5.17608 15.4445 5.16411 15.4522C5.13623 15.4677 5.17204 15.429 5.58604 14.9914C5.84878 14.7165 6.04777 14.4842 6.27467 14.1977C6.42592 14.008 6.4538 13.9809 6.67277 13.8298C7.25791 13.4194 8.60728 12.5289 8.62321 12.5444Z" fill="url(#paint2_radial_1367_565)"/>
<defs>
<linearGradient id="paint0_linear_1367_565" x1="3.97749" y1="22.5881" x2="5.80761" y2="21.4172" gradientUnits="userSpaceOnUse">
<stop stop-color="#909CA9"/>
<stop offset="1" stop-color="#EDEDEE"/>
</linearGradient>
<linearGradient id="paint1_linear_1367_565" x1="3.8546" y1="2.49229" x2="5.44665" y2="2.49229" gradientUnits="userSpaceOnUse">
<stop stop-color="#939FAB"/>
<stop offset="1" stop-color="#DCDEE1"/>
</linearGradient>
<radialGradient id="paint2_radial_1367_565" cx="0" cy="0" r="1" gradientUnits="userSpaceOnUse" gradientTransform="translate(11.7116 9.58213) rotate(-171.687) scale(1.97429 3.84639)">
<stop stop-color="#EE352C"/>
<stop offset="1" stop-color="#A91D22"/>
</radialGradient>
</defs>
</svg>
