<svg width="23" height="22" viewBox="0 0 23 22" fill="none" xmlns="http://www.w3.org/2000/svg">
<path fill-rule="evenodd" clip-rule="evenodd" d="M21.1854 17.2238C19.9342 17.191 18.9636 17.3115 18.1501 17.6329C17.9159 17.7213 17.54 17.7213 17.5091 17.9982C17.6343 18.1145 17.6494 18.3046 17.7591 18.4657C17.9467 18.758 18.2756 19.1518 18.5726 19.356L19.5737 20.0281C20.1839 20.3783 20.8722 20.5829 21.4666 20.9335C21.8109 21.1381 22.1549 21.4009 22.4993 21.6202C22.6746 21.7371 22.7808 21.9273 23 22V21.9558C22.8906 21.8248 22.859 21.635 22.75 21.4883L22.2801 21.0651C21.8267 20.4955 21.2632 19.9986 20.6531 19.5901C20.1523 19.2686 19.0576 18.8307 18.8542 18.2906L18.8233 18.2578C19.167 18.2251 19.5738 18.1115 19.9027 18.0238C20.435 17.8928 20.9196 17.9216 21.4666 17.7904L22.218 17.5858V17.4549C21.9365 17.192 21.7331 16.8414 21.4361 16.5933C20.6383 15.9507 19.7617 15.3226 18.8542 14.7969C18.3693 14.5049 17.7433 14.3147 17.2272 14.0669C17.0389 13.9792 16.7264 13.9353 16.617 13.7893C16.3348 13.4685 16.1787 13.0446 15.9753 12.6646L14.6926 10.1235C14.4111 9.55389 14.2385 8.98432 13.8949 8.45862C12.2833 5.97575 10.5307 4.47163 7.83979 2.99632C7.26121 2.6896 6.57288 2.55768 5.84106 2.39729L4.66777 2.33837C4.41705 2.23624 4.16704 1.95865 3.94788 1.82706C3.05616 1.30136 0.75622 0.162218 0.0987428 1.66339C-0.323796 2.61267 0.72466 3.54723 1.08057 4.0294C1.34707 4.36525 1.69071 4.74496 1.87902 5.12467C1.98421 5.37279 2.01928 5.63598 2.12903 5.89883C2.37905 6.54139 2.61399 7.25728 2.94255 7.85631C3.11788 8.16303 3.30197 8.4848 3.52113 8.76206C3.64632 8.92573 3.86547 8.99578 3.91211 9.25863C3.69295 9.55095 3.67787 9.9886 3.55269 10.3542C2.98919 12.0047 3.20835 14.0492 4.00609 15.2643C4.2568 15.6293 4.84766 16.4329 5.64926 16.1259C6.35337 15.863 6.19628 15.0306 6.39966 14.3003C6.447 14.1252 6.41544 14.0083 6.50906 13.8911V13.9239L7.15076 15.136C7.63571 15.8516 8.48079 16.5966 9.18456 17.0935C9.55976 17.3563 9.85711 17.8094 10.3263 17.9698V17.9256H10.2954C10.2015 17.7946 10.0605 17.7357 9.93531 17.6336C9.65373 17.3707 9.34095 17.0493 9.12179 16.7573C8.46501 15.9396 7.88643 15.0339 7.36992 14.0993C7.1192 13.6466 6.90004 13.15 6.69736 12.6973C6.60269 12.5219 6.60269 12.2587 6.44665 12.1716C6.21171 12.4924 5.86806 12.7706 5.69519 13.1648C5.39784 13.7926 5.36698 14.5668 5.25757 15.37C5.19446 15.3848 5.22251 15.37 5.19446 15.4028C4.69442 15.2862 4.5219 14.8037 4.3343 14.3952C3.86513 13.3582 3.78658 11.6934 4.19334 10.4956C4.30274 10.1889 4.77262 9.22492 4.58502 8.93293C4.49034 8.65535 4.17826 8.49495 4.00573 8.27563C3.80235 7.99805 3.5839 7.6478 3.44293 7.34108C3.06773 6.52274 2.88013 5.61764 2.47302 4.79962C2.28472 4.41991 1.95651 4.02547 1.69036 3.67522C1.39301 3.28077 1.06515 3.00319 0.830208 2.53608C0.752012 2.37241 0.642607 2.1125 0.767791 1.93705C0.798649 1.82019 0.861767 1.77338 0.986249 1.74719C1.18963 1.58352 1.76891 1.79106 1.97229 1.87813C2.55087 2.09744 3.03582 2.3017 3.52078 2.60809C3.73994 2.75409 3.97488 3.03167 4.25646 3.10499H4.58537C5.0861 3.20712 5.6489 3.13773 6.11773 3.26866C6.94703 3.51744 7.69778 3.88209 8.37104 4.27686C10.4203 5.489 12.1104 7.21244 13.2521 9.27205C13.4397 9.6079 13.5179 9.91462 13.6905 10.2652C14.0194 10.9811 14.4261 11.7111 14.754 12.4125C15.0829 13.099 15.3957 13.8005 15.8649 14.37C16.0998 14.6767 17.0382 14.8371 17.4604 14.9979C17.7735 15.1288 18.2581 15.2466 18.5404 15.407C19.072 15.7137 19.6039 16.0643 20.1043 16.4002C20.3543 16.575 21.137 16.9403 21.1836 17.2316L21.1854 17.2238ZM5.23057 4.53219C5.01442 4.5304 4.79893 4.55494 4.58958 4.60519V4.63792H4.62043C4.74562 4.87164 4.96478 5.03236 5.12117 5.23695L5.48129 5.93811L5.51215 5.90537C5.73131 5.75938 5.84106 5.52566 5.84106 5.17541C5.74709 5.07328 5.73166 4.97082 5.65346 4.86869C5.55949 4.7227 5.35611 4.64938 5.23057 4.53284V4.53219Z" fill="#00678C"/>
</svg>
