<svg width="25" height="22" viewBox="0 0 25 22" fill="none" xmlns="http://www.w3.org/2000/svg">
<path d="M25 11.0025C25 9.366 22.926 7.81508 19.7462 6.85331C20.4801 3.65074 20.1539 1.10278 18.7168 0.287025C18.3856 0.0956749 17.9984 0.00503305 17.5754 0.00503305V1.12796C17.8098 1.12796 17.9984 1.17328 18.1563 1.25887C18.8494 1.65164 19.1501 3.14718 18.9156 5.07074C18.8596 5.54408 18.7679 6.04259 18.6558 6.55117C17.6569 6.30947 16.5664 6.12316 15.4199 6.00231C14.732 5.07074 14.0186 4.22477 13.3 3.48456C14.9613 1.95881 16.5206 1.12291 17.5806 1.12291V0C16.1791 0 14.3447 0.98696 12.4899 2.69902C10.6349 0.997026 8.80048 0.0201439 7.39916 0.0201439V1.14305C8.45397 1.14305 10.0183 1.97392 11.6796 3.4896C10.9662 4.22982 10.2527 5.07074 9.57498 6.00231C8.42331 6.12316 7.33284 6.30947 6.33409 6.5562C6.21684 6.05266 6.13024 5.56421 6.06905 5.09591C5.82965 3.17236 6.12511 1.67682 6.81313 1.27902C6.96593 1.18838 7.16465 1.1481 7.39916 1.1481V0.0251769C6.97106 0.0251769 6.58375 0.115819 6.24749 0.307169C4.81552 1.12291 4.49453 3.66584 5.23336 6.85834C2.0638 7.82516 0 9.37107 0 11.0025C0 12.6391 2.07399 14.1901 5.25376 15.1518C4.51994 18.3544 4.84606 20.9023 6.28316 21.7181C6.6144 21.9094 7.0016 22 7.4297 22C8.83102 22 10.6656 21.0131 12.5204 19.301C14.3752 21.0031 16.2098 21.98 17.6111 21.98C18.0391 21.98 18.4264 21.8893 18.7628 21.6979C20.1946 20.8821 20.5157 18.3392 19.7768 15.1468C22.9362 14.185 25 12.6341 25 11.0025ZM18.3653 7.64387C18.1767 8.2935 17.9423 8.96312 17.6773 9.63286C17.4684 9.23009 17.2493 8.82722 17.0098 8.42434C16.7754 8.02154 16.5256 7.62877 16.276 7.24607C16.9995 7.35181 17.6977 7.48274 18.3653 7.64387ZM16.0313 13.0066C15.6339 13.6865 15.2263 14.331 14.8033 14.9303C14.044 14.9957 13.2746 15.0309 12.5 15.0309C11.7305 15.0309 10.961 14.9957 10.2069 14.9352C9.78396 14.336 9.37113 13.6965 8.97368 13.0217C8.58637 12.3621 8.23485 11.6924 7.91374 11.0177C8.22972 10.3429 8.58637 9.6681 8.96866 9.0085C9.36611 8.32874 9.7737 7.68416 10.1967 7.08493C10.956 7.01947 11.7254 6.98423 12.5 6.98423C13.2695 6.98423 14.039 7.01947 14.7931 7.0799C15.216 7.67913 15.6289 8.31861 16.0263 8.99341C16.4136 9.65301 16.7652 10.3227 17.0863 10.9976C16.7652 11.6722 16.4136 12.347 16.0313 13.0066ZM17.6773 12.3521C17.9448 13.0083 18.1795 13.6772 18.3806 14.3561C17.713 14.5173 17.0098 14.6533 16.2811 14.759C16.5308 14.3713 16.7804 13.9735 17.0149 13.5656C17.2493 13.1628 17.4684 12.7549 17.6773 12.3521ZM12.5101 17.725C12.0362 17.2415 11.5623 16.7027 11.0935 16.1136C11.5522 16.1337 12.021 16.1488 12.4949 16.1488C12.9739 16.1488 13.4478 16.1388 13.9116 16.1136C13.4742 16.6753 13.0063 17.2132 12.5101 17.725ZM8.71889 14.759C7.99533 14.6533 7.29717 14.5223 6.62967 14.3612C6.81814 13.7116 7.05264 13.0419 7.31757 12.3722C7.52655 12.775 7.74567 13.1779 7.98507 13.5807C8.22459 13.9836 8.46923 14.3763 8.71889 14.759ZM12.4847 4.28017C12.9586 4.76357 13.4325 5.30238 13.9013 5.89152C13.4427 5.87138 12.9739 5.85628 12.5 5.85628C12.021 5.85628 11.5471 5.86635 11.0834 5.89152C11.5208 5.32984 11.9886 4.79194 12.4847 4.28017ZM8.71376 7.24607C8.46411 7.63381 8.21445 8.03161 7.98006 8.43943C7.74567 8.8423 7.52655 9.24518 7.31757 9.64795C7.05005 8.99173 6.81538 8.32289 6.6144 7.64387C7.28191 7.48778 7.98507 7.35181 8.71376 7.24607ZM4.1021 13.5505C2.29821 12.7901 1.13127 11.7932 1.13127 11.0025C1.13127 10.212 2.29821 9.20994 4.1021 8.45463C4.54034 8.26828 5.01937 8.1021 5.51367 7.94601C5.80412 8.93294 6.1863 9.96018 6.66021 11.0126C6.19143 12.06 5.81427 13.0822 5.52894 14.0642C5.0245 13.908 4.54546 13.7368 4.1021 13.5505ZM6.84366 20.7462C6.15064 20.3535 5.84993 18.8579 6.08443 16.9343C6.1405 16.4611 6.23211 15.9625 6.34423 15.4539C7.3431 15.6956 8.43357 15.882 9.5801 16.0028C10.268 16.9343 10.9814 17.7803 11.7 18.5205C10.0387 20.0463 8.47938 20.8821 7.41944 20.8821C7.19018 20.8772 6.99658 20.8318 6.84366 20.7462ZM18.9309 16.9092C19.1703 18.8327 18.8749 20.3283 18.1869 20.7261C18.0341 20.8167 17.8353 20.857 17.6008 20.857C16.546 20.857 14.9817 20.0261 13.3204 18.5105C14.0338 17.7702 14.7473 16.9294 15.425 15.9977C16.5767 15.8769 17.6672 15.6905 18.6659 15.4438C18.7832 15.9524 18.8749 16.4409 18.9309 16.9092ZM20.8928 13.5505C20.4545 13.7368 19.9755 13.903 19.4812 14.0591C19.1907 13.0722 18.8086 12.0449 18.3347 10.9925C18.8036 9.94509 19.1806 8.92292 19.4659 7.94096C19.9705 8.09707 20.4494 8.26828 20.8979 8.45463C22.7018 9.21489 23.8687 10.212 23.8687 11.0025C23.8636 11.7932 22.6967 12.7952 20.8928 13.5505Z" fill="#27C4EF"/>
<circle cx="12.5" cy="11.5" r="1.5" fill="#27C4EF"/>
</svg>
