<svg width="29" height="11" viewBox="0 0 29 11" fill="none" xmlns="http://www.w3.org/2000/svg">
<path d="M10.1172 2.1402C11.1554 5.03945 11.5487 10.2115 14.5846 10.2115C14.8158 10.2115 15.0493 10.1908 15.2837 10.1501C12.5239 9.56246 12.1968 4.44672 10.5128 1.79749C10.3808 1.90707 10.2497 2.0213 10.1172 2.1402Z" fill="url(#paint0_linear_1367_481)"/>
<path d="M10.5127 1.79745C12.1967 4.44669 12.5238 9.56243 15.2835 10.15C15.5004 10.1137 15.7176 10.0587 15.9354 9.98928C13.4582 8.88086 12.7735 3.91321 10.8611 1.52161C10.7453 1.60964 10.629 1.70187 10.5127 1.79745Z" fill="url(#paint1_linear_1367_481)"/>
<path d="M12.9391 0.221924C12.7084 0.221924 12.4744 0.242565 12.2395 0.283287C11.6252 0.38905 11.0012 0.630605 10.3721 0.996134C10.5439 1.15097 10.7075 1.32822 10.8613 1.52158C11.5011 1.03675 12.1367 0.678425 12.77 0.463068C13.0076 0.382689 13.2444 0.322206 13.482 0.28244C13.3106 0.242632 13.13 0.221924 12.9391 0.221924Z" fill="#14559A"/>
<path d="M17.8692 8.96758C18.1226 8.78356 18.3765 8.58005 18.6308 8.35796C17.5759 5.47221 17.1984 0.226196 14.1412 0.226196C13.9225 0.226196 13.702 0.24481 13.4819 0.282036C16.2667 0.914538 16.6234 6.44739 17.8692 8.96758Z" fill="url(#paint2_linear_1367_481)"/>
<path d="M13.4819 0.282276C13.3105 0.24251 13.1298 0.221802 12.939 0.221802L14.1412 0.225824C13.9225 0.225824 13.702 0.244438 13.4819 0.282109" fill="#3092C4"/>
<path d="M17.8157 9.58062C17.6962 9.47655 17.5827 9.36232 17.4711 9.24048C16.9568 9.573 16.4444 9.82515 15.9353 9.9893C16.1164 10.0701 16.3064 10.1302 16.5079 10.1674C16.664 10.1965 16.8257 10.2114 16.9957 10.2114C17.567 10.2114 18.0187 10.1497 18.4032 9.98128C18.1915 9.87677 17.9973 9.74139 17.8157 9.58062Z" fill="#1969BC"/>
<path d="M12.7698 0.46362C15.2641 1.65497 15.4809 7.04991 17.4711 9.24054C17.6046 9.15468 17.7366 9.0637 17.8686 8.96764C16.6229 6.44746 16.2666 0.914162 13.4823 0.282104C13.2446 0.322717 13.0074 0.382831 12.7698 0.46362Z" fill="url(#paint3_linear_1367_481)"/>
<path d="M10.8611 1.52169C12.7735 3.9133 13.4582 8.88094 15.9354 9.98937C16.4445 9.82522 16.9569 9.57307 17.4711 9.24055C15.4809 7.04991 15.2641 1.65497 12.7698 0.463623C12.1365 0.678536 11.5009 1.03686 10.8611 1.52169Z" fill="url(#paint4_linear_1367_481)"/>
<path d="M8.89362 2.07038C8.59387 2.68935 8.28764 3.50288 7.91748 4.56478C8.65363 3.61752 9.38747 2.80144 10.1171 2.14021C10.0166 1.85801 9.90866 1.59783 9.79238 1.36597C9.49402 1.57455 9.19335 1.80937 8.89362 2.07038Z" fill="url(#paint5_linear_1367_481)"/>
<path d="M10.0582 1.1875C9.97014 1.24503 9.88167 1.30386 9.79272 1.36603C9.90899 1.59787 10.0165 1.85808 10.117 2.14024C10.2495 2.02178 10.381 1.90714 10.5126 1.79756C10.3713 1.57587 10.2212 1.3711 10.0582 1.1875Z" fill="#2B74B1"/>
<path d="M10.3722 0.996094C10.2675 1.05661 10.1633 1.12047 10.0581 1.18731C10.2212 1.37093 10.3713 1.57569 10.513 1.79782C10.6293 1.70177 10.7456 1.60913 10.8614 1.52154C10.7076 1.32822 10.5441 1.15093 10.3722 0.996094Z" fill="#125A9E"/>
<path d="M27.3854 0.00116491C25.9747 4.96921 23.0282 8.95957 20.558 9.96562H20.5534C20.5084 9.98424 20.4639 10.0012 20.4199 10.0176C20.4139 10.021 20.4084 10.0214 20.4037 10.0234C20.3907 10.0282 20.3787 10.0319 20.3657 10.0366C20.3597 10.04 20.3541 10.0411 20.3486 10.0431C20.3278 10.0499 20.3074 10.0556 20.287 10.063C20.2782 10.0664 20.2699 10.0685 20.2615 10.0712C20.2522 10.0745 20.2415 10.0776 20.2309 10.0803C20.2216 10.0837 20.2119 10.0861 20.2012 10.0898C20.1924 10.0931 20.1832 10.0946 20.1749 10.0979C20.1568 10.1027 20.1401 10.1067 20.122 10.1125C20.1146 10.1125 20.1077 10.1162 20.0998 10.1179C20.0887 10.1213 20.0762 10.1237 20.0641 10.1267C20.0558 10.1301 20.0489 10.1312 20.04 10.1328C20.0275 10.1362 20.0136 10.1393 20.0011 10.142C19.9844 10.1453 19.9696 10.1484 19.9539 10.1515C20.0655 10.1891 20.1818 10.2081 20.3073 10.2081C22.6497 10.2081 25.0114 6.37476 28.9192 0H27.3848L27.3854 0.00116491Z" fill="url(#paint6_linear_1367_481)"/>
<path d="M7.40876 0.423581C7.41023 0.423581 7.41207 0.420229 7.41299 0.420229C7.41482 0.420229 7.41767 0.420229 7.41858 0.416877H7.42152C7.43449 0.412854 7.44654 0.408077 7.45951 0.403677C7.46281 0.403677 7.46455 0.403677 7.46694 0.400325C7.47024 0.400325 7.47346 0.396973 7.47669 0.396554C7.49059 0.392531 7.50448 0.387754 7.51746 0.383354H7.51966C7.55072 0.374898 7.57942 0.364406 7.60953 0.354592C7.61376 0.354592 7.61789 0.35124 7.62295 0.35124C7.63548 0.347552 7.64846 0.343446 7.6614 0.340747C7.66746 0.337395 7.67345 0.337395 7.67901 0.335635C7.69242 0.331948 7.70544 0.327841 7.71793 0.325143C7.72353 0.325143 7.7286 0.32179 7.73275 0.321455C7.77584 0.310627 7.81845 0.30047 7.86154 0.290992C7.8676 0.290992 7.87266 0.287639 7.87914 0.287304C7.89163 0.283952 7.90324 0.282192 7.91667 0.280516C7.92227 0.277164 7.92872 0.277164 7.93521 0.275404C7.9477 0.272051 7.95974 0.271716 7.97319 0.268951H7.982C8.00795 0.264174 8.03436 0.260151 8.0603 0.255751H8.07605C8.08854 0.252399 8.09966 0.252064 8.11219 0.249969C8.11907 0.249969 8.12608 0.246616 8.13257 0.246616C8.14414 0.246616 8.15574 0.243264 8.1673 0.241839C8.17336 0.241839 8.17934 0.241839 8.18631 0.238487C8.21363 0.235135 8.2419 0.233794 8.27063 0.231699C8.18955 0.224575 8.10616 0.219849 8.02138 0.219849C5.38347 0.219849 1.74905 4.68953 0.111816 10.4779H0.42731C0.951278 9.6246 1.42197 8.81739 1.85236 8.05967C2.99897 3.95975 5.33436 1.16369 7.40893 0.422919" fill="url(#paint7_linear_1367_481)"/>
<path d="M8.89355 2.07036C9.19331 1.80934 9.49396 1.57453 9.79232 1.36597C9.72423 1.22975 9.65381 1.10367 9.57828 0.988159C9.33692 1.25553 9.1164 1.60838 8.89355 2.07036Z" fill="#0D82CA"/>
<path d="M9.11026 0.457411C9.2826 0.589405 9.43685 0.770913 9.57817 0.988373C9.62265 0.93845 9.6676 0.892323 9.71438 0.849171C9.51843 0.68207 9.30669 0.544997 9.0769 0.441772C9.08617 0.446466 9.09543 0.450237 9.10507 0.453958C9.10507 0.453958 9.10874 0.45731 9.1103 0.45731" fill="#0D82CA"/>
<path d="M1.85229 8.06012C4.25764 3.82733 5.39731 1.14847 7.40887 0.42334C5.33476 1.16458 2.99891 3.96061 1.85229 8.06012Z" fill="url(#paint8_linear_1367_481)"/>
<path d="M9.71432 0.849121C9.66756 0.892717 9.62308 0.938408 9.57812 0.988332C9.65365 1.10381 9.72404 1.22948 9.79264 1.36611C9.88159 1.30394 9.97006 1.24511 10.0581 1.18758C9.94923 1.06489 9.83433 0.951096 9.71432 0.849121Z" fill="#127BCA"/>
<path d="M2.94421 10.4594C2.92938 10.4627 2.91456 10.4627 2.90066 10.4641H2.89232C2.87979 10.4641 2.86682 10.4675 2.85526 10.4675H2.84922C2.81912 10.4708 2.78945 10.4708 2.76073 10.4729H2.75146C5.186 10.4107 6.29879 9.29762 6.85102 7.68321C7.27075 6.45929 7.61544 5.42827 7.9175 4.56311C6.89782 5.87377 5.8735 7.43614 4.84363 9.18637C4.347 10.03 3.59185 10.3824 2.94419 10.4577" fill="url(#paint9_linear_1367_481)"/>
<path d="M2.94409 10.4585C3.59176 10.3831 4.3469 10.0311 4.84354 9.18712C5.8734 7.43732 6.89818 5.87452 7.91693 4.56386C8.28755 3.50152 8.59332 2.68843 8.89352 2.06946C6.86297 3.83449 4.82454 6.76932 2.94409 10.4576" fill="url(#paint10_linear_1367_481)"/>
<path d="M1.85205 8.06018C1.42168 8.81791 0.95099 9.62512 0.427002 10.4784H1.34478C1.46616 9.631 1.6385 8.82295 1.85205 8.06058" fill="#05A1E6"/>
<path d="M8.18609 0.240643C8.17865 0.240643 8.17311 0.243996 8.16663 0.243996C8.15551 0.247348 8.14391 0.247348 8.13235 0.248437C8.12546 0.248437 8.11893 0.248437 8.11196 0.25179C8.09944 0.255142 8.08787 0.255477 8.07582 0.257572C8.07023 0.257572 8.06471 0.257572 8.06008 0.260925C8.03365 0.264947 8.00772 0.269389 7.98178 0.273445H7.97297C7.95955 0.276797 7.94747 0.278557 7.93498 0.280234C7.92846 0.283586 7.922 0.283586 7.91597 0.284927C7.90348 0.288279 7.89095 0.289704 7.87891 0.291715C7.87239 0.295067 7.86734 0.295067 7.8613 0.295402C7.81822 0.304881 7.77559 0.315038 7.7325 0.325866C7.72792 0.325866 7.72324 0.329218 7.71768 0.329889C7.70472 0.333241 7.69219 0.336677 7.67877 0.340381C7.67317 0.343733 7.66672 0.343733 7.66116 0.345074C7.64819 0.348427 7.63522 0.351863 7.62271 0.355567C7.61766 0.355567 7.61345 0.358919 7.60881 0.358919C7.57916 0.369068 7.54998 0.379225 7.5194 0.38769C7.50643 0.391377 7.49253 0.396146 7.47863 0.400546C7.47304 0.403898 7.46796 0.404652 7.46151 0.406999C7.44853 0.410686 7.43557 0.415463 7.42352 0.419863C7.41893 0.423215 7.41426 0.423551 7.41103 0.42531C5.39947 1.15044 4.2598 3.8293 1.85446 8.06209C1.64089 8.82446 1.46808 9.63251 1.34717 10.4799H1.47596C1.83871 10.4799 1.94109 10.4765 2.35851 10.4765H2.37982H2.4419H2.46321H2.46925H2.49056H2.5026H2.51094H2.52762H2.57951H2.6314H2.67494H2.68651H2.76295C2.79167 10.4732 2.82132 10.4732 2.85144 10.4711H2.857C2.86952 10.4711 2.88201 10.4677 2.89406 10.4677H2.90284C2.91626 10.4677 2.93156 10.4644 2.94639 10.463C4.82684 6.77469 6.86527 3.83986 8.89582 2.07483C9.11912 1.61284 9.33918 1.26 9.58009 0.993064C9.43925 0.775612 9.28498 0.593694 9.11264 0.461666C9.11264 0.461666 9.10796 0.461666 9.10759 0.458313C9.09784 0.454626 9.08862 0.450184 9.07887 0.445793C9.06912 0.441016 9.06079 0.437328 9.05063 0.432593C9.04182 0.429241 9.03162 0.424799 9.02283 0.420408C9.01079 0.417056 9.00104 0.412279 8.99041 0.407879C8.9816 0.404526 8.97372 0.40109 8.9649 0.39773C8.94681 0.391277 8.92877 0.38453 8.91163 0.377424C8.90374 0.374071 8.89636 0.372311 8.88891 0.36963C8.87642 0.365523 8.86204 0.360151 8.84907 0.355072C8.84255 0.35172 8.83516 0.35105 8.82776 0.348619C8.80878 0.342837 8.79023 0.336778 8.77262 0.331355H8.76803C8.74671 0.324902 8.72587 0.320192 8.7041 0.31477C8.69905 0.311418 8.69483 0.311418 8.68975 0.310747C8.67074 0.30597 8.65406 0.301269 8.63601 0.296869C8.63142 0.296869 8.6272 0.293517 8.62352 0.293517C8.57997 0.283024 8.53503 0.274568 8.48963 0.266783C8.48495 0.266783 8.48037 0.26343 8.47574 0.26343C8.45628 0.260078 8.43729 0.256977 8.41783 0.254966C8.41315 0.251614 8.4104 0.251614 8.40627 0.251614C8.3831 0.248261 8.3604 0.245831 8.3377 0.243484H8.32566C8.30713 0.240132 8.29 0.239797 8.27284 0.238037C8.24364 0.241389 8.21586 0.242814 8.18852 0.245161" fill="url(#paint11_linear_1367_481)"/>
<path d="M21.8752 2.75153C21.4124 4.10534 21.0376 5.22223 20.7114 6.14114C21.9813 4.54533 23.2321 2.53786 24.4232 0.221191C23.0338 0.619681 22.2926 1.53184 21.8752 2.75153Z" fill="url(#paint12_linear_1367_481)"/>
<path d="M20.7518 9.88107C20.6869 9.91119 20.622 9.93986 20.5581 9.96568C23.0283 8.95963 25.9748 4.96927 27.3855 0.0012207H27.0996C23.8585 5.28826 22.8161 8.82763 20.7518 9.88107Z" fill="url(#paint13_linear_1367_481)"/>
<path d="M19.1388 9.43679C19.6762 8.83774 20.114 7.81943 20.7116 6.14111C20.0222 7.00586 19.3283 7.7492 18.6338 8.35544C18.6338 8.35879 18.6338 8.35879 18.6301 8.36089C18.7816 8.77549 18.9479 9.14143 19.1374 9.43672" fill="#079AE1"/>
<path d="M19.1388 9.43677C18.9558 9.64069 18.7621 9.79597 18.5467 9.91104C18.4994 9.93609 18.4517 9.95969 18.4031 9.98127C18.6306 10.0934 18.8789 10.1683 19.1568 10.1983C19.1975 10.202 19.2379 10.2054 19.2801 10.2081H19.2875C19.3064 10.2081 19.3264 10.2081 19.3468 10.2115H19.355H19.4157H19.481H19.5014H19.5477C19.5552 10.2115 19.5629 10.2115 19.5703 10.2081C19.5848 10.2081 19.6 10.2081 19.6148 10.2048H19.62H19.6367C19.6519 10.2048 19.6686 10.2014 19.6849 10.2H19.6886C19.6934 10.2 19.6986 10.1966 19.7034 10.1966C19.7204 10.1933 19.7382 10.1918 19.7548 10.1895H19.77C19.7889 10.1861 19.8085 10.1841 19.8279 10.1807H19.8316H19.8372C19.8761 10.1739 19.9141 10.1672 19.9525 10.1584C19.6338 10.0517 19.3669 9.80044 19.1372 9.44253" fill="#1969BC"/>
<path d="M14.5845 10.2115C14.8157 10.2115 15.0492 10.1909 15.2836 10.1497C15.5004 10.1138 15.7177 10.0588 15.9354 9.98938C16.1166 10.0702 16.3065 10.1303 16.5076 10.1675C16.6637 10.1966 16.8258 10.2115 16.9959 10.2115H14.5845Z" fill="#1E5CB3"/>
<path d="M16.996 10.2115C17.5668 10.2115 18.0189 10.1497 18.403 9.98132C18.6305 10.0934 18.8788 10.1683 19.1567 10.1984C19.1975 10.2021 19.2378 10.2055 19.28 10.2082H19.2874C19.3063 10.2082 19.3263 10.2082 19.3467 10.2115H19.3553H19.416H16.9944L16.996 10.2115Z" fill="#1E5CB3"/>
<path d="M19.4175 10.2115H19.4833H19.5037H19.5495C19.5573 10.2115 19.5647 10.2115 19.5721 10.2082C19.5866 10.2082 19.6018 10.2082 19.6171 10.2048H19.622H19.639C19.6542 10.2048 19.6709 10.2015 19.6867 10.2001H19.6908C19.6956 10.2001 19.7004 10.1968 19.7052 10.1968C19.7223 10.1934 19.7401 10.1921 19.7567 10.1897C19.7622 10.1897 19.7667 10.1897 19.7726 10.1863C19.7915 10.183 19.8111 10.1812 19.8305 10.1779H19.8342H19.8398C19.8787 10.1711 19.9167 10.1643 19.9551 10.1555C20.0668 10.1932 20.1831 10.2122 20.3086 10.2122L19.4182 10.2156L19.4175 10.2115Z" fill="#1D60B5"/>
<path d="M18.6315 8.36102V8.35767C18.3772 8.57976 18.1233 8.78328 17.8699 8.96729C17.7374 9.06334 17.6053 9.15429 17.4719 9.24019C17.5836 9.36202 17.6971 9.47625 17.8166 9.58033C17.9982 9.74106 18.1923 9.87648 18.404 9.98096C18.4522 9.95929 18.5004 9.93567 18.5472 9.91073C18.7631 9.79565 18.9567 9.6404 19.1397 9.43649C18.9502 9.14119 18.7839 8.77521 18.6324 8.36062" fill="#175FAB"/>
<path d="M26.1943 0.0012207H24.9926H24.8731H24.76H24.7556C24.6778 0.00457295 24.6023 0.00700333 24.5277 0.011378C24.4925 0.0803589 24.4563 0.149331 24.4216 0.218715C23.2305 2.53539 21.9796 4.54285 20.7098 6.13866C20.1126 7.81695 19.6744 8.83528 19.137 9.43435C19.3668 9.79226 19.6341 10.044 19.9519 10.1506C19.9611 10.1472 19.9685 10.1472 19.9769 10.1455H19.982C19.9876 10.1455 19.9936 10.1421 19.9996 10.1421C20.0126 10.1388 20.0265 10.1367 20.0395 10.133C20.0478 10.1296 20.0547 10.1293 20.0631 10.1269C20.0752 10.1235 20.0877 10.1211 20.0988 10.1184C20.1062 10.115 20.1136 10.114 20.121 10.1126C20.1395 10.1072 20.1562 10.1031 20.1738 10.0981C20.1822 10.0947 20.191 10.0919 20.2003 10.0899C20.2104 10.0866 20.2206 10.0841 20.2299 10.0801C20.2406 10.0768 20.2512 10.075 20.2605 10.0713C20.2688 10.068 20.2776 10.0659 20.2855 10.0629C20.3063 10.0561 20.3267 10.0503 20.3476 10.0429C20.3532 10.0429 20.3587 10.0382 20.3647 10.0371C20.3772 10.0323 20.3902 10.0286 20.4027 10.0236C20.4073 10.0202 20.4129 10.0199 20.4189 10.0181C20.4625 10.0015 20.5074 9.9846 20.5523 9.96609H20.557C20.621 9.94037 20.6858 9.9115 20.7502 9.88148C22.8151 8.82804 23.8574 5.28867 27.0985 0.00163135H26.1933L26.1943 0.0012207Z" fill="url(#paint14_linear_1367_481)"/>
<path d="M8.27051 0.233492C8.27565 0.233492 8.28025 0.233492 8.28533 0.236844C8.29782 0.236844 8.31035 0.236844 8.32285 0.240531H8.33538C8.35807 0.243884 8.38078 0.245644 8.40394 0.248661C8.40817 0.248661 8.41184 0.248661 8.41551 0.252013C8.43449 0.255365 8.45396 0.258131 8.47342 0.260812C8.47764 0.260812 8.48317 0.264165 8.4878 0.264165C8.53228 0.272294 8.57768 0.28075 8.62122 0.291242C8.62535 0.291242 8.62958 0.294595 8.63327 0.294595C8.6518 0.298617 8.66848 0.30373 8.68701 0.308465C8.69261 0.308465 8.69672 0.311817 8.70184 0.312571C8.72362 0.317683 8.744 0.322728 8.76531 0.329156C8.76622 0.329156 8.76751 0.329156 8.76999 0.332509C8.78803 0.337537 8.80657 0.344015 8.82557 0.349764C8.83301 0.353117 8.83992 0.354541 8.84688 0.356217C8.85986 0.36133 8.87424 0.366366 8.88673 0.37111C8.89416 0.37111 8.90155 0.375803 8.90941 0.378233C8.92653 0.385357 8.94462 0.391768 8.96222 0.39854C8.97149 0.401892 8.97935 0.405663 8.98817 0.408688C8.99836 0.413465 9.009 0.417832 9.02012 0.421218C9.02938 0.42524 9.03958 0.429674 9.04836 0.433395C9.05811 0.438172 9.06734 0.441859 9.07664 0.446594C9.30642 0.549827 9.51814 0.687336 9.71411 0.854026C9.78638 0.784643 9.86189 0.722434 9.94019 0.666594C9.51165 0.389061 9.02614 0.230835 8.46604 0.230835C8.40117 0.230835 8.33632 0.234187 8.27054 0.238629" fill="#7DCBEC"/>
<path d="M9.71436 0.849054C9.83435 0.950995 9.94924 1.06482 10.0581 1.18751C10.1633 1.12067 10.2675 1.05636 10.3722 0.996284C10.2351 0.871053 10.0905 0.758518 9.93997 0.661621C9.86168 0.717059 9.78663 0.77967 9.71436 0.849054Z" fill="#5EC5ED"/>
<path d="M8.27048 0.233356C8.33627 0.22828 8.40113 0.226164 8.46599 0.226164C9.02609 0.226164 9.51161 0.384391 9.94014 0.661499C10.3923 0.335738 10.939 0.221934 11.6983 0.221934H8.02124C8.10602 0.221934 8.18895 0.226587 8.27048 0.233356Z" fill="url(#paint15_linear_1367_481)"/>
<path d="M11.6983 0.222005C10.939 0.222005 10.3923 0.33581 9.94019 0.661571C10.0903 0.758453 10.2348 0.870988 10.372 0.996216C11.0016 0.630687 11.6251 0.388693 12.2399 0.282927C12.4743 0.242735 12.7083 0.222005 12.939 0.222005H11.6983Z" fill="url(#paint16_linear_1367_481)"/>
<path d="M20.7114 6.14192C21.038 5.22217 21.4118 4.10572 21.8756 2.75147C22.2935 1.53135 23.0333 0.619218 24.4227 0.22113C24.4594 0.152996 24.4941 0.0827664 24.5297 0.0137939C22.2648 0.137768 21.2062 1.18991 20.6734 2.74809C19.7417 5.4684 19.1775 7.23174 18.634 8.3554C19.328 7.74957 20.022 7.00582 20.7114 6.14192Z" fill="url(#paint17_linear_1367_481)"/>
<path d="M24.0342 9.48685H23.7776V10.2154H23.6729V9.48685H23.4153V9.40015H24.0342V9.48685Z" fill="black"/>
<path d="M25.0853 10.2152H24.9811V9.6678C24.9811 9.62465 24.9847 9.57179 24.9896 9.50958C24.9788 9.54681 24.9699 9.57263 24.9618 9.58912L24.6579 10.2152H24.6069L24.3021 9.59378C24.2932 9.57652 24.2843 9.5485 24.2747 9.50958H24.271C24.2747 9.54241 24.2758 9.59548 24.2758 9.66909V10.2152H24.1758V9.40002H24.3138L24.5876 9.96903C24.6084 10.0118 24.6213 10.0448 24.6279 10.0668H24.632C24.6501 10.0219 24.665 9.98849 24.6751 9.96649L24.9544 9.40002H25.086V10.2152H25.0853Z" fill="black"/>
<defs>
<linearGradient id="paint0_linear_1367_481" x1="12.7003" y1="0.155412" x2="12.7003" y2="12.7041" gradientUnits="userSpaceOnUse">
<stop stop-color="#0994DC"/>
<stop offset="0.350006" stop-color="#66CEF5"/>
<stop offset="0.846161" stop-color="#127BCA"/>
<stop offset="1" stop-color="#127BCA"/>
</linearGradient>
<linearGradient id="paint1_linear_1367_481" x1="13.2241" y1="-0.162337" x2="13.2241" y2="12.7062" gradientUnits="userSpaceOnUse">
<stop stop-color="#0E76BC"/>
<stop offset="0.360001" stop-color="#36AEE8"/>
<stop offset="0.846161" stop-color="#00ADEF"/>
<stop offset="1" stop-color="#00ADEF"/>
</linearGradient>
<linearGradient id="paint2_linear_1367_481" x1="16.0563" y1="9.92229" x2="16.0563" y2="-0.316989" gradientUnits="userSpaceOnUse">
<stop stop-color="#1C63B7"/>
<stop offset="0.5" stop-color="#33BDF2"/>
<stop offset="1" stop-color="#33BDF2" stop-opacity="0.419608"/>
</linearGradient>
<linearGradient id="paint3_linear_1367_481" x1="15.3193" y1="-1.46613" x2="15.3193" y2="11.8947" gradientUnits="userSpaceOnUse">
<stop stop-color="#166AB8"/>
<stop offset="0.399994" stop-color="#36AEE8"/>
<stop offset="0.846161" stop-color="#0798DD"/>
<stop offset="1" stop-color="#0798DD"/>
</linearGradient>
<linearGradient id="paint4_linear_1367_481" x1="14.166" y1="-1.39591" x2="14.166" y2="12.8116" gradientUnits="userSpaceOnUse">
<stop stop-color="#124379"/>
<stop offset="0.389999" stop-color="#1487CB"/>
<stop offset="0.780228" stop-color="#165197"/>
<stop offset="1" stop-color="#165197"/>
</linearGradient>
<linearGradient id="paint5_linear_1367_481" x1="7.91749" y1="2.96539" x2="10.1171" y2="2.96539" gradientUnits="userSpaceOnUse">
<stop stop-color="#33BDF2" stop-opacity="0.698039"/>
<stop offset="1" stop-color="#1DACD8"/>
</linearGradient>
<linearGradient id="paint6_linear_1367_481" x1="24.4374" y1="9.66572" x2="24.4374" y2="-0.308753" gradientUnits="userSpaceOnUse">
<stop stop-color="#136AB4"/>
<stop offset="0.6" stop-color="#59CAF5" stop-opacity="0.54902"/>
<stop offset="1" stop-color="#59CAF5" stop-opacity="0.235294"/>
</linearGradient>
<linearGradient id="paint7_linear_1367_481" x1="0.111754" y1="5.34885" x2="8.27056" y2="5.34885" gradientUnits="userSpaceOnUse">
<stop stop-color="#05A1E6" stop-opacity="0.247059"/>
<stop offset="1" stop-color="#05A1E6"/>
</linearGradient>
<linearGradient id="paint8_linear_1367_481" x1="4.63049" y1="9.9169" x2="4.63049" y2="-0.29615" gradientUnits="userSpaceOnUse">
<stop stop-color="#318ED5"/>
<stop offset="1" stop-color="#38A7E4"/>
</linearGradient>
<linearGradient id="paint9_linear_1367_481" x1="5.33441" y1="9.95287" x2="5.33441" y2="0.0252248" gradientUnits="userSpaceOnUse">
<stop stop-color="#05A1E6"/>
<stop offset="1" stop-color="#05A1E6" stop-opacity="0.54902"/>
</linearGradient>
<linearGradient id="paint10_linear_1367_481" x1="5.91881" y1="10.4593" x2="5.91881" y2="2.07031" gradientUnits="userSpaceOnUse">
<stop stop-color="#1959A6"/>
<stop offset="0.5" stop-color="#05A1E6"/>
<stop offset="0.917587" stop-color="#7EC5EA"/>
<stop offset="1" stop-color="#7EC5EA"/>
</linearGradient>
<linearGradient id="paint11_linear_1367_481" x1="6.27079" y1="9.92354" x2="3.63158" y2="1.09129" gradientUnits="userSpaceOnUse">
<stop stop-color="#165096"/>
<stop offset="1" stop-color="#0D82CA"/>
</linearGradient>
<linearGradient id="paint12_linear_1367_481" x1="22.5671" y1="4.77944" x2="22.5671" y2="0.0258962" gradientUnits="userSpaceOnUse">
<stop stop-color="#05A1E6"/>
<stop offset="0.873627" stop-color="#0495D6"/>
<stop offset="1" stop-color="#0495D6"/>
</linearGradient>
<linearGradient id="paint13_linear_1367_481" x1="25.0139" y1="-0.413444" x2="20.8515" y2="9.70653" gradientUnits="userSpaceOnUse">
<stop stop-color="#38A7E4" stop-opacity="0.329412"/>
<stop offset="0.961533" stop-color="#0E88D3"/>
<stop offset="1" stop-color="#0E88D3"/>
</linearGradient>
<linearGradient id="paint14_linear_1367_481" x1="23.1191" y1="-0.0287987" x2="23.1191" y2="10.3416" gradientUnits="userSpaceOnUse">
<stop stop-color="#168CD4"/>
<stop offset="0.5" stop-color="#1C87CC"/>
<stop offset="1" stop-color="#154B8D"/>
</linearGradient>
<linearGradient id="paint15_linear_1367_481" x1="8.63434" y1="-0.242094" x2="8.67539" y2="0.845835" gradientUnits="userSpaceOnUse">
<stop stop-color="#97D6EE"/>
<stop offset="0.703293" stop-color="#55C1EA"/>
<stop offset="1" stop-color="#55C1EA"/>
</linearGradient>
<linearGradient id="paint16_linear_1367_481" x1="10.1468" y1="0.947438" x2="10.3332" y2="-0.210449" gradientUnits="userSpaceOnUse">
<stop stop-color="#7ACCEC"/>
<stop offset="1" stop-color="#3FB7ED"/>
</linearGradient>
<linearGradient id="paint17_linear_1367_481" x1="21.5817" y1="0.544555" x2="21.5817" y2="10.6878" gradientUnits="userSpaceOnUse">
<stop stop-color="#1DA7E7"/>
<stop offset="1" stop-color="#37ABE7" stop-opacity="0"/>
</linearGradient>
</defs>
</svg>
