<svg width="18" height="22" viewBox="0 0 18 22" fill="none" xmlns="http://www.w3.org/2000/svg">
<path d="M8.19584 0H12V16.4388C10.0514 16.7864 8.61689 16.9231 7.06487 16.9231C2.41861 16.9185 0 14.9614 0 11.2028C0 7.58132 2.56548 5.23102 6.541 5.23102C7.1579 5.23102 7.62791 5.27674 8.19584 5.41392V0ZM8.32916 8.37635C7.88363 8.23917 7.51643 8.19345 7.04642 8.19345C5.12231 8.19345 4.01092 9.30001 4.01092 11.2392C4.01092 13.1272 5.07335 14.1698 7.02194 14.1698C7.44299 14.1698 7.78571 14.1474 8.32916 14.0788V8.37635Z" fill="#2BA977"/>
<path d="M17.9999 5.92285V14.0745C17.9999 16.8819 17.7691 18.2319 17.0915 19.3958C16.4591 20.5148 15.6259 21.2204 13.9044 21.9998L10.2856 20.4464C12.0072 19.7178 12.8403 19.0738 13.3724 18.091C13.9295 17.0861 14.1051 15.9222 14.1051 12.8608V5.92285H17.9999Z" fill="#2BA977"/>
<path d="M13.7144 0H17.1429V3.38462H13.7144V0Z" fill="#2BA977"/>
</svg>
