<svg width="24" height="21" viewBox="0 0 24 21" fill="none" xmlns="http://www.w3.org/2000/svg">
<path d="M7.17193 18.6995C6.25764 17.9941 5.28236 17.3179 4.61591 16.3656C3.21358 14.6863 2.13386 12.742 1.39571 10.6988C0.949553 9.3702 0.796752 7.9458 0.221595 6.66855C-0.380076 5.74088 0.3247 4.72679 1.36067 4.43191C1.82191 4.34508 2.63291 3.91835 1.65395 4.22335C0.776285 4.85496 0.691346 3.65003 1.59133 3.57373C2.20552 3.49366 2.43162 3.00048 2.22158 2.55651C1.56228 2.1348 3.8203 1.67133 2.68415 1.04207C1.5006 -0.210411 4.3397 -0.451518 3.63925 0.970922C3.47158 2.06472 5.62309 0.77045 5.12389 2.03355C5.63127 2.64013 7.02391 2.17161 6.98936 3.02259C7.72848 3.07243 7.98215 3.68242 8.676 3.72925C9.39509 4.04778 10.6987 4.29878 10.9434 5.09361C10.23 5.64762 8.57793 3.94925 8.49856 5.4828C8.71408 7.74822 8.65917 10.0819 9.5042 12.2393C9.90389 13.5455 10.8728 14.5738 11.7479 15.5912C12.5852 16.5877 13.7193 17.2891 14.8752 17.8797C15.8892 18.3488 16.9824 18.6599 18.0875 18.8551C18.5357 18.5188 19.3271 17.2686 20.0263 17.7958C20.0595 18.3882 18.6385 19.0341 19.9595 18.9686C20.7351 18.7391 21.2731 19.557 21.9119 18.8192C22.5004 19.503 24.3578 18.3824 23.9391 19.7799C23.3729 20.1382 22.5472 19.9217 21.98 20.4146C21.045 19.9565 20.3006 20.8245 19.2654 20.7147C18.1158 20.9167 16.9463 20.9982 15.7808 21C13.8687 20.8518 11.9162 20.7894 10.0972 20.1364C9.0725 19.8443 8.07252 19.272 7.17193 18.6995ZM8.78676 19.3858C9.78734 19.8102 10.7657 20.2575 11.8623 20.3924C13.602 20.6298 15.3986 20.9948 17.1446 20.6618C16.3544 20.3118 15.5374 20.7982 14.7502 20.4116C13.806 20.6108 12.7928 20.3608 11.833 20.2377C10.7414 19.7608 9.56349 19.4329 8.54133 18.8138C7.26409 18.3563 9.2019 19.4007 9.54682 19.4853C10.3453 19.9298 8.6688 19.2574 8.43245 19.0726C7.76371 18.7046 7.67849 18.7815 8.36623 19.1552C8.50475 19.2347 8.64164 19.318 8.78676 19.3858ZM6.88283 18.066C7.85242 18.4183 6.87855 17.3972 6.43425 17.4565C6.2374 17.1216 5.68217 16.91 6.07383 16.73C5.3693 16.9699 5.33581 15.8177 5.00464 15.9823C4.25932 15.7515 4.71456 14.9337 3.82674 14.4316C3.7457 13.9024 2.94466 13.4434 2.68916 12.6453C2.57632 12.2366 1.78416 11.0631 2.27078 12.1552C2.68512 13.2066 3.41412 14.107 4.02078 15.0063C4.49186 15.8626 5.04809 16.7575 5.90601 17.2917C6.19521 17.5638 6.47443 17.9807 6.88283 18.066ZM4.08963 15.058C4.12348 14.9144 4.26696 15.3688 4.08963 15.058V15.058ZM8.044 18.4883C8.25871 18.394 7.73526 18.3695 8.044 18.4883V18.4883ZM8.57034 18.6766C8.51583 18.4166 8.33007 18.822 8.57034 18.6766V18.6766ZM9.22917 18.9462C9.54283 18.6532 8.74579 18.7615 9.22917 18.9462V18.9462ZM10.3583 19.5635C10.5489 19.2871 9.74834 19.4592 10.3583 19.5635V19.5635ZM8.19001 18.0809C8.67719 17.7717 7.56078 18.0766 8.19001 18.0809V18.0809ZM8.68425 18.3226C8.67044 18.1592 8.50811 18.3958 8.68425 18.3226V18.3226ZM11.1544 19.8348C11.5515 20.0806 13.4733 20.3736 12.2699 19.9356C12.0685 19.9773 10.0385 19.3724 11.1544 19.8348ZM7.23295 16.8391C7.19434 16.6752 6.61658 16.6582 7.23295 16.8391V16.8391ZM8.3829 17.4965C8.68217 17.2918 7.76173 17.3386 8.3829 17.4965V17.4965ZM9.35017 18.0782C9.77963 17.9194 8.65348 17.9187 9.35017 18.0782V18.0782ZM6.76502 16.3393C7.23098 16.6898 8.64421 16.3842 7.47862 16.13C6.94811 15.8527 5.75245 15.6628 6.56743 16.2973L6.76502 16.3393L6.76502 16.3393ZM10.0053 18.2791C10.1994 17.9547 9.19137 18.0939 10.0053 18.2791V18.2791ZM9.02068 17.5115C10.1601 17.8277 8.06256 16.8048 8.73956 17.3952L8.88961 17.4618L9.02068 17.5116L9.02068 17.5115ZM10.9948 18.6307C12.0738 18.6408 10.0201 18.4848 10.9948 18.6307V18.6307ZM6.34983 15.7269C6.30769 15.5298 6.08355 15.7434 6.34983 15.7269V15.7269ZM12.8201 19.635C12.8489 19.2789 12.4679 19.8999 12.8201 19.635V19.635ZM8.1913 16.833C8.12604 16.6455 7.85414 16.8254 8.1913 16.833V16.833ZM6.45217 15.6032C7.07166 15.5667 5.60404 15.3355 6.45217 15.6032V15.6032ZM4.39193 14.297C4.31483 14.0057 3.71783 13.7734 4.39193 14.297V14.297ZM9.80054 17.6638C9.68708 17.5368 9.74717 17.6915 9.80054 17.6638V17.6638ZM13.167 19.6901C13.1562 19.4961 12.9837 19.7635 13.167 19.6901V19.6901ZM9.50261 17.362C9.5632 17.1121 8.97437 17.2863 9.50261 17.362V17.362ZM6.99461 15.8029C7.45548 15.7545 6.25633 15.4973 6.99461 15.8029V15.8029ZM11.2371 18.3887C11.9553 18.1096 10.5371 18.2524 11.2371 18.3887V18.3887ZM9.03035 16.9194C9.85807 17.024 8.04548 16.3671 8.84874 16.8606L9.03034 16.9194L9.03035 16.9194ZM11.9071 18.6543C12.6798 18.2012 12.4251 19.7155 13.2181 18.7822C14.0004 18.222 12.5426 19.4749 13.5067 18.8821C14.2039 18.4247 15.2338 19.099 15.8844 19.319C16.3523 19.2964 16.8071 19.7158 17.2868 19.4607C18.2101 19.2167 15.4812 19.0989 16.1966 18.6661C15.3517 18.9073 14.7275 18.3785 14.3118 17.8478C13.3641 17.6331 12.2684 17.1579 11.7955 16.3353C11.6026 16.0264 12.074 16.3788 11.629 15.8739C11.0579 15.3757 10.7728 14.8102 10.3895 14.2046C9.93151 13.965 9.87816 13.2597 9.83187 14.181C9.83549 13.5995 9.27895 13.2082 9.14311 13.3709C9.14068 12.8109 9.73872 13.0916 9.32007 12.6773C9.22996 12.0969 8.93327 11.4921 8.84409 10.8368C8.70553 10.5209 8.82458 9.84441 8.37119 10.5595C8.20601 11.3152 8.31637 9.63079 8.57324 10.1862C8.91039 9.61945 8.4522 9.68611 8.43343 9.76482C8.65305 9.2866 8.57243 8.60827 8.37612 8.86705C8.49315 8.36019 8.561 7.00168 8.20096 7.24242C8.41921 6.7124 8.61486 4.81716 7.66743 5.53975C7.28345 5.54504 6.61852 5.67647 6.3042 5.82979C7.28971 6.36263 6.20508 6.02222 5.80391 5.93753C5.75164 6.43057 5.35429 6.21733 4.85788 6.22217C5.65076 6.31839 4.47178 7.01757 4.01693 6.74597C3.4262 7.0229 4.52674 7.71416 4.02878 7.92789C4.08998 8.25011 3.12379 7.81152 3.19967 8.55565C2.62619 8.31902 3.1207 9.43836 3.40761 9.05979C4.38299 9.31872 4.09426 9.90905 4.1191 10.4698C3.96017 10.7966 3.33447 9.70176 3.97974 9.75246C3.47067 8.94133 3.41662 9.45928 2.9936 9.83609C2.89519 9.86346 4.07263 10.3722 3.33373 10.6238C3.98381 10.7222 4.0023 11.2802 4.13464 11.6333C4.52538 12.0325 4.44541 11.1925 4.91294 11.6722C4.61708 11.2449 3.34584 10.4681 4.36936 10.7172C4.36389 10.2871 4.18425 9.94021 4.49783 9.94863C4.80836 9.39702 4.1726 11.3087 4.87256 10.6076C5.06632 10.5246 5.11431 10.0553 5.46258 10.6519C5.96844 11.14 5.6453 11.4937 4.93174 11.0468C5.0594 11.4716 5.8863 11.6234 5.73091 12.2877C5.89564 12.8719 6.12612 12.6568 6.32702 12.623C6.48461 13.1906 6.5741 12.7732 6.58158 12.5031C7.30316 12.6546 7.13414 13.073 7.35992 13.3653C7.85715 13.5854 6.64822 11.8731 7.50187 12.8504C8.40001 13.6457 7.8387 13.9778 7.03271 13.8503C7.54284 13.8099 7.70735 14.5268 8.34542 14.5016C8.92729 14.7731 9.32124 15.8159 8.31829 15.3818C7.97042 15.0742 6.73941 14.6947 7.74486 15.2798C8.6735 15.7016 9.41106 15.954 10.3067 16.4835C10.9477 16.9323 11.2246 17.4464 11.4675 17.5481C10.9288 17.8005 9.84406 17.3466 10.6496 17.2075C10.1472 17.1177 9.58206 16.8685 10.0633 17.4825C10.4725 17.8176 11.513 17.7821 11.6996 17.8201C11.5414 18.1618 11.2701 18.189 11.706 18.2155C11.2197 18.4697 11.862 18.5091 11.9071 18.6543H11.9071ZM10.9125 15.8995C10.6166 15.596 10.5401 15.0275 10.86 15.5222C11.024 15.5868 11.3854 16.4512 10.9125 15.8995H10.9125ZM14.1514 17.9175C14.3359 17.9058 14.1567 18.0551 14.1514 17.9175V17.9175ZM10.4453 15.1553C10.434 14.6964 10.5523 15.5092 10.4453 15.1553V15.1553ZM10.1234 14.7305C9.75122 14.0251 10.5926 14.9302 10.1234 14.7305V14.7305ZM6.22249 12.0896C6.44114 12.0324 6.33006 12.4564 6.22249 12.0896V12.0896ZM9.32712 13.7402C9.4614 13.2456 9.48493 14.1552 9.32712 13.7402V13.7402ZM7.13379 12.2443C6.97917 11.9714 7.45721 12.5003 7.13379 12.2443V12.2443ZM9.01613 12.8362C8.66353 12.0613 9.26577 12.4129 9.09414 12.9632L9.01613 12.8362ZM5.77002 10.7128C5.61237 10.4585 5.3516 9.71264 5.43555 9.48494C5.5115 9.85578 6.23957 11.0809 5.79269 9.99242C5.29885 9.08002 6.383 10.2886 6.49452 10.5162C6.54645 10.7425 6.18984 10.4543 6.43147 10.9851C5.99081 10.3808 6.17134 11.319 5.77002 10.7128ZM4.76679 10.0347C4.80808 9.44362 4.99645 10.44 4.76679 10.0347V10.0347ZM5.21805 10.1871C5.43339 9.74093 5.58318 10.809 5.21805 10.1871V10.1871ZM4.13252 9.36341C3.75902 8.99936 3.48873 8.66377 4.15 9.13746C4.4048 9.14722 3.5839 8.37432 4.21136 8.89202C4.87117 9.01003 4.53718 9.95315 4.13252 9.36341ZM4.70274 9.34878C4.91964 9.13795 4.81789 9.55632 4.70274 9.34878V9.34878ZM5.0536 9.45911C4.72476 8.85453 5.45269 9.71257 5.0536 9.45911V9.45911ZM4.35611 8.80531C3.2703 7.85751 5.7205 9.30092 4.5335 8.98103L4.3561 8.80532L4.35611 8.80531ZM7.46712 10.5783C6.99725 10.3019 7.3426 8.63287 7.50284 9.7744C7.95963 9.62946 7.47762 10.3639 7.81832 10.3571C7.76463 10.8205 7.61221 10.9871 7.46712 10.5783ZM8.61781 11.2453C8.66389 10.7423 8.7148 11.5892 8.61781 11.2453V11.2453ZM8.41794 11.0516C8.46967 10.8368 8.42329 11.3047 8.41794 11.0516V11.0516ZM4.56911 8.49386C3.87155 7.54986 6.5964 9.44876 5.01589 8.7333C4.85073 8.69093 4.65202 8.6758 4.56911 8.49386ZM6.78495 9.64621C6.71894 8.85134 6.93237 9.77797 6.78493 9.64621L6.78495 9.64621ZM8.46729 10.7048C8.59749 10.252 8.477 11.0043 8.46729 10.7048V10.7048ZM4.67597 8.13358C5.09055 8.04661 6.39408 8.84776 5.19703 8.36243C5.06402 8.21801 4.78048 8.28362 4.67597 8.13358ZM8.23615 9.87403C8.28047 9.06126 8.48366 9.38855 8.23769 9.99038L8.23617 9.87404L8.23616 9.87403H8.23615ZM4.98458 7.85076C5.1535 7.60772 4.53616 6.75192 5.07357 7.54378C5.30578 7.72476 5.7459 7.84697 5.35731 7.9231C5.96846 8.45192 5.20825 8.0664 4.98458 7.85076ZM8.06006 9.62016C8.17677 8.69429 8.16298 10.1626 8.06006 9.62016V9.62016ZM4.63178 6.99561C4.76081 6.94152 4.69992 7.16424 4.63178 6.99561V6.99561ZM5.434 7.46395C5.64045 7.03903 5.81486 7.93785 5.434 7.46395V7.46395ZM7.69685 8.69865C7.69467 8.53546 7.73954 8.93604 7.69685 8.69865V8.69865ZM7.56577 8.41401C7.2517 7.65399 7.85792 8.8164 7.56577 8.41401V8.41401ZM7.37293 7.91571C7.32021 7.60166 7.55211 8.31026 7.37292 7.91571L7.37293 7.91571ZM7.68678 7.4153C7.47125 7.04277 7.95894 5.77362 8.01336 6.56074C7.78588 7.17404 7.94774 7.51713 8.10643 6.69452C8.39948 6.04712 8.04312 7.97205 7.68677 7.41531L7.68678 7.4153ZM8.0093 5.52788C8.10325 5.41471 8.03015 5.66421 8.0093 5.52788V5.52788ZM7.47069 15.938C7.34293 15.8286 7.48673 16.0076 7.47069 15.938V15.938ZM8.58026 16.4885C9.19747 16.6439 9.19431 16.3944 8.63649 16.3202C8.33645 16.0465 7.38972 15.7561 8.23709 16.2863C8.29321 16.4257 8.47054 16.4224 8.58026 16.4885ZM6.38889 15.0609C6.72891 15.3096 7.66965 15.7658 6.87329 15.1556C7.14179 14.8496 6.35937 14.6867 6.61891 14.482C5.95875 14.0858 6.09814 14.1211 6.56064 14.1335C5.76725 13.7857 6.67517 13.8117 6.63242 13.6335C6.32649 13.5742 5.11288 13.1044 5.82684 13.6721C5.10105 13.3091 5.65388 13.8073 5.43451 13.7546C4.69234 13.5561 6.09546 14.309 5.31664 14.1221C5.74242 14.4531 6.4627 14.9699 5.49665 14.4724C5.36937 14.6521 6.18796 14.9245 6.38889 15.0609ZM7.54937 15.7148C8.9604 16.1608 6.85759 15.17 7.54937 15.7148V15.7148ZM13.4899 19.2448C13.5081 18.9702 13.2971 19.479 13.4899 19.2448V19.2448ZM14.1005 19.4968C14.4261 19.1874 14.1138 19.9897 14.64 19.4211C14.6456 19.014 14.6238 18.7736 14.0354 19.2681C13.8731 19.3563 13.8007 19.7314 14.1005 19.4968ZM4.40826 13.5264C4.30827 13.1409 3.70744 13.1429 4.40826 13.5264V13.5264ZM5.06024 13.9455C4.81813 13.5517 4.19639 13.589 5.06024 13.9455V13.9455ZM8.76941 16.1396C9.13154 16.4551 10.4326 16.3711 9.20925 16.1784C9.02805 15.9156 8.05869 15.9788 8.76941 16.1396ZM13.8683 19.2283C14.4256 18.7695 13.3283 19.4329 13.8683 19.2283V19.2283ZM15.0275 20.0096C15.0309 19.8624 14.7872 20.0741 15.0275 20.0096V20.0096ZM15.0292 19.8035C15.6465 19.1621 14.4312 19.8414 15.0292 19.8035H15.0292ZM2.80466 12.2096C2.27861 11.4734 2.47766 11.1425 1.97036 10.5413C1.87433 10.0817 1.10009 9.03855 1.56991 10.1436C2.00024 10.79 2.12811 11.7906 2.80466 12.2096ZM14.8357 19.5996C15.9712 18.8797 14.3695 19.286 14.8357 19.5996V19.5996ZM15.7025 19.9327C16.2711 19.4538 15.3428 19.8325 15.7025 19.9327V19.9327ZM4.215 12.7126C4.37774 12.4752 3.7947 12.6823 4.215 12.7126V12.7126ZM15.5215 19.7053C16.072 19.3571 15.3946 19.4105 15.4217 19.7373L15.5215 19.7053H15.5215ZM8.04951 15.0858C8.03058 14.8507 7.75877 15.1058 8.04951 15.0858V15.0858ZM8.51128 15.3464C8.36452 15.0554 8.28564 15.3921 8.51128 15.3464V15.3464ZM16.4049 19.9406C17.1103 19.4415 15.9773 19.845 16.2569 20.0351L16.4049 19.9406ZM16.1348 19.8125C16.7094 19.3402 15.5282 20.0218 16.1348 19.8125V19.8125ZM17.5148 20.7139C17.9006 20.4605 17.0461 20.6319 17.5148 20.7139V20.7139ZM4.56882 12.5414C5.08595 12.655 6.63542 13.7906 5.7213 12.6199C5.25312 12.484 5.5339 11.3615 5.05636 11.5601C5.37689 12.0854 5.32007 12.3089 4.64711 11.9778C3.80131 11.5728 4.17179 12.1785 4.33709 12.3454C4.11183 12.3956 4.63505 12.5372 4.56882 12.5414ZM2.21276 10.7163C2.30534 10.3407 1.3603 8.65007 1.7665 9.86918C1.91312 10.1246 1.89822 10.6085 2.21276 10.7163ZM6.53713 13.3314C6.27084 13.1129 6.52448 13.3004 6.53713 13.3314V13.3314ZM7.19288 13.481C7.19254 13.0832 6.46805 13.3195 7.19288 13.481V13.481ZM12.8755 16.9948C12.7671 16.723 12.447 16.9885 12.8755 16.9948L12.8755 16.9948ZM13.1483 17.1903C13.1081 17.0382 12.9909 17.2197 13.1483 17.1903V17.1903ZM15.4007 18.5819C15.6174 18.4249 15.1304 18.5619 15.4007 18.5819V18.5819ZM3.38963 11.011C4.00925 10.7757 2.72575 10.8432 3.38963 11.011V11.011ZM12.3752 16.5636C12.3683 16.1702 11.9802 16.6612 12.3752 16.5636V16.5636ZM3.14482 10.4515C3.54283 10.3196 2.77662 10.3646 3.14482 10.4515V10.4515ZM4.30007 11.0004C4.29285 10.871 4.17787 11.0493 4.30007 11.0004V11.0004ZM18.3907 19.4755C18.9025 19.3738 20.0688 19.7311 20.2573 19.3424C19.6358 19.3276 18.107 18.9123 18.0347 19.4416L18.1707 19.4626L18.3907 19.4755ZM4.66724 11.0911C4.67614 10.6924 4.35027 11.0762 4.66724 11.0911V11.0911ZM1.62979 9.02443C1.49185 8.2648 1.10514 8.90946 1.62979 9.02443V9.02443ZM2.35411 9.20301C2.36301 8.95909 1.69114 8.98353 2.35411 9.20301V9.20301ZM2.76804 9.40241C2.64839 9.30735 2.67438 9.5225 2.76804 9.40241V9.40241ZM5.37254 11.0412C5.49515 10.9307 5.08225 10.9594 5.37254 11.0412V11.0412ZM2.49234 8.95269C2.42233 8.37895 1.65342 8.86673 2.49234 8.95269V8.95269ZM1.00737 8.0076C0.986247 7.74281 0.862655 8.10748 1.00737 8.0076V8.0076ZM1.22825 7.84398C1.19222 7.53 1.03861 7.88392 1.22825 7.84398V7.84398ZM2.4487 8.55853C2.96477 8.35969 1.50867 8.14724 2.34325 8.52096L2.4487 8.55853ZM18.7824 18.4545C19.1127 18.1575 18.3626 18.3627 18.7824 18.4545V18.4545ZM20.7557 19.4578C20.888 19.0737 20.4224 19.5083 20.7557 19.4578V19.4578ZM2.57342 7.9311C2.62779 7.55959 2.16429 8.00486 2.57342 7.9311V7.9311ZM0.837027 6.78999C0.743748 6.2655 0.756507 5.34486 1.64872 5.65599C0.457762 5.88791 2.473 7.1079 2.21851 6.14468C2.71929 6.16873 3.19814 5.85439 2.93534 6.33142C3.92201 6.22453 4.60605 5.38533 5.5591 5.50292C6.30149 5.40656 7.11318 5.33348 7.9132 5.04037C8.57096 4.99389 9.20414 4.29926 8.84361 3.88754C7.94661 3.8131 7.00764 3.92318 6.01621 4.11647C4.91758 4.34049 3.91965 4.76611 2.81115 4.9488C1.73069 5.09117 3.02848 5.34105 2.71899 5.39672C2.15519 5.5886 3.39137 5.71799 2.6459 5.92027C2.18551 5.8344 1.7063 5.67925 1.90296 5.20336C0.867964 5.3351 -0.0414989 5.75643 0.776209 6.78951L0.837026 6.78997L0.837027 6.78994V6.78999ZM3.33099 5.54414C3.57366 4.66728 4.63108 6.26569 3.72873 5.66061C3.62096 5.5815 3.4437 5.51695 3.33099 5.54414ZM3.3782 5.11901C3.72844 4.86308 3.56438 5.2625 3.3782 5.11901V5.11901ZM3.82292 5.12594C3.85454 4.72245 4.84098 5.33954 3.98557 5.27119L3.82292 5.12594ZM4.43127 4.88602C4.65342 4.63141 4.49512 5.1125 4.43127 4.88602V4.88602ZM4.58689 4.78381C4.95681 4.34784 6.68177 4.50557 5.41916 4.7413C5.08073 4.49139 4.82132 4.88865 4.58689 4.78381ZM6.83801 4.44344C6.78173 3.25258 7.95638 4.86663 6.83801 4.44344V4.44344ZM7.47675 4.44001C7.71027 3.83981 8.38297 4.19917 7.58481 4.3194C7.60214 4.38327 7.56141 4.62926 7.47675 4.44001ZM2.32155 7.62302C3.0193 7.20393 1.58081 7.25942 2.32155 7.62302V7.62302ZM2.83746 7.76364C3.0821 7.50849 2.3059 7.66015 2.83746 7.76364V7.76364ZM1.31734 6.70545C1.71604 6.40504 0.845548 6.59123 1.31734 6.70545V6.70545ZM21.9204 19.348C21.9319 18.9995 21.6157 19.5051 21.9204 19.348V19.348ZM19.8269 17.9467C19.8864 17.5454 19.5578 17.9817 19.8269 17.9467V17.9467ZM22.4961 19.4831C23.0535 19.485 24.1851 19.3133 22.9722 19.3139C22.7819 19.343 21.8632 19.3368 22.4961 19.4831L22.4961 19.4831ZM3.29127 7.51769C3.7424 7.48729 3.99709 7.02958 3.20402 7.05589C1.97489 6.93108 4.28846 7.46869 3.04634 7.31497C2.87944 7.42338 3.28157 7.54768 3.29127 7.51769ZM3.68858 7.71494C3.64148 7.43083 3.54908 7.86587 3.68858 7.71494V7.71494ZM4.15988 6.48225C4.35565 6.24408 3.88899 6.41858 4.15988 6.48225V6.48225ZM2.65955 4.02236C3.46468 3.7537 4.5657 3.45181 4.94585 4.15464C4.55896 3.6979 4.78972 3.24826 5.15514 3.91606C5.67185 4.59172 5.93053 3.60875 5.59445 3.38212C5.97744 3.84887 6.41304 4.06943 5.85088 3.41162C6.46176 2.69085 4.62768 3.506 4.21081 3.49779C4.01023 3.5861 2.14004 3.96561 2.65955 4.02236ZM3.1314 3.13597C3.59058 2.79603 4.71948 3.33818 3.99507 2.79813C3.92425 2.73677 2.40861 3.20765 3.1314 3.13597ZM4.80542 3.20376C5.34282 3.21721 4.57362 2.49563 5.214 2.8226C5.10883 2.48559 4.46841 2.4225 4.15532 2.28786C3.97824 2.59598 4.51577 3.2079 4.80542 3.20376ZM3.42494 1.71326C3.61085 1.46605 3.09911 1.83858 3.42494 1.71326V1.71326ZM4.10913 1.87388C4.97516 1.76121 3.88838 1.50807 3.93462 1.86483L4.10913 1.87388V1.87388V1.87388ZM2.8316 0.893377C2.22182 0.112601 3.97837 1.02462 3.35884 0.207123C2.8374 -0.200154 2.33632 0.665448 2.8316 0.893377ZM10.6571 5.02776C10.9368 4.54146 9.50246 4.37225 10.4687 4.85541C10.5577 4.88457 10.5375 5.0614 10.6571 5.02776Z" fill="black"/>
</svg>
