<svg width="22" height="21" viewBox="0 0 22 21" fill="none" xmlns="http://www.w3.org/2000/svg">
<path d="M11.0012 0.500001C5.19925 0.497706 0.5 5.09261 0.5 10.7639C0.5 15.2487 3.43967 19.0609 7.53363 20.461C8.08496 20.5964 8.0005 20.2131 8.0005 19.9515V18.1727C4.81684 18.5376 4.6878 16.4766 4.4743 16.1323C4.04262 15.4116 3.02206 15.228 3.32706 14.8837C4.05201 14.5188 4.79103 14.9756 5.64736 16.2126C6.26673 17.1101 7.47497 16.9586 8.08731 16.8094C8.22104 16.27 8.50726 15.788 8.90141 15.4139C5.60278 14.8356 4.22796 12.8663 4.22796 10.5252C4.22796 9.38914 4.61038 8.34485 5.36113 7.50253C4.88253 6.11396 5.40571 4.92506 5.47609 4.74834C6.83918 4.62899 8.25623 5.70312 8.3665 5.78804C9.14071 5.58377 10.0252 5.4759 11.0153 5.4759C12.01 5.4759 12.8968 5.58836 13.6781 5.79493C13.9432 5.59754 15.257 4.67489 16.5239 4.78735C16.5919 4.96408 17.1034 6.12543 16.6529 7.49564C17.4131 8.34026 17.8002 9.39374 17.8002 10.5321C17.8002 12.8778 16.416 14.8493 13.108 15.4185C13.3913 15.6911 13.6163 16.0162 13.7698 16.3748C13.9232 16.7334 14.0021 17.1183 14.0018 17.5071V20.0892C14.0206 20.2957 14.0018 20.5 14.3538 20.5C18.5087 19.1298 21.5 15.29 21.5 10.7662C21.5 5.09261 16.7984 0.500001 11.0012 0.500001Z" fill="white"/>
</svg>
