<svg width="22" height="24" viewBox="0 0 22 24" fill="none" xmlns="http://www.w3.org/2000/svg">
<path fill-rule="evenodd" clip-rule="evenodd" d="M13.112 21.253L18.1949 18.4073C18.338 18.5543 18.5052 18.6841 18.6948 18.7909C19.749 19.3786 21.0935 19.0297 21.7058 18.0074C22.3118 16.9852 21.952 15.6814 20.8979 15.0877C20.7096 14.9827 20.512 14.9077 20.3108 14.861V9.16725C20.5098 9.12044 20.7053 9.04586 20.8915 8.94205C21.952 8.3483 22.3118 7.0445 21.6995 6.02227C21.0935 5.00005 19.7427 4.65114 18.6885 5.23877C18.4786 5.35576 18.2963 5.50138 18.1436 5.66766L13.0917 2.83927C13.164 2.62766 13.203 2.40131 13.203 2.16597C13.203 0.990711 12.2183 0.0296955 11 0.0296955C9.78171 0.0296955 8.79697 0.984591 8.79697 2.16597C8.79697 2.37596 8.82808 2.5788 8.88609 2.77039L3.80458 5.61538C3.66299 5.47126 3.49812 5.34389 3.31149 5.23877C2.25101 4.65114 0.906466 5.00005 0.300475 6.02227C-0.305516 7.0445 0.0542909 8.3483 1.10846 8.94205C1.29485 9.04594 1.49031 9.12056 1.6892 9.16736V14.861C1.48801 14.9077 1.29035 14.9827 1.10215 15.0877C0.0479784 15.6753 -0.311829 16.9852 0.294162 18.0074C0.900153 19.0297 2.25101 19.3786 3.30518 18.7909C3.4938 18.6847 3.66019 18.5557 3.8028 18.4097L8.88703 21.2562C8.82842 21.4487 8.79697 21.6526 8.79697 21.8637C8.79697 23.0451 9.78171 24 11 24C12.2183 24 13.203 23.0451 13.203 21.8637C13.203 21.6514 13.1712 21.4465 13.112 21.253ZM12.5824 20.3763L17.6774 17.5237C17.5199 16.9874 17.5777 16.3926 17.8868 15.8712C18.197 15.348 18.7022 15.0012 19.2629 14.866V9.16518C19.2344 9.15838 19.2059 9.15103 19.1777 9.14313L12.5233 20.3193C12.5434 20.3379 12.5631 20.3569 12.5824 20.3763ZM9.47813 20.318L2.82385 9.14203C2.79508 9.15013 2.76614 9.15766 2.73706 9.16463V14.866C3.29778 15.0012 3.80303 15.348 4.11317 15.8712C4.42291 16.3937 4.48033 16.9897 4.32167 17.5269L9.41521 20.3786C9.43576 20.358 9.45674 20.3378 9.47813 20.318ZM11.6155 19.8117L18.2683 8.63826C18.1194 8.5006 17.9882 8.3402 17.8805 8.15854C17.7735 7.97795 17.6965 7.78838 17.6483 7.5954H4.35184C4.30358 7.78826 4.22662 7.9778 4.11948 8.15854C4.01136 8.33904 3.88042 8.49855 3.73227 8.63561L10.3863 19.8112C10.581 19.7567 10.787 19.7275 11 19.7275C11.2137 19.7275 11.4203 19.7568 11.6155 19.8117ZM12.6292 3.60517L17.6911 6.43917C17.6759 6.48542 17.6623 6.53216 17.6504 6.57929H4.34902C4.34197 6.5516 4.33434 6.52404 4.32616 6.49664L9.41289 3.64873C9.8134 4.05179 10.3761 4.30224 11 4.30224C11.6461 4.30224 12.2265 4.03366 12.6292 3.60517Z" fill="#E535AB"/>
</svg>
