<svg width="25" height="24" viewBox="0 0 25 24" fill="none" xmlns="http://www.w3.org/2000/svg">
<path d="M12.02 0L12.7208 1.2162C12.8783 1.44064 13.049 1.6393 13.2501 1.82431C13.8368 2.36644 14.394 2.93436 14.8946 3.54246C16.082 4.9831 16.8829 6.58297 17.4548 8.31326C17.7978 9.37023 17.9841 10.4545 17.9981 11.5509C18.0555 14.8287 16.8394 17.6433 14.3874 19.9825C13.987 20.3525 13.5586 20.6952 13.0991 21C12.8562 21 12.7413 20.8279 12.6412 20.6694C12.4549 20.379 12.3409 20.0477 12.2834 19.7178C12.1973 19.3213 12.1406 18.9247 12.1685 18.5153V18.3303C12.1488 18.2908 11.9347 0.0932626 12.02 0Z" fill="#599636"/>
<path d="M12.8401 0.0257284C12.8113 -0.0266213 12.7825 0.0130149 12.7536 0.0384419C12.7676 0.30019 12.6671 0.53352 12.5097 0.75638C12.3366 0.977745 12.1076 1.14751 11.8776 1.32998C10.6004 2.3336 9.59501 3.54587 8.78991 4.90173C7.71864 6.72649 7.16652 8.68212 7.00995 10.741C6.93826 11.4836 7.2687 14.1041 7.52663 14.8601C8.23038 16.8674 9.49447 18.5493 11.1319 20.0091C11.534 20.3606 11.9642 20.6866 12.4092 21C12.5385 21 12.5525 20.8953 12.5822 20.8175C12.6389 20.6511 12.6822 20.4811 12.7116 20.309L13 18.3541L12.8401 0.0257284Z" fill="#6CAC48"/>
<path d="M12.7595 21.6171C12.7788 21.3151 12.8847 21.0645 13 20.8147C12.8842 20.749 12.7981 20.6184 12.7308 20.4728C12.6729 20.3414 12.6249 20.1837 12.5874 20.0387C12.4528 19.4862 12.4242 18.9065 12.3855 18.3419V18C12.3376 18.0528 12.3276 18.4997 12.3276 18.5661C12.2996 19.1628 12.2417 19.7563 12.1544 20.3422C12.1258 20.5792 12.1065 20.8154 12 21.026C12 21.0525 12 21.0789 12.0094 21.1181C12.1826 21.8156 12.23 22.5259 12.2592 23.2497V23.5139C12.2592 23.8294 12.2499 23.763 12.4413 23.8687C12.5185 23.9079 12.6045 23.9215 12.6817 24C12.7397 24 12.749 23.9343 12.749 23.8815L12.7204 23.4475V22.2368C12.711 22.0254 12.7397 21.8156 12.759 21.6178L12.7595 21.6171Z" fill="#C2BFBF"/>
</svg>
