<svg width="21" height="24" viewBox="0 0 21 24" fill="none" xmlns="http://www.w3.org/2000/svg">
<path d="M10.5 24C10.1739 24 9.86957 23.9118 9.58696 23.7575L6.69565 22.0156C6.26087 21.7731 6.47826 21.6849 6.6087 21.6408C7.19565 21.4424 7.30435 21.3983 7.91304 21.0455C7.97826 21.0014 8.06522 21.0234 8.13043 21.0675L10.3478 22.4125C10.4348 22.4566 10.5435 22.4566 10.6087 22.4125L19.2826 17.3192C19.3696 17.2751 19.413 17.187 19.413 17.0767V6.91226C19.413 6.80202 19.3696 6.71383 19.2826 6.66973L10.6087 1.59853C10.5217 1.55443 10.413 1.55443 10.3478 1.59853L1.67391 6.66973C1.58696 6.71383 1.54348 6.82407 1.54348 6.91226V17.0767C1.54348 17.1649 1.58696 17.2751 1.67391 17.3192L4.04348 18.7083C5.32609 19.3698 6.13043 18.5981 6.13043 17.8264V7.79421C6.13043 7.66192 6.23913 7.52963 6.3913 7.52963H7.5C7.63043 7.52963 7.76087 7.63987 7.76087 7.79421V17.8264C7.76087 19.5682 6.82609 20.5825 5.19565 20.5825C4.69565 20.5825 4.30435 20.5825 3.19565 20.0312L0.913043 18.7083C0.347826 18.3776 0 17.7602 0 17.0988V6.93431C0 6.27285 0.347826 5.65549 0.913043 5.32476L9.58696 0.231511C10.1304 -0.0771704 10.8696 -0.0771704 11.413 0.231511L20.087 5.32476C20.6522 5.65549 21 6.27285 21 6.93431V17.0988C21 17.7602 20.6522 18.3776 20.087 18.7083L11.413 23.8016C11.1304 23.9339 10.8043 24 10.5 24ZM13.1739 17.0106C9.36957 17.0106 8.58696 15.2467 8.58696 13.7474C8.58696 13.6151 8.69565 13.4828 8.84783 13.4828H9.97826C10.1087 13.4828 10.2174 13.571 10.2174 13.7033C10.3913 14.8718 10.8913 15.4451 13.1957 15.4451C15.0217 15.4451 15.8043 15.0262 15.8043 14.034C15.8043 13.4607 15.587 13.0418 12.7391 12.7552C10.3696 12.5126 8.8913 11.9835 8.8913 10.0652C8.8913 8.27928 10.3696 7.22095 12.8478 7.22095C15.6304 7.22095 17 8.19109 17.1739 10.3078C17.1739 10.3739 17.1522 10.4401 17.1087 10.5062C17.0652 10.5503 17 10.5944 16.9348 10.5944H15.8043C15.6957 10.5944 15.587 10.5062 15.5652 10.396C15.3043 9.18328 14.6304 8.7864 12.8478 8.7864C10.8478 8.7864 10.6087 9.49196 10.6087 10.0211C10.6087 10.6605 10.8913 10.859 13.587 11.2118C16.2609 11.5645 17.5217 12.0717 17.5217 13.9678C17.5 15.9081 15.9348 17.0106 13.1739 17.0106Z" fill="#539E43"/>
</svg>
