<svg width="23" height="22" viewBox="0 0 23 22" fill="none" xmlns="http://www.w3.org/2000/svg">
<path d="M16.5113 16.0158C16.6567 14.8491 16.613 14.6788 17.514 14.8671L17.7433 14.8869C18.4365 14.917 19.3429 14.7794 19.8844 14.5413C21.0308 14.0288 21.7106 13.1725 20.5803 13.3978C18.002 13.9102 17.8147 13.0685 17.8147 13.0685C20.5383 9.17365 21.6776 4.2299 20.6936 3.02019C18.0136 -0.281372 13.3736 1.27999 13.296 1.32126L13.2711 1.32556C12.7625 1.22239 12.2005 1.1622 11.5492 1.1536C10.3823 1.13641 9.49735 1.44851 8.82468 1.93944C8.82468 1.93944 0.548409 -1.34664 0.932916 6.07242C1.01499 7.65098 3.27921 18.0234 5.98236 14.8852C6.97173 13.7382 7.92631 12.7693 7.92631 12.7693C8.39914 13.0728 8.96743 13.2275 9.56248 13.1716L9.60887 13.1338C9.59514 13.2824 9.60143 13.4321 9.6276 13.5792C8.93174 14.3289 9.13693 14.4605 7.74521 14.7364C6.33743 15.0159 7.16533 15.5137 7.70417 15.6444C8.35899 15.8026 9.87383 16.0261 10.898 14.6453L10.857 14.8026C11.1299 15.0133 11.1112 16.3159 11.1514 17.2461C11.1915 18.1764 11.2548 19.0457 11.452 19.5572C11.6492 20.0688 11.8802 21.3886 13.7091 21.0189C15.2373 20.7033 16.406 20.2485 16.513 16.0235" fill="black"/>
<path d="M16.5113 16.0158C16.6567 14.8491 16.613 14.6788 17.514 14.8671L17.7433 14.8869C18.4365 14.917 19.3429 14.7794 19.8844 14.5413C21.0308 14.0288 21.7106 13.1725 20.5803 13.3978C18.002 13.9102 17.8147 13.0685 17.8147 13.0685C20.5383 9.17365 21.6776 4.2299 20.6936 3.02019C18.0136 -0.281372 13.3736 1.27999 13.296 1.32126L13.2711 1.32556C12.7625 1.22239 12.2005 1.1622 11.5492 1.1536C10.3823 1.13641 9.49735 1.44851 8.82468 1.93944C8.82468 1.93944 0.548409 -1.34664 0.932916 6.07242C1.01499 7.65098 3.27921 18.0234 5.98236 14.8852C6.97173 13.7382 7.92631 12.7693 7.92631 12.7693C8.39914 13.0728 8.96743 13.2275 9.56247 13.1716L9.60887 13.1338C9.59514 13.2824 9.60143 13.4321 9.6276 13.5792C8.93174 14.3289 9.13693 14.4605 7.74521 14.7364C6.33743 15.0159 7.16533 15.5137 7.70417 15.6444C8.35899 15.8026 9.87383 16.0261 10.898 14.6453L10.857 14.8026C11.1299 15.0133 11.1112 16.3159 11.1514 17.2461C11.1915 18.1764 11.2548 19.0457 11.452 19.5572C11.6492 20.0688 11.8802 21.3886 13.7091 21.0189C15.2373 20.7033 16.406 20.2485 16.513 16.0235" stroke="black" stroke-width="3"/>
<path d="M20.5793 13.4006C18.001 13.9132 17.8136 13.0712 17.8136 13.0712C20.5374 9.17543 21.6767 4.23042 20.6935 3.0204C18.0135 -0.282008 13.3733 1.28062 13.2957 1.32104L13.2707 1.32534C12.704 1.21572 12.1278 1.15784 11.5497 1.15248C10.3828 1.13528 9.49776 1.44746 8.82507 1.93852C8.82507 1.93852 0.54756 -1.34841 0.932975 6.07255C1.01505 7.65151 3.27937 18.0266 5.98263 14.8876C6.97829 13.7334 7.9329 12.7642 7.9329 12.7642C8.40575 13.0678 8.97406 13.2226 9.56914 13.1667L9.61553 13.1289C9.6019 13.2775 9.60819 13.4272 9.63426 13.5743C8.93837 14.3243 9.14357 14.4558 7.75179 14.7319C6.34396 15.0114 7.17189 15.5093 7.71075 15.6401C8.3656 15.7983 9.8805 16.0219 10.9047 14.6407L10.8637 14.7981C11.1367 15.0088 11.3276 16.1681 11.2955 17.219C11.2634 18.27 11.2419 18.9906 11.4561 19.5548C11.6702 20.119 11.8843 21.3866 13.7132 21.0168C15.2415 20.7012 16.0329 19.8816 16.1444 18.5176C16.2229 17.5475 16.3996 17.6903 16.412 16.8234L16.5548 16.4123C16.7181 15.0965 16.5816 14.6726 17.5228 14.8704L17.7521 14.8901C18.4453 14.9202 19.3526 14.7826 19.8843 14.5444C21.0308 14.0319 21.7106 13.1753 20.5802 13.4006H20.5793Z" fill="#336791"/>
<path d="M11.0833 14.142C11.0115 16.5818 11.1013 19.0387 11.3508 19.6285C11.6003 20.2183 12.1361 21.3858 13.9768 21.0104C15.5141 20.6958 16.0741 20.0862 16.3164 18.7412L16.8845 14.4403M8.87738 1.91148C8.87738 1.91148 0.545341 -1.34267 0.933044 6.05462C1.01561 7.62855 3.29337 17.9705 6.01268 14.8415C7.00527 13.6988 7.90273 12.8047 7.90273 12.8047M13.3773 1.3174C13.0901 1.40313 18.0117 -0.401402 20.81 3.01306C21.7972 4.21923 20.653 9.14847 17.913 13.0319" stroke="white" stroke-linecap="round" stroke-linejoin="round"/>
<path d="M17.7499 12.843C17.7499 12.843 17.9318 13.6863 20.5692 13.1717C21.7215 12.9463 21.0276 13.8034 19.8598 14.3162C18.9013 14.7379 16.7513 14.8454 16.7158 14.2646C16.6248 12.763 17.8472 13.2191 17.759 12.843C17.6789 12.504 17.1314 12.1718 16.7713 11.3423C16.4557 10.6195 12.4421 5.0692 17.8845 5.8927C18.0845 5.85398 16.4657 0.987806 11.3726 0.917244C6.27953 0.846682 6.44051 6.84184 6.44051 6.84184" stroke="white" stroke-linecap="round" stroke-linejoin="bevel"/>
<path d="M9.45644 13.1405C8.66748 13.9792 8.90012 14.1263 7.32218 14.435C5.72604 14.7476 6.66471 15.3045 7.27565 15.4507C8.01809 15.6277 9.73562 15.8777 10.8968 14.3321C11.2508 13.8609 10.8948 13.1107 10.4093 12.9202C10.1746 12.8279 9.86104 12.7125 9.45847 13.1414L9.45644 13.1405Z" stroke="white" stroke-linejoin="round"/>
<path d="M9.74636 13.75C9.6662 13.3142 9.9147 12.7969 10.1802 12.1904C10.579 11.2816 11.4989 10.3727 10.7634 7.48728C10.2153 5.33828 6.53496 7.03964 6.53496 7.33099C6.53496 7.62234 6.70129 8.80896 6.47484 10.1892C6.17724 11.9917 7.82754 13.5155 9.72732 13.3601" stroke="white" stroke-linecap="round" stroke-linejoin="round"/>
<path d="M9.20069 6.63506C9.18638 6.8064 9.3817 7.26475 9.63512 7.32626C9.88853 7.38776 10.1049 7.03045 10.1192 6.85765C10.1335 6.68485 9.9382 6.49741 9.68479 6.43591C9.43137 6.3744 9.21332 6.4652 9.20069 6.63506Z" fill="white" stroke="white" stroke-width="0.5975"/>
<path d="M17.4794 6.63506C17.4929 6.8064 17.2983 7.26475 17.0449 7.32626C16.7914 7.38776 16.5733 7.03045 16.5606 6.85765C16.548 6.68485 16.7417 6.49741 16.9952 6.43591C17.2487 6.3744 17.4668 6.46519 17.4794 6.63506Z" fill="white" stroke="white" stroke-width="0.2975"/>
<path d="M18.3906 6.41663C18.4614 7.23608 18.1102 7.79277 18.0649 8.66478C17.9997 9.93136 19.025 11.3814 17.48 12.8333" stroke="white" stroke-linecap="round" stroke-linejoin="round"/>
</svg>
