<svg width="24" height="22" viewBox="0 0 24 22" fill="none" xmlns="http://www.w3.org/2000/svg">
<path d="M24 11.0025C24 9.366 22.009 7.81508 18.9564 6.85331C19.6609 3.65074 19.3478 1.10278 17.9682 0.287025C17.6502 0.0956749 17.2785 0.00503305 16.8724 0.00503305V1.12796C17.0974 1.12796 17.2785 1.17328 17.4301 1.25887C18.0954 1.65164 18.3841 3.14718 18.1589 5.07074C18.1052 5.54408 18.0172 6.04259 17.9095 6.55117C16.9506 6.30947 15.9038 6.12316 14.8031 6.00231C14.1427 5.07074 13.4578 4.22477 12.768 3.48456C14.3628 1.95881 15.8598 1.12291 16.8773 1.12291V0C15.532 0 13.7709 0.98696 11.9903 2.69902C10.2095 0.997026 8.44846 0.0201439 7.10319 0.0201439V1.14305C8.11581 1.14305 9.61761 1.97392 11.2124 3.4896C10.5275 4.22982 9.84263 5.07074 9.19198 6.00231C8.08638 6.12316 7.03953 6.30947 6.08073 6.5562C5.96817 6.05266 5.88503 5.56421 5.82629 5.09591C5.59646 3.17236 5.88011 1.67682 6.5406 1.27902C6.68729 1.18838 6.87807 1.1481 7.10319 1.1481V0.0251769C6.69221 0.0251769 6.3204 0.115819 5.99759 0.307169C4.6229 1.12291 4.31475 3.66584 5.02403 6.85834C1.98125 7.82516 0 9.37107 0 11.0025C0 12.6391 1.99103 14.1901 5.04361 15.1518C4.33914 18.3544 4.65222 20.9023 6.03183 21.7181C6.34983 21.9094 6.72153 22 7.13251 22C8.47778 22 10.2389 21.0131 12.0196 19.301C13.8002 21.0031 15.5614 21.98 16.9067 21.98C17.3175 21.98 17.6893 21.8893 18.0123 21.6979C19.3868 20.8821 19.6951 18.3392 18.9857 15.1468C22.0187 14.185 24 12.6341 24 11.0025ZM17.6307 7.64387C17.4497 8.2935 17.2247 8.96312 16.9702 9.63286C16.7697 9.23009 16.5593 8.82722 16.3294 8.42434C16.1044 8.02154 15.8646 7.62877 15.6249 7.24607C16.3196 7.35181 16.9898 7.48274 17.6307 7.64387ZM15.3901 13.0066C15.0085 13.6865 14.6172 14.331 14.2112 14.9303C13.4822 14.9957 12.7436 15.0309 12 15.0309C11.2613 15.0309 10.5226 14.9957 9.79865 14.9352C9.3926 14.336 8.99628 13.6965 8.61473 13.0217C8.24292 12.3621 7.90545 11.6924 7.59719 11.0177C7.90053 10.3429 8.24292 9.6681 8.60992 9.0085C8.99147 8.32874 9.38275 7.68416 9.78881 7.08493C10.5178 7.01947 11.2564 6.98423 12 6.98423C12.7387 6.98423 13.4774 7.01947 14.2013 7.0799C14.6074 7.67913 15.0037 8.31861 15.3853 8.99341C15.7571 9.65301 16.0945 10.3227 16.4028 10.9976C16.0945 11.6722 15.7571 12.347 15.3901 13.0066ZM16.9702 12.3521C17.227 13.0083 17.4523 13.6772 17.6454 14.3561C17.0044 14.5173 16.3294 14.6533 15.6299 14.759C15.8695 14.3713 16.1092 13.9735 16.3343 13.5656C16.5593 13.1628 16.7697 12.7549 16.9702 12.3521ZM12.0097 17.725C11.5548 17.2415 11.0998 16.7027 10.6498 16.1136C11.0901 16.1337 11.5401 16.1488 11.9951 16.1488C12.455 16.1488 12.9099 16.1388 13.3551 16.1136C12.9352 16.6753 12.4861 17.2132 12.0097 17.725ZM8.37014 14.759C7.67552 14.6533 7.00529 14.5223 6.36448 14.3612C6.54541 13.7116 6.77054 13.0419 7.02487 12.3722C7.22549 12.775 7.43584 13.1779 7.66567 13.5807C7.89561 13.9836 8.13047 14.3763 8.37014 14.759ZM11.9853 4.28017C12.4403 4.76357 12.8952 5.30238 13.3453 5.89152C12.905 5.87138 12.455 5.85628 12 5.85628C11.5401 5.85628 11.0852 5.86635 10.6401 5.89152C11.06 5.32984 11.509 4.79194 11.9853 4.28017ZM8.36521 7.24607C8.12554 7.63381 7.88587 8.03161 7.66086 8.43943C7.43584 8.8423 7.22549 9.24518 7.02487 9.64795C6.76805 8.99173 6.54276 8.32289 6.34983 7.64387C6.99063 7.48778 7.66567 7.35181 8.36521 7.24607ZM3.93801 13.5505C2.20628 12.7901 1.08602 11.7932 1.08602 11.0025C1.08602 10.212 2.20628 9.20994 3.93801 8.45463C4.35872 8.26828 4.8186 8.1021 5.29313 7.94601C5.57196 8.93294 5.93885 9.96018 6.3938 11.0126C5.94377 12.06 5.5817 13.0822 5.30778 14.0642C4.82352 13.908 4.36365 13.7368 3.93801 13.5505ZM6.56992 20.7462C5.90461 20.3535 5.61593 18.8579 5.84106 16.9343C5.89488 16.4611 5.98283 15.9625 6.09047 15.4539C7.04937 15.6956 8.09623 15.882 9.1969 16.0028C9.85728 16.9343 10.5422 17.7803 11.232 18.5205C9.63719 20.0463 8.1402 20.8821 7.12266 20.8821C6.90257 20.8772 6.71672 20.8318 6.56992 20.7462ZM18.1737 16.9092C18.4035 18.8327 18.1199 20.3283 17.4594 20.7261C17.3127 20.8167 17.1219 20.857 16.8968 20.857C15.8842 20.857 14.3824 20.0261 12.7876 18.5105C13.4725 17.7702 14.1574 16.9294 14.808 15.9977C15.9136 15.8769 16.9605 15.6905 17.9193 15.4438C18.0318 15.9524 18.1199 16.4409 18.1737 16.9092ZM20.0571 13.5505C19.6364 13.7368 19.1765 13.903 18.702 14.0591C18.4231 13.0722 18.0562 12.0449 17.6013 10.9925C18.0514 9.94509 18.4134 8.92292 18.6873 7.94096C19.1717 8.09707 19.6314 8.26828 20.062 8.45463C21.7937 9.21489 22.914 10.212 22.914 11.0025C22.9091 11.7932 21.7888 12.7952 20.0571 13.5505Z" fill="#42E8E0"/>
</svg>
