<svg width="25" height="18" viewBox="0 0 25 18" fill="none" xmlns="http://www.w3.org/2000/svg">
<path fill-rule="evenodd" clip-rule="evenodd" d="M20.914 1.2753L21.441 1.88709C21.5794 2.04856 21.5448 2.28 21.3617 2.402L20.8021 2.77697C20.9039 3.01559 20.969 3.27035 20.9954 3.5305L21.6323 3.60765C21.8601 3.63456 22.0188 3.82115 21.9883 4.02209L21.8703 4.78458C21.8398 4.98552 21.6282 5.12726 21.4003 5.09855L20.7045 5.01423C20.5804 5.25285 20.4217 5.47173 20.2345 5.66728L20.6251 6.1194C20.7635 6.28087 20.7269 6.51231 20.5437 6.63431L19.8499 7.09899C19.6668 7.22098 19.4043 7.18869 19.266 7.02902L18.8408 6.53563C18.5681 6.62534 18.2812 6.68275 17.9842 6.70608L17.8967 7.26763C17.8662 7.46857 17.6546 7.60851 17.4267 7.5816L16.562 7.47754C16.3341 7.45063 16.1754 7.26404 16.2059 7.0631L16.3015 6.44952C16.033 6.34008 15.7827 6.20014 15.5609 6.03687L15.0482 6.37955C14.8651 6.50155 14.6026 6.47105 14.4643 6.30958L13.9373 5.69778C13.799 5.53631 13.8335 5.30487 14.0167 5.18288L14.5762 4.80791C14.4745 4.5675 14.4093 4.31453 14.3829 4.05438L13.7461 3.97723C13.5182 3.95032 13.3574 3.76373 13.39 3.56279L13.508 2.8003C13.5406 2.59936 13.7501 2.45942 13.978 2.48633L14.6738 2.57065C14.798 2.33383 14.9567 2.11315 15.1418 1.91759L14.7532 1.46548C14.6148 1.3058 14.6494 1.07436 14.8325 0.952363L15.5264 0.487688C15.7095 0.365689 15.9719 0.396189 16.1103 0.557659L16.5355 1.05104C16.8061 0.961334 17.095 0.903922 17.3901 0.880599L17.4776 0.319042C17.5081 0.118102 17.7197 -0.023633 17.9476 0.00327868L18.8123 0.107337C19.0401 0.134249 19.2009 0.320836 19.1683 0.521777L19.0727 1.13536C19.3433 1.2448 19.5915 1.38474 19.8153 1.5498L20.3281 1.20713C20.5112 1.08333 20.7736 1.11383 20.914 1.2753ZM6.03687 12.0418V9.08148H7.7663C8.08777 9.08148 8.33192 9.1048 8.5008 9.15504C8.66967 9.20348 8.80802 9.29318 8.90975 9.42415C9.01352 9.55692 9.06642 9.71659 9.06642 9.90497C9.06642 10.0682 9.02573 10.2118 8.94638 10.3302C8.86703 10.4504 8.75716 10.5473 8.6188 10.6208C8.53131 10.6675 8.40924 10.7069 8.25461 10.7374C8.37872 10.7751 8.46824 10.8092 8.52318 10.8469C8.56183 10.872 8.61677 10.924 8.68798 11.003C8.75919 11.0819 8.80802 11.1447 8.83244 11.1878L9.33703 12.0436H8.16508L7.61166 11.1411C7.54045 11.0245 7.47941 10.9474 7.42448 10.9133C7.3492 10.8684 7.26374 10.8451 7.17015 10.8451H7.07859V12.0436H6.03687V12.0418ZM9.69512 17.1962H7.75816L7.47941 18H5.73371L7.81513 13.1218H9.68698L11.7603 18H9.96979L9.69512 17.1962ZM9.33296 16.1395L8.72867 14.3849L8.12235 16.1395H9.33296ZM12.1631 13.1218H15.0075C15.6281 13.1218 16.092 13.251 16.3992 13.5111C16.7064 13.7713 16.8611 14.1427 16.8611 14.6217C16.8611 15.1151 16.6922 15.5008 16.3565 15.7789C16.0208 16.057 15.506 16.1951 14.8163 16.1951H13.8783V18H12.1631V13.1218ZM13.8783 15.2066H14.2995C14.6311 15.2066 14.8651 15.1563 14.9994 15.0541C15.1337 14.9536 15.2008 14.8226 15.2008 14.6665C15.2008 14.514 15.1418 14.3831 15.0258 14.2772C14.9099 14.1714 14.6901 14.1175 14.3687 14.1175H13.8783V15.2066ZM17.5528 13.1218H19.268V18H17.5528V13.1218ZM7.07859 10.2835H7.51604C7.56283 10.2835 7.65439 10.2692 7.79071 10.2423C7.85989 10.2297 7.91686 10.1992 7.95959 10.149C8.00435 10.0987 8.02469 10.0413 8.02469 9.97674C8.02469 9.88165 7.9901 9.8063 7.92093 9.75606C7.85175 9.70403 7.72357 9.67892 7.53435 9.67892H7.07859V10.2835ZM9.53642 9.08148H12.3137V9.713H10.5781V10.1849H12.1875V10.7877H10.5781V11.3708H12.3645V12.04H9.53642V9.08148ZM12.6107 11.0622L13.5955 11.0084C13.6158 11.1501 13.6606 11.2559 13.7257 11.3295C13.8335 11.4479 13.9861 11.5089 14.1835 11.5089C14.33 11.5089 14.446 11.4784 14.5253 11.4174C14.6047 11.3564 14.6454 11.2846 14.6454 11.2039C14.6454 11.1268 14.6067 11.0586 14.5314 10.9976C14.4561 10.9366 14.2791 10.881 14.0004 10.8254C13.5467 10.7356 13.2232 10.6154 13.0278 10.4665C12.8325 10.3176 12.7348 10.1274 12.7348 9.896C12.7348 9.7435 12.7857 9.59997 12.8854 9.46542C12.9851 9.33086 13.1357 9.22321 13.3371 9.14607C13.5385 9.06892 13.8132 9.03124 14.1632 9.03124C14.5925 9.03124 14.918 9.10121 15.1438 9.24295C15.3677 9.38468 15.5019 9.60715 15.5447 9.91574L14.5701 9.96777C14.5436 9.83321 14.4887 9.73453 14.4073 9.67533C14.3239 9.61433 14.2079 9.58383 14.0635 9.58383C13.9434 9.58383 13.8519 9.60715 13.7908 9.652C13.7298 9.69686 13.6993 9.75247 13.6993 9.81706C13.6993 9.86371 13.7257 9.90497 13.7745 9.94444C13.8234 9.98212 13.9373 10.0198 14.1204 10.0539C14.5741 10.14 14.8997 10.2279 15.095 10.3158C15.2903 10.4037 15.4348 10.5132 15.5223 10.6441C15.6118 10.7733 15.6566 10.9204 15.6566 11.0819C15.6566 11.2721 15.5976 11.4461 15.4775 11.6058C15.3595 11.7655 15.1927 11.8875 14.979 11.97C14.7654 12.0525 14.4968 12.0938 14.1713 12.0938C13.6016 12.0938 13.2048 11.9969 12.9851 11.8031C12.7654 11.6058 12.6413 11.36 12.6107 11.0622ZM15.8071 9.08148H18.9628V9.81347H17.9048V12.0418H16.8672V9.81347H15.8071V9.08148ZM12.3157 2.05574C11.9434 2.03062 11.567 2.03421 11.1946 2.06651C10.0491 2.16339 8.9362 2.53118 8.01655 3.16091C6.95245 3.88753 6.1447 4.97476 5.8334 6.41543L5.73574 6.86575L5.22708 6.94469C4.7286 7.02184 4.28302 7.12769 3.89237 7.26225C3.51393 7.39143 3.17618 7.5511 2.88116 7.73948C2.64515 7.89019 2.44168 8.05883 2.26874 8.24183C1.73364 8.80698 1.48541 9.51565 1.49151 10.2333C1.49762 10.9617 1.76619 11.6973 2.26264 12.3019C2.44779 12.5262 2.66142 12.7325 2.90558 12.9119C3.1538 13.0931 3.43255 13.2438 3.74588 13.3568C3.92289 13.4214 4.11211 13.4753 4.30947 13.5183V14.8621C3.90254 14.7975 3.52817 14.7006 3.17822 14.5732C2.71636 14.4046 2.3074 14.1875 1.94727 13.922C1.60545 13.6708 1.30636 13.3855 1.05204 13.0752C0.374506 12.2499 0.00827407 11.2416 0.000135575 10.2369C-0.00800292 9.22142 0.350091 8.21133 1.12325 7.39322C1.37351 7.12769 1.66853 6.88369 2.00627 6.6684C2.39896 6.41722 2.84861 6.20552 3.35727 6.03149C3.70722 5.91128 4.08159 5.81081 4.47631 5.73008C4.92393 4.16203 5.87816 2.95459 7.10504 2.11674C8.25257 1.33271 9.63408 0.875216 11.0563 0.755011C11.803 0.692217 12.5599 0.720923 13.3005 0.842922C13.2842 0.902128 13.27 0.961334 13.2618 1.02233L13.2598 1.0331C13.2455 1.13536 13.2394 1.23763 13.2455 1.34169C13.0889 1.39551 12.9424 1.46907 12.8101 1.55877L12.804 1.56236C12.6067 1.69333 12.4398 1.86198 12.3157 2.05574ZM23.0809 5.50043C23.1948 5.59193 23.3047 5.68702 23.4126 5.78929C23.6303 5.99561 23.8358 6.22884 24.029 6.48899C24.6801 7.37169 25.0138 8.55042 24.9996 9.70403C24.9853 10.8361 24.6394 11.9628 23.9314 12.7917C23.4695 13.3317 22.8774 13.7731 22.1674 14.1229C21.6811 14.3633 21.1338 14.5625 20.5376 14.724V13.3335C20.8591 13.2277 21.1582 13.1093 21.4329 12.9747C21.968 12.711 22.4054 12.3898 22.733 12.0041C23.2416 11.4066 23.4919 10.5616 23.5021 9.69506C23.5143 8.78545 23.262 7.87225 22.7716 7.20843C22.6313 7.01646 22.4766 6.84422 22.3139 6.68993C22.2508 6.63072 22.1877 6.5751 22.1226 6.52128C22.1328 6.43158 22.1368 6.34008 22.1307 6.24858C22.2874 6.19475 22.4339 6.1212 22.5662 6.03149L22.5723 6.0279C22.7818 5.88617 22.9568 5.70676 23.0809 5.50043ZM17.9211 2.29615C18.8591 2.40918 19.5142 3.17168 19.386 3.99876C19.2579 4.82585 18.3931 5.40534 17.4552 5.29232C16.5172 5.17929 15.86 4.41679 15.9902 3.58971C16.1205 2.76262 16.9831 2.18312 17.9211 2.29615Z" fill="black"/>
</svg>
