<svg width="598" height="433" viewBox="0 0 598 433" fill="none" xmlns="http://www.w3.org/2000/svg">
<path opacity="0.02" d="M479.29 101H152.71C132.435 101 116 122.159 116 148.261V348.739C116 374.841 132.435 396 152.71 396H479.29C499.565 396 516 374.841 516 348.739V148.261C516 122.159 499.565 101 479.29 101Z" fill="#5F5F5F" fill-opacity="0.1"/>
<path opacity="0.04" d="M477.956 102H153.044C133.138 102 117 122.882 117 148.642V349.358C117 375.118 133.138 396 153.044 396H477.956C497.862 396 514 375.118 514 349.358V148.642C514 122.882 497.862 102 477.956 102Z" fill="#5F5F5F" fill-opacity="0.1"/>
<path opacity="0.06" d="M478.423 102H153.577C133.928 102 118 122.615 118 148.046V348.954C118 374.385 133.928 395 153.577 395H478.423C498.072 395 514 374.385 514 348.954V148.046C514 122.615 498.072 102 478.423 102Z" fill="#5F5F5F" fill-opacity="0.1"/>
<path opacity="0.08" d="M478.892 103H154.108C134.718 103 119 123.278 119 148.292V348.708C119 373.722 134.718 394 154.108 394H478.892C498.282 394 514 373.722 514 348.708V148.292C514 123.278 498.282 103 478.892 103Z" fill="#5F5F5F" fill-opacity="0.1"/>
<path opacity="0.1" d="M477.539 104H154.461C135.429 104 120 124.008 120 148.689V349.311C120 373.992 135.429 394 154.461 394H477.539C496.571 394 512 373.992 512 349.311V148.689C512 124.008 496.571 104 477.539 104Z" fill="#5F5F5F" fill-opacity="0.1"/>
<path opacity="0.12" d="M477.097 105H154.903C136.179 105 121 124.671 121 148.935V349.065C121 373.329 136.179 393 154.903 393H477.097C495.821 393 511 373.329 511 349.065V148.935C511 124.671 495.821 105 477.097 105Z" fill="#5F5F5F" fill-opacity="0.1"/>
<path opacity="0.14" d="M477.568 107H155.432C136.968 107 122 126.333 122 150.182V349.818C122 373.667 136.968 393 155.432 393H477.568C496.032 393 511 373.667 511 349.818V150.182C511 126.333 496.032 107 477.568 107Z" fill="#5F5F5F" fill-opacity="0.1"/>
<path opacity="0.16" d="M476.227 108H155.773C137.673 108 123 126.986 123 150.406V349.594C123 373.014 137.673 392 155.773 392H476.227C494.327 392 509 373.014 509 349.594V150.406C509 126.986 494.327 108 476.227 108Z" fill="#5F5F5F" fill-opacity="0.1"/>
<path opacity="0.18" d="M476.7 108H156.3C138.461 108 124 126.517 124 149.36V346.64C124 369.483 138.461 388 156.3 388H476.7C494.539 388 509 369.483 509 346.64V149.36C509 126.517 494.539 108 476.7 108Z" fill="#5F5F5F" fill-opacity="0.1"/>
<path opacity="0.2" d="M477.175 109H156.825C139.248 109 125 127.247 125 149.756V347.244C125 369.753 139.248 388 156.825 388H477.175C494.751 388 509 369.753 509 347.244V149.756C509 127.247 494.751 109 477.175 109Z" fill="#5F5F5F" fill-opacity="0.1"/>
<path opacity="0.22" d="M475.815 110H157.185C139.962 110 126 127.912 126 150.009V346.991C126 369.088 139.962 387 157.185 387H475.815C493.038 387 507 369.088 507 346.991V150.009C507 127.912 493.038 110 475.815 110Z" fill="#5F5F5F" fill-opacity="0.1"/>
<path opacity="0.24" d="M475.374 111H157.626C140.712 111 127 128.578 127 150.262V346.738C127 368.422 140.712 386 157.626 386H475.374C492.288 386 506 368.422 506 346.738V150.262C506 128.578 492.288 111 475.374 111Z" fill="#5F5F5F" fill-opacity="0.1"/>
<path opacity="0.25" d="M157.134 112H474.866C482.858 112 490.523 116.071 496.174 123.317C501.825 130.562 505 140.39 505 150.637V347.342C505 357.595 501.823 367.428 496.169 374.677C490.515 381.927 482.846 386 474.85 386H157.134C153.177 386 149.258 385.001 145.602 383.059C141.946 381.117 138.624 378.271 135.826 374.684C130.175 367.438 127 357.61 127 347.363V150.658C126.998 145.582 127.776 140.556 129.289 135.866C130.803 131.176 133.022 126.914 135.82 123.324C138.619 119.734 141.941 116.886 145.599 114.943C149.256 113 153.175 112 157.134 112Z" fill="#5F5F5F" fill-opacity="0.1"/>
<path opacity="0.27" d="M473.504 112H157.496C141.206 112 128 128.963 128 149.888V346.112C128 367.037 141.206 384 157.496 384H473.504C489.794 384 503 367.037 503 346.112V149.888C503 128.963 489.794 112 473.504 112Z" fill="#5F5F5F" fill-opacity="0.1"/>
<path opacity="0.29" d="M473.983 113H158.018C141.992 113 129 129.691 129 150.281V346.719C129 367.309 141.992 384 158.018 384H473.983C490.008 384 503 367.309 503 346.719V150.281C503 129.691 490.008 113 473.983 113Z" fill="#5F5F5F" fill-opacity="0.1"/>
<path opacity="0.31" d="M474.463 113H158.537C142.776 113 130 129.417 130 149.668V346.332C130 366.583 142.776 383 158.537 383H474.463C490.224 383 503 366.583 503 346.332V149.668C503 129.417 490.224 113 474.463 113Z" fill="#5F5F5F" fill-opacity="0.1"/>
<path opacity="0.33" d="M473.097 114H158.903C143.493 114 131 130.083 131 149.922V346.078C131 365.917 143.493 382 158.903 382H473.097C488.507 382 501 365.917 501 346.078V149.922C501 130.083 488.507 114 473.097 114Z" fill="#5F5F5F" fill-opacity="0.1"/>
<path opacity="0.35" d="M472.654 115H159.346C144.243 115 132 130.808 132 150.309V346.691C132 366.192 144.243 382 159.346 382H472.654C487.757 382 500 366.192 500 346.691V150.309C500 130.808 487.757 115 472.654 115Z" fill="#5F5F5F" fill-opacity="0.1"/>
<path opacity="0.37" d="M473.153 115H159.847C145.02 115 133 130.464 133 149.539V345.461C133 364.536 145.02 380 159.847 380H473.153C487.98 380 500 364.536 500 345.461V149.539C500 130.464 487.98 115 473.153 115Z" fill="#5F5F5F" fill-opacity="0.1"/>
<path opacity="0.39" d="M471.782 116H160.218C145.738 116 134 131.188 134 149.923V346.077C134 364.812 145.738 380 160.218 380H471.782C486.262 380 498 364.812 498 346.077V149.923C498 131.188 486.262 116 471.782 116Z" fill="#5F5F5F" fill-opacity="0.1"/>
<path opacity="0.41" d="M471.338 118H160.662C146.489 118 135 132.854 135 151.177V346.823C135 365.146 146.489 380 160.662 380H471.338C485.511 380 497 365.146 497 346.823V151.177C497 132.854 485.511 118 471.338 118Z" fill="#5F5F5F" fill-opacity="0.1"/>
<path opacity="0.43" d="M471.824 119H161.176C147.271 119 136 133.463 136 151.305V345.695C136 363.537 147.271 378 161.176 378H471.824C485.729 378 497 363.537 497 345.695V151.305C497 133.463 485.729 119 471.824 119Z" fill="#5F5F5F" fill-opacity="0.1"/>
<path opacity="0.45" d="M471.381 120H161.619C148.022 120 137 134.186 137 151.686V346.314C137 363.814 148.022 378 161.619 378H471.381C484.978 378 496 363.814 496 346.314V151.686C496 134.186 484.978 120 471.381 120Z" fill="#5F5F5F" fill-opacity="0.1"/>
<path opacity="0.47" d="M470.072 121H162.928C149.713 121 139 134.853 139 151.942V346.058C139 363.147 149.713 377 162.928 377H470.072C483.287 377 494 363.147 494 346.058V151.942C494 134.853 483.287 121 470.072 121Z" fill="#5F5F5F" fill-opacity="0.1"/>
<path opacity="0.49" d="M469.576 121H162.424C149.487 121 139 134.512 139 151.18V344.82C139 361.488 149.487 375 162.424 375H469.576C482.513 375 493 361.488 493 344.82V151.18C493 134.512 482.513 121 469.576 121Z" fill="#5F5F5F" fill-opacity="0.1"/>
<path opacity="0.51" d="M468.195 123H162.804C150.21 123 140 136.181 140 152.44V345.56C140 361.819 150.21 375 162.804 375H468.195C480.79 375 491 361.819 491 345.56V152.44C491 136.181 480.79 123 468.195 123Z" fill="#5F5F5F" fill-opacity="0.1"/>
<path opacity="0.53" d="M468.686 124H163.314C150.99 124 141 136.849 141 152.699V345.301C141 361.151 150.99 374 163.314 374H468.686C481.01 374 491 361.151 491 345.301V152.699C491 136.849 481.01 124 468.686 124Z" fill="#5F5F5F" fill-opacity="0.1"/>
<path opacity="0.55" d="M469.177 125H163.823C151.77 125 142 137.519 142 152.962V345.038C142 360.481 151.77 373 163.823 373H469.177C481.23 373 491 360.481 491 345.038V152.962C491 137.519 481.23 125 469.177 125Z" fill="#5F5F5F" fill-opacity="0.1"/>
<path opacity="0.57" d="M467.794 126H164.206C152.494 126 143 138.239 143 153.336V345.664C143 360.761 152.494 373 164.206 373H467.794C479.506 373 489 360.761 489 345.664V153.336C489 138.239 479.506 126 467.794 126Z" fill="#5F5F5F" fill-opacity="0.1"/>
<path opacity="0.59" d="M467.363 126H164.637C153.239 126 144 137.899 144 152.576V344.424C144 359.101 153.239 371 164.637 371H467.363C478.761 371 488 359.101 488 344.424V152.576C488 137.899 478.761 126 467.363 126Z" fill="#5F5F5F" fill-opacity="0.1"/>
<path opacity="0.61" d="M466.916 127H165.084C153.992 127 145 138.617 145 152.947V345.053C145 359.383 153.992 371 165.084 371H466.916C478.008 371 487 359.383 487 345.053V152.947C487 138.617 478.008 127 466.916 127Z" fill="#5F5F5F" fill-opacity="0.1"/>
<path opacity="0.63" d="M466.469 128H165.531C154.744 128 146 139.287 146 153.211V344.789C146 358.713 154.744 370 165.531 370H466.469C477.256 370 486 358.713 486 344.789V153.211C486 139.287 477.256 128 466.469 128Z" fill="#5F5F5F" fill-opacity="0.1"/>
<path opacity="0.65" d="M466.022 128H165.978C155.497 128 147 139.003 147 152.576V344.424C147 357.997 155.497 369 165.978 369H466.022C476.503 369 485 357.997 485 344.424V152.576C485 139.003 476.503 128 466.022 128Z" fill="#5F5F5F" fill-opacity="0.1"/>
<path opacity="0.67" d="M466.519 129H166.481C156.274 129 148 139.718 148 152.94V345.06C148 358.282 156.274 369 166.481 369H466.519C476.726 369 485 358.282 485 345.06V152.94C485 139.718 476.726 129 466.519 129Z" fill="#5F5F5F" fill-opacity="0.1"/>
<path opacity="0.69" d="M466.072 129H166.928C157.027 129 149 139.345 149 152.105V342.895C149 355.655 157.027 366 166.928 366H466.072C475.973 366 484 355.655 484 342.895V152.105C484 139.345 475.973 129 466.072 129Z" fill="#5F5F5F" fill-opacity="0.1"/>
<path opacity="0.71" d="M465.641 131H167.359C157.772 131 150 140.964 150 153.254V342.746C150 355.036 157.772 365 167.359 365H465.641C475.228 365 483 355.036 483 342.746V153.254C483 140.964 475.228 131 465.641 131Z" fill="#5F5F5F" fill-opacity="0.1"/>
<path opacity="0.73" d="M465.194 132H167.806C158.524 132 151 141.679 151 153.618V343.382C151 355.321 158.524 365 167.806 365H465.194C474.476 365 482 355.321 482 343.382V153.618C482 141.679 474.476 132 465.194 132Z" fill="#5F5F5F" fill-opacity="0.1"/>
<path opacity="0.75" d="M463.746 133H167.254C158.277 133 151 142.352 151 153.887V343.113C151 354.648 158.277 364 167.254 364H463.746C472.723 364 480 354.648 480 343.113V153.887C480 142.352 472.723 133 463.746 133Z" fill="#5F5F5F" fill-opacity="0.1"/>
<path opacity="0.76" d="M464.25 134H167.75C159.052 134 152 143.064 152 154.245V343.755C152 354.936 159.052 364 167.75 364H464.25C472.948 364 480 354.936 480 343.755V154.245C480 143.064 472.948 134 464.25 134Z" fill="#5F5F5F" fill-opacity="0.1"/>
<path opacity="0.78" d="M464.756 135H168.244C159.825 135 153 143.776 153 154.601V344.399C153 355.224 159.825 364 168.244 364H464.756C473.175 364 480 355.224 480 344.399V154.601C480 143.776 473.175 135 464.756 135Z" fill="#5F5F5F" fill-opacity="0.1"/>
<path opacity="0.8" d="M168.628 135H463.356C467.24 135 470.965 136.988 473.711 140.526C476.457 144.064 478 148.863 478 153.867V343.133C478 348.137 476.457 352.936 473.711 356.474C470.965 360.012 467.24 362 463.356 362H168.628C164.748 362 161.028 360.014 158.284 356.48C155.541 352.946 154 348.152 154 343.154V153.846C154.004 148.849 155.547 144.059 158.289 140.526C161.031 136.993 164.75 135.005 168.628 135Z" fill="#5F5F5F" fill-opacity="0.1"/>
<path opacity="0.82" d="M462.924 136H169.076C161.302 136 155 144.148 155 154.199V343.801C155 353.852 161.302 362 169.076 362H462.924C470.698 362 477 353.852 477 343.801V154.199C477 144.148 470.698 136 462.924 136Z" fill="#5F5F5F" fill-opacity="0.1"/>
<path opacity="0.84" d="M462.476 137H169.524C162.055 137 156 144.821 156 154.469V343.531C156 353.179 162.055 361 169.524 361H462.476C469.945 361 476 353.179 476 343.531V154.469C476 144.821 469.945 137 462.476 137Z" fill="#5F5F5F" fill-opacity="0.1"/>
<path opacity="0.86" d="M462.028 138H169.972C162.808 138 157 145.494 157 154.739V343.261C157 352.506 162.808 360 169.972 360H462.028C469.192 360 475 352.506 475 343.261V154.739C475 145.494 469.192 138 462.028 138Z" fill="#5F5F5F" fill-opacity="0.1"/>
<path opacity="0.88" d="M461.579 139H170.421C163.561 139 158 146.201 158 155.084V343.916C158 352.799 163.561 360 170.421 360H461.579C468.439 360 474 352.799 474 343.916V155.084C474 146.201 468.439 139 461.579 139Z" fill="#5F5F5F" fill-opacity="0.1"/>
<path opacity="0.9" d="M462.092 139H170.908C164.331 139 159 145.875 159 154.356V342.644C159 351.125 164.331 358 170.908 358H462.092C468.669 358 474 351.125 474 342.644V154.356C474 145.875 468.669 139 462.092 139Z" fill="#5F5F5F" fill-opacity="0.1"/>
<path opacity="0.92" d="M461.66 140H171.34C165.077 140 160 146.57 160 154.675V343.325C160 351.43 165.077 358 171.34 358H461.66C467.923 358 473 351.43 473 343.325V154.675C473 146.57 467.923 140 461.66 140Z" fill="#5F5F5F" fill-opacity="0.1"/>
<path opacity="0.94" d="M461.212 141H171.788C165.83 141 161 147.245 161 154.948V343.052C161 350.755 165.83 357 171.788 357H461.212C467.17 357 472 350.755 472 343.052V154.948C472 147.245 467.17 141 461.212 141Z" fill="#5F5F5F" fill-opacity="0.1"/>
<path opacity="0.96" d="M460.763 143H172.237C166.583 143 162 148.892 162 156.16V342.84C162 350.108 166.583 356 172.237 356H460.763C466.417 356 471 350.108 471 342.84V156.16C471 148.892 466.417 143 460.763 143Z" fill="#5F5F5F" fill-opacity="0.1"/>
<path opacity="0.98" d="M459.314 143H171.686C166.336 143 162 148.621 162 155.555V343.445C162 350.379 166.336 356 171.686 356H459.314C464.664 356 469 350.379 469 343.445V155.555C469 148.621 464.664 143 459.314 143Z" fill="#5F5F5F" fill-opacity="0.1"/>
<path d="M86 44.3363V225.699C86.014 230.024 87.7399 234.168 90.8 237.223C93.86 240.278 98.005 241.995 102.328 242H326.654C330.99 242 335.147 240.277 338.213 237.21C341.278 234.143 343 229.983 343 225.646V44.3363C343 42.1895 342.577 40.0637 341.755 38.0806C340.934 36.0974 339.729 34.2957 338.211 32.7785C336.693 31.2613 334.891 30.0584 332.908 29.2385C330.925 28.4185 328.8 27.9977 326.654 28H102.328C97.9974 28 93.8444 29.7211 90.7823 32.7848C87.7202 35.8484 86 40.0036 86 44.3363ZM326.884 233.717H102.116C100.511 233.717 98.9722 233.079 97.8376 231.944C96.703 230.809 96.0656 229.269 96.0656 227.664V42.4248C96.0656 40.8194 96.703 39.2798 97.8376 38.1446C98.9722 37.0094 100.511 36.3717 102.116 36.3717H326.884C328.489 36.3717 330.028 37.0094 331.162 38.1446C332.297 39.2798 332.934 40.8194 332.934 42.4248V227.611C332.934 229.216 332.297 230.756 331.162 231.891C330.028 233.026 328.489 233.664 326.884 233.664V233.717Z" fill="#FADB96"/>
<rect x="116" y="103" width="382" height="273" rx="46" fill="#F3F3F3"/>
<path d="M508 98.953V100H128V98.953C128 92.3351 130.661 85.9882 135.397 81.3086C140.132 76.629 146.556 74 153.253 74H482.747C489.444 74 495.868 76.629 500.603 81.3086C505.339 85.9882 508 92.3351 508 98.953Z" fill="#6E52FF"/>
<path d="M184.456 151H138.561C137.832 151.002 137.109 150.862 136.434 150.586C135.76 150.311 135.147 149.906 134.63 149.395C134.113 148.884 133.703 148.277 133.424 147.609C133.144 146.94 133 146.224 133 145.5C133 144.776 133.144 144.06 133.424 143.391C133.703 142.723 134.113 142.116 134.63 141.605C135.147 141.094 135.76 140.689 136.434 140.414C137.109 140.138 137.832 139.998 138.561 140H184.456C185.927 140 187.337 140.579 188.376 141.611C189.416 142.642 190 144.041 190 145.5C190 146.959 189.416 148.358 188.376 149.389C187.337 150.421 185.927 151 184.456 151Z" fill="#FFB450"/>
<path d="M352.717 150H332.301C331.868 150.002 331.439 149.926 331.039 149.776C330.639 149.627 330.275 149.406 329.968 149.127C329.661 148.848 329.418 148.517 329.252 148.152C329.085 147.787 329 147.395 329 147C329 146.605 329.085 146.213 329.252 145.848C329.418 145.483 329.661 145.152 329.968 144.873C330.275 144.594 330.639 144.373 331.039 144.224C331.439 144.074 331.868 143.998 332.301 144H352.717C353.588 144 354.423 144.316 355.038 144.879C355.654 145.441 356 146.204 356 147C356 147.796 355.654 148.559 355.038 149.121C354.423 149.684 353.588 150 352.717 150Z" fill="url(#paint0_linear_1367_17)"/>
<path d="M390.699 150H370.283C369.412 150 368.577 149.684 367.962 149.121C367.346 148.559 367 147.796 367 147C367 146.204 367.346 145.441 367.962 144.879C368.577 144.316 369.412 144 370.283 144H390.699C391.132 143.998 391.561 144.074 391.961 144.224C392.361 144.373 392.725 144.594 393.032 144.873C393.339 145.152 393.582 145.483 393.748 145.848C393.915 146.213 394 146.605 394 147C394 147.395 393.915 147.787 393.748 148.152C393.582 148.517 393.339 148.848 393.032 149.127C392.725 149.406 392.361 149.627 391.961 149.776C391.561 149.926 391.132 150.002 390.699 150Z" fill="url(#paint1_linear_1367_17)"/>
<path d="M429.717 150H409.301C408.868 150.002 408.439 149.926 408.039 149.776C407.639 149.627 407.275 149.406 406.968 149.127C406.661 148.848 406.418 148.517 406.252 148.152C406.085 147.787 406 147.395 406 147C406 146.605 406.085 146.213 406.252 145.848C406.418 145.483 406.661 145.152 406.968 144.873C407.275 144.594 407.639 144.373 408.039 144.224C408.439 144.074 408.868 143.998 409.301 144H429.717C430.588 144 431.423 144.316 432.038 144.879C432.654 145.441 433 146.204 433 147C433 147.796 432.654 148.559 432.038 149.121C431.423 149.684 430.588 150 429.717 150Z" fill="url(#paint2_linear_1367_17)"/>
<path d="M467.771 150H447.283C446.412 150 445.577 149.68 444.962 149.112C444.346 148.543 444 147.771 444 146.967C444.019 146.174 444.373 145.419 444.987 144.865C445.6 144.31 446.425 144 447.283 144H467.699C468.132 143.998 468.56 144.075 468.961 144.226C469.361 144.378 469.725 144.601 470.032 144.883C470.339 145.164 470.582 145.5 470.748 145.869C470.914 146.238 471 146.633 471 147.033C470.982 147.818 470.635 148.565 470.033 149.118C469.431 149.671 468.62 149.987 467.771 150Z" fill="url(#paint3_linear_1367_17)"/>
<path d="M427.046 185H342.954C341.323 185 340 186.318 340 187.944V198.056C340 199.682 341.323 201 342.954 201H427.046C428.677 201 430 199.682 430 198.056V187.944C430 186.318 428.677 185 427.046 185Z" fill="url(#paint4_linear_1367_17)"/>
<path d="M403.146 220H342.853C342.098 219.995 341.375 219.679 340.841 219.119C340.307 218.559 340.005 217.801 340 217.009C340 216.214 340.3 215.452 340.835 214.888C341.369 214.324 342.095 214.005 342.853 214H403.146C403.523 214 403.895 214.078 404.243 214.229C404.59 214.381 404.905 214.603 405.17 214.882C405.436 215.162 405.645 215.494 405.788 215.859C405.93 216.224 406.002 216.615 406 217.009C406 217.802 405.699 218.563 405.164 219.124C404.629 219.685 403.903 220 403.146 220Z" fill="url(#paint5_linear_1367_17)"/>
<path d="M464.131 234H342.869C342.109 233.995 341.382 233.679 340.845 233.119C340.308 232.559 340.005 231.801 340 231.009C340 230.214 340.302 229.452 340.839 228.888C341.377 228.324 342.106 228.005 342.869 228H464.131C464.51 228 464.884 228.078 465.233 228.229C465.582 228.381 465.899 228.603 466.166 228.882C466.433 229.162 466.644 229.494 466.787 229.859C466.93 230.224 467.002 230.615 467 231.009C467 231.802 466.698 232.563 466.16 233.124C465.622 233.685 464.892 234 464.131 234Z" fill="url(#paint6_linear_1367_17)"/>
<path d="M464.131 248H342.869C342.106 247.995 341.377 247.676 340.839 247.112C340.302 246.548 340 245.786 340 244.991C340.005 244.199 340.308 243.441 340.845 242.881C341.382 242.321 342.109 242.005 342.869 242H464.131C464.892 242 465.622 242.315 466.16 242.876C466.698 243.437 467 244.198 467 244.991C467.002 245.385 466.93 245.776 466.787 246.141C466.644 246.506 466.433 246.838 466.166 247.118C465.899 247.397 465.582 247.619 465.233 247.771C464.884 247.922 464.51 248 464.131 248Z" fill="url(#paint7_linear_1367_17)"/>
<path d="M464.131 262H342.869C342.106 261.995 341.377 261.676 340.839 261.112C340.302 260.548 340 259.786 340 258.991C340.005 258.199 340.308 257.441 340.845 256.881C341.382 256.321 342.109 256.005 342.869 256H464.131C464.892 256 465.622 256.315 466.16 256.876C466.698 257.437 467 258.198 467 258.991C467.002 259.385 466.93 259.776 466.787 260.141C466.644 260.506 466.433 260.838 466.166 261.118C465.899 261.397 465.582 261.619 465.233 261.771C464.884 261.922 464.51 262 464.131 262Z" fill="url(#paint8_linear_1367_17)"/>
<path d="M380.793 291H346.207C345.392 291 344.585 290.845 343.832 290.543C343.079 290.242 342.394 289.8 341.818 289.243C341.242 288.685 340.784 288.024 340.472 287.296C340.161 286.568 340 285.788 340 285C340 284.212 340.161 283.432 340.472 282.704C340.784 281.976 341.242 281.314 341.818 280.757C342.394 280.2 343.079 279.758 343.832 279.457C344.585 279.155 345.392 279 346.207 279H380.793C382.439 279 384.018 279.632 385.182 280.757C386.346 281.883 387 283.409 387 285C387 285.788 386.839 286.568 386.528 287.296C386.216 288.024 385.758 288.685 385.182 289.243C384.606 289.8 383.921 290.242 383.168 290.543C382.415 290.845 381.608 291 380.793 291Z" fill="#FFB450"/>
<path d="M397 348.7V376H219V348.7C219 347.95 219.15 347.208 219.441 346.515C219.733 345.822 220.159 345.193 220.698 344.663C221.236 344.134 221.874 343.714 222.577 343.429C223.279 343.143 224.032 342.998 224.792 343H391.208C391.968 342.998 392.721 343.143 393.423 343.429C394.126 343.714 394.764 344.134 395.302 344.663C395.841 345.193 396.267 345.822 396.559 346.515C396.85 347.208 397 347.95 397 348.7Z" fill="#8D77FF"/>
<path d="M441 119.481C441.004 120.174 440.802 120.853 440.419 121.431C440.037 122.009 439.492 122.46 438.852 122.728C438.213 122.996 437.509 123.068 436.829 122.935C436.149 122.802 435.523 122.47 435.032 121.982C434.54 121.493 434.205 120.869 434.069 120.19C433.932 119.51 434 118.806 434.265 118.165C434.529 117.524 434.978 116.977 435.554 116.591C436.13 116.206 436.807 116 437.5 116C438.425 116 439.312 116.366 439.968 117.018C440.624 117.671 440.995 118.556 441 119.481Z" fill="#FFB450"/>
<path d="M459 119.481C459.004 120.175 458.801 120.854 458.418 121.433C458.035 122.011 457.488 122.463 456.848 122.73C456.208 122.997 455.502 123.068 454.822 122.934C454.141 122.799 453.516 122.465 453.025 121.975C452.535 121.484 452.201 120.859 452.066 120.178C451.932 119.498 452.003 118.792 452.27 118.152C452.537 117.512 452.989 116.965 453.567 116.582C454.146 116.199 454.825 115.996 455.519 116C456.442 116 457.327 116.367 457.98 117.02C458.633 117.673 459 118.558 459 119.481Z" fill="#FFB450"/>
<path d="M476 119.501C476 120.19 475.796 120.863 475.415 121.437C475.034 122.011 474.491 122.46 473.856 122.727C473.221 122.994 472.521 123.067 471.844 122.938C471.168 122.809 470.544 122.483 470.052 122.001C469.559 121.519 469.22 120.902 469.077 120.229C468.933 119.555 468.992 118.853 469.245 118.213C469.499 117.572 469.936 117.02 470.501 116.627C471.067 116.233 471.736 116.016 472.425 116.001C472.891 115.991 473.354 116.074 473.787 116.245C474.221 116.417 474.615 116.673 474.948 116.999C475.281 117.325 475.546 117.714 475.727 118.144C475.907 118.573 476 119.035 476 119.501Z" fill="#FFB450"/>
<g style="mix-blend-mode:multiply">
<path d="M194.436 95H48.564C46.0434 95 44 97.0341 44 99.5432V208.457C44 210.966 46.0434 213 48.564 213H194.436C196.957 213 199 210.966 199 208.457V99.5432C199 97.0341 196.957 95 194.436 95Z" fill="#E9E1F4"/>
</g>
<rect x="27" y="82" width="154" height="115" rx="23" fill="#FF9E74"/>
<g style="mix-blend-mode:multiply">
<path d="M539.073 189H454.927C453.31 189 452 190.308 452 191.921V306.079C452 307.692 453.31 309 454.927 309H539.073C540.69 309 542 307.692 542 306.079V191.921C542 190.308 540.69 189 539.073 189Z" fill="#E9E1F4"/>
</g>
<rect x="466" y="175" width="90" height="121" rx="18" fill="#4C3EDB"/>
<path d="M541 189H482V197H541V189Z" fill="#9A90FC"/>
<path d="M524.486 284H499.496C498.904 284 498.318 283.883 497.772 283.656C497.225 283.43 496.728 283.097 496.311 282.678C495.893 282.259 495.562 281.762 495.337 281.215C495.112 280.668 494.998 280.082 495 279.491C495 278.3 495.474 277.158 496.317 276.315C497.16 275.473 498.304 275 499.496 275H524.486C525.078 274.998 525.664 275.112 526.212 275.337C526.76 275.561 527.257 275.892 527.677 276.309C528.096 276.726 528.429 277.222 528.656 277.768C528.883 278.314 529 278.9 529 279.491C529 280.687 528.524 281.834 527.678 282.679C526.831 283.525 525.683 284 524.486 284Z" fill="#FFCC4D"/>
<path d="M512.293 209H488.707C487.764 209 487 209.824 487 210.84V211.16C487 212.176 487.764 213 488.707 213H512.293C513.236 213 514 212.176 514 211.16V210.84C514 209.824 513.236 209 512.293 209Z" fill="#9A90FC"/>
<path d="M543.278 218H488.722C487.771 218 487 218.824 487 219.84V220.16C487 221.176 487.771 222 488.722 222H543.278C544.229 222 545 221.176 545 220.16V219.84C545 218.824 544.229 218 543.278 218Z" fill="#9A90FC"/>
<path d="M543.278 227H488.722C487.771 227 487 227.824 487 228.84V229.16C487 230.176 487.771 231 488.722 231H543.278C544.229 231 545 230.176 545 229.16V228.84C545 227.824 544.229 227 543.278 227Z" fill="#9A90FC"/>
<path d="M478 210.981C478.004 211.378 477.889 211.766 477.672 212.098C477.454 212.429 477.143 212.688 476.778 212.842C476.413 212.997 476.01 213.039 475.621 212.964C475.232 212.889 474.874 212.7 474.592 212.421C474.311 212.142 474.119 211.786 474.04 211.397C473.961 211.009 474 210.606 474.15 210.239C474.301 209.873 474.558 209.559 474.887 209.338C475.216 209.118 475.604 209 476 209C476.262 208.998 476.521 209.047 476.764 209.145C477.006 209.244 477.227 209.39 477.413 209.574C477.599 209.758 477.747 209.977 477.847 210.219C477.948 210.46 478 210.72 478 210.981Z" fill="#9A90FC"/>
<path d="M512.293 239H488.707C487.764 239 487 239.824 487 240.84V241.16C487 242.176 487.764 243 488.707 243H512.293C513.236 243 514 242.176 514 241.16V240.84C514 239.824 513.236 239 512.293 239Z" fill="#9A90FC"/>
<path d="M543.278 249H488.722C487.771 249 487 249.824 487 250.84V251.16C487 252.176 487.771 253 488.722 253H543.278C544.229 253 545 252.176 545 251.16V250.84C545 249.824 544.229 249 543.278 249Z" fill="#9A90FC"/>
<path d="M543.278 258H488.722C487.771 258 487 258.824 487 259.84V260.16C487 261.176 487.771 262 488.722 262H543.278C544.229 262 545 261.176 545 260.16V259.84C545 258.824 544.229 258 543.278 258Z" fill="#9A90FC"/>
<path d="M478 240.981C478.004 241.378 477.889 241.766 477.672 242.098C477.454 242.429 477.143 242.688 476.778 242.842C476.413 242.997 476.01 243.039 475.621 242.964C475.232 242.889 474.874 242.7 474.592 242.421C474.311 242.142 474.119 241.786 474.04 241.397C473.961 241.009 474 240.606 474.15 240.239C474.301 239.873 474.558 239.559 474.887 239.338C475.216 239.118 475.604 239 476 239C476.262 238.998 476.521 239.047 476.764 239.145C477.006 239.244 477.227 239.389 477.413 239.574C477.599 239.758 477.747 239.977 477.847 240.219C477.948 240.46 478 240.72 478 240.981Z" fill="#9A90FC"/>
<g style="mix-blend-mode:multiply">
<path d="M408.9 9H299.1C295.179 9 292 12.1703 292 16.0812V90.9188C292 94.8297 295.179 98 299.1 98H408.9C412.821 98 416 94.8297 416 90.9188V16.0812C416 12.1703 412.821 9 408.9 9Z" fill="#E9E1F4"/>
</g>
<path d="M283 22C283 9.84974 292.85 0 305 0H384C396.15 0 406 9.84974 406 22V79C406 84.5229 401.523 89 396 89H294C287.925 89 283 84.0751 283 78V22Z" fill="#7B60FF"/>
<g style="mix-blend-mode:multiply">
<path d="M139.019 323H54.9808C50.0208 323 46 327.021 46 331.982V399.018C46 403.979 50.0208 408 54.9808 408H139.019C143.979 408 148 403.979 148 399.018V331.982C148 327.021 143.979 323 139.019 323Z" fill="#E9E1F4"/>
</g>
<rect x="34" y="310" width="103" height="86" rx="23" fill="#FCFAFF"/>
<g style="mix-blend-mode:multiply">
<path d="M345.111 328H407.649L424 344.408V430.482C423.995 431.152 423.725 431.792 423.248 432.264C422.771 432.735 422.127 433 421.455 433H344.528C343.857 433 343.214 432.735 342.74 432.263C342.266 431.79 342 431.15 342 430.482V331.081C342 330.675 342.081 330.273 342.237 329.898C342.394 329.523 342.623 329.183 342.912 328.896C343.201 328.61 343.544 328.383 343.922 328.229C344.299 328.076 344.703 327.998 345.111 328Z" fill="#E9E1F4"/>
</g>
<path d="M398 318V332.091C398 332.862 398.292 333.602 398.811 334.148C399.33 334.694 400.034 335 400.768 335H414L398 318Z" fill="#FFE7B0"/>
<path d="M66.5 263C65.8078 263 65.1311 262.795 64.5555 262.41C63.9799 262.026 63.5313 261.479 63.2664 260.839C63.0015 260.2 62.9322 259.496 63.0673 258.817C63.2023 258.138 63.5356 257.515 64.0251 257.025C64.5146 256.536 65.1383 256.202 65.8172 256.067C66.4961 255.932 67.1999 256.002 67.8394 256.266C68.4789 256.531 69.0256 256.98 69.4101 257.556C69.7947 258.131 70 258.808 70 259.5C70 260.428 69.6312 261.318 68.9749 261.975C68.3185 262.631 67.4283 263 66.5 263Z" fill="#A6A4F7"/>
<path d="M50.5 263C49.8078 263 49.1311 262.795 48.5555 262.41C47.9799 262.026 47.5313 261.479 47.2664 260.839C47.0015 260.2 46.9322 259.496 47.0673 258.817C47.2023 258.138 47.5356 257.515 48.0251 257.025C48.5146 256.536 49.1382 256.202 49.8172 256.067C50.4961 255.932 51.1999 256.002 51.8394 256.266C52.4789 256.531 53.0256 256.98 53.4101 257.556C53.7947 258.131 54 258.808 54 259.5C54 260.428 53.6313 261.318 52.9749 261.975C52.3185 262.631 51.4283 263 50.5 263Z" fill="#A6A4F7"/>
<path d="M34.5 263C33.8078 263 33.1311 262.795 32.5555 262.41C31.9799 262.026 31.5313 261.479 31.2664 260.839C31.0015 260.2 30.9322 259.496 31.0673 258.817C31.2023 258.138 31.5356 257.515 32.0251 257.025C32.5146 256.536 33.1383 256.202 33.8172 256.067C34.4961 255.932 35.1999 256.002 35.8394 256.266C36.4789 256.531 37.0256 256.98 37.4101 257.556C37.7947 258.131 38 258.808 38 259.5C38 260.428 37.6313 261.318 36.9749 261.975C36.3185 262.631 35.4283 263 34.5 263Z" fill="#A6A4F7"/>
<path d="M19.5 263C18.8078 263 18.1311 262.795 17.5555 262.41C16.9799 262.026 16.5313 261.479 16.2664 260.839C16.0015 260.2 15.9322 259.496 16.0673 258.817C16.2023 258.138 16.5356 257.515 17.0251 257.025C17.5146 256.536 18.1383 256.202 18.8172 256.067C19.4961 255.932 20.1999 256.002 20.8394 256.266C21.4789 256.531 22.0256 256.98 22.4101 257.556C22.7947 258.131 23 258.808 23 259.5C23 260.428 22.6313 261.318 21.9749 261.975C21.3185 262.631 20.4283 263 19.5 263Z" fill="#A6A4F7"/>
<path d="M3.5 263C2.80777 263 2.13108 262.795 1.55551 262.41C0.979934 262.026 0.53133 261.479 0.266423 260.839C0.0015165 260.2 -0.0677952 259.496 0.0672531 258.817C0.202301 258.138 0.535644 257.515 1.02513 257.025C1.51461 256.536 2.13825 256.202 2.81718 256.067C3.49612 255.932 4.19985 256.002 4.83939 256.266C5.47893 256.531 6.02556 256.98 6.41014 257.556C6.79473 258.131 7 258.808 7 259.5C7 260.428 6.63125 261.318 5.97487 261.975C5.3185 262.631 4.42826 263 3.5 263Z" fill="#A6A4F7"/>
<path d="M76.5 277C75.8078 277 75.1311 276.795 74.5555 276.41C73.9799 276.026 73.5313 275.479 73.2664 274.839C73.0015 274.2 72.9322 273.496 73.0673 272.817C73.2023 272.138 73.5356 271.515 74.0251 271.025C74.5146 270.536 75.1383 270.202 75.8172 270.067C76.4961 269.932 77.1999 270.002 77.8394 270.266C78.4789 270.531 79.0256 270.98 79.4101 271.556C79.7947 272.131 80 272.808 80 273.5C80 274.428 79.6313 275.318 78.9749 275.975C78.3185 276.631 77.4283 277 76.5 277Z" fill="#A6A4F7"/>
<path d="M60.5 277C59.8078 277 59.1311 276.795 58.5555 276.41C57.9799 276.026 57.5313 275.479 57.2664 274.839C57.0015 274.2 56.9322 273.496 57.0673 272.817C57.2023 272.138 57.5356 271.515 58.0251 271.025C58.5146 270.536 59.1382 270.202 59.8172 270.067C60.4961 269.932 61.1998 270.002 61.8394 270.266C62.4789 270.531 63.0256 270.98 63.4101 271.556C63.7947 272.131 64 272.808 64 273.5C64 274.428 63.6313 275.318 62.9749 275.975C62.3185 276.631 61.4283 277 60.5 277Z" fill="#A6A4F7"/>
<path d="M44.5 277C43.8078 277 43.1311 276.795 42.5555 276.41C41.9799 276.026 41.5313 275.479 41.2664 274.839C41.0015 274.2 40.9322 273.496 41.0673 272.817C41.2023 272.138 41.5356 271.515 42.0251 271.025C42.5146 270.536 43.1383 270.202 43.8172 270.067C44.4961 269.932 45.1999 270.002 45.8394 270.266C46.4789 270.531 47.0256 270.98 47.4101 271.556C47.7947 272.131 48 272.808 48 273.5C48 274.428 47.6313 275.318 46.9749 275.975C46.3185 276.631 45.4283 277 44.5 277Z" fill="#A6A4F7"/>
<path d="M29.5 277C31.433 277 33 275.433 33 273.5C33 271.567 31.433 270 29.5 270C27.567 270 26 271.567 26 273.5C26 275.433 27.567 277 29.5 277Z" fill="#A6A4F7"/>
<path d="M13.5 277C15.433 277 17 275.433 17 273.5C17 271.567 15.433 270 13.5 270C11.567 270 10 271.567 10 273.5C10 275.433 11.567 277 13.5 277Z" fill="#A6A4F7"/>
<path d="M85.5 291C87.433 291 89 289.433 89 287.5C89 285.567 87.433 284 85.5 284C83.567 284 82 285.567 82 287.5C82 289.433 83.567 291 85.5 291Z" fill="#A6A4F7"/>
<path d="M69.5 291C71.433 291 73 289.433 73 287.5C73 285.567 71.433 284 69.5 284C67.567 284 66 285.567 66 287.5C66 289.433 67.567 291 69.5 291Z" fill="#A6A4F7"/>
<path d="M433 351C425.682 351 418.529 353.17 412.444 357.236C406.359 361.301 401.617 367.08 398.816 373.841C396.016 380.602 395.283 388.041 396.711 395.218C398.139 402.396 401.662 408.988 406.837 414.163C412.012 419.337 418.604 422.861 425.782 424.289C432.959 425.717 440.398 424.984 447.159 422.184C453.92 419.383 459.699 414.641 463.764 408.556C467.83 402.471 470 395.318 470 388C470.002 383.14 469.047 378.328 467.188 373.838C465.33 369.348 462.604 365.268 459.168 361.832C455.732 358.396 451.652 355.67 447.162 353.812C442.672 351.953 437.86 350.998 433 351ZM433 415.781C427.501 415.781 422.126 414.15 417.554 411.095C412.982 408.039 409.419 403.697 407.316 398.616C405.212 393.536 404.663 387.945 405.737 382.553C406.811 377.16 409.46 372.206 413.35 368.319C417.239 364.432 422.194 361.786 427.588 360.716C432.981 359.645 438.571 360.198 443.65 362.305C448.73 364.411 453.07 367.977 456.122 372.551C459.175 377.125 460.802 382.501 460.799 388C460.794 395.37 457.863 402.436 452.65 407.645C447.438 412.855 440.37 415.781 433 415.781Z" fill="#FF9E74"/>
<path d="M53.5 291C52.8078 291 52.1311 290.795 51.5555 290.41C50.9799 290.026 50.5313 289.479 50.2664 288.839C50.0015 288.2 49.9322 287.496 50.0673 286.817C50.2023 286.138 50.5356 285.515 51.0251 285.025C51.5146 284.536 52.1383 284.202 52.8172 284.067C53.4961 283.932 54.1999 284.002 54.8394 284.266C55.4789 284.531 56.0256 284.98 56.4101 285.555C56.7947 286.131 57 286.808 57 287.5C57 288.428 56.6313 289.318 55.9749 289.975C55.3185 290.631 54.4283 291 53.5 291Z" fill="#A6A4F7"/>
<path d="M38.5 291C37.8078 291 37.1311 290.795 36.5555 290.41C35.9799 290.026 35.5313 289.479 35.2664 288.839C35.0015 288.2 34.9322 287.496 35.0673 286.817C35.2023 286.138 35.5356 285.515 36.0251 285.025C36.5146 284.536 37.1382 284.202 37.8172 284.067C38.4961 283.932 39.1999 284.002 39.8394 284.266C40.4789 284.531 41.0256 284.98 41.4101 285.555C41.7947 286.131 42 286.808 42 287.5C42 288.428 41.6313 289.318 40.9749 289.975C40.3185 290.631 39.4283 291 38.5 291Z" fill="#A6A4F7"/>
<path d="M22.5 291C21.8078 291 21.1311 290.795 20.5555 290.41C19.9799 290.026 19.5313 289.479 19.2664 288.839C19.0015 288.2 18.9322 287.496 19.0673 286.817C19.2023 286.138 19.5356 285.515 20.0251 285.025C20.5146 284.536 21.1383 284.202 21.8172 284.067C22.4961 283.932 23.1999 284.002 23.8394 284.266C24.4789 284.531 25.0256 284.98 25.4101 285.555C25.7947 286.131 26 286.808 26 287.5C26 288.428 25.6313 289.318 24.9749 289.975C24.3185 290.631 23.4283 291 22.5 291Z" fill="#A6A4F7"/>
<path d="M237.303 406H185.68C184.702 405.996 183.766 405.625 183.077 404.969C182.387 404.313 182 403.425 182 402.5C182 401.575 182.387 400.687 183.077 400.031C183.766 399.375 184.702 399.004 185.68 399H237.303C238.282 399.004 239.22 399.375 239.912 400.03C240.604 400.685 240.995 401.573 241 402.5C240.995 403.427 240.604 404.315 239.912 404.97C239.22 405.625 238.282 405.996 237.303 406Z" fill="#FADB96"/>
<path d="M237.303 425H185.68C184.702 424.996 183.766 424.625 183.077 423.969C182.387 423.313 182 422.425 182 421.5C182 420.575 182.387 419.687 183.077 419.031C183.766 418.375 184.702 418.004 185.68 418H237.303C238.282 418.004 239.22 418.375 239.912 419.03C240.604 419.685 240.995 420.573 241 421.5C240.995 422.427 240.604 423.315 239.912 423.97C239.22 424.625 238.282 424.996 237.303 425Z" fill="#FADB96"/>
<path d="M528.752 56.595L540 54.4797V44.4498L528.752 42.5108C527.904 38.4249 526.289 34.5368 523.991 31.0531L530.444 21.5344L523.392 14.4835L514.065 21.0761C510.554 18.7549 506.636 17.1164 502.517 16.2462L500.366 5H490.317L488.377 16.2462C484.295 17.1088 480.409 18.7226 476.917 21.0055L467.449 14.4835L460.397 21.6225L466.868 31.0178C464.583 34.5085 462.969 38.394 462.107 42.4755L451 44.6084V54.6912L462.248 56.6302C463.115 60.7103 464.729 64.595 467.009 68.0879L460.556 77.5361L467.696 84.587L477.023 77.9945C480.513 80.277 484.4 81.8854 488.483 82.7362L490.616 94H500.701L502.64 82.7362C506.726 81.8856 510.614 80.2708 514.1 77.9768L523.55 84.446L530.603 77.307L524.009 67.9822C526.295 64.488 527.904 60.6834 528.752 56.595ZM495.465 70.4147C491.335 70.4182 487.298 69.1971 483.862 66.906C480.427 64.6148 477.749 61.3565 476.166 57.5432C474.584 53.7298 474.168 49.5329 474.971 45.4832C475.775 41.4335 477.761 37.7131 480.68 34.7925C483.599 31.8719 487.318 29.8825 491.368 29.0757C495.418 28.269 499.616 28.6813 503.431 30.2604C507.247 31.8395 510.508 34.5146 512.803 37.9471C515.097 41.3797 516.322 45.4155 516.322 49.5441C516.317 55.0748 514.119 60.378 510.209 64.2905C506.299 68.203 500.997 70.4054 495.465 70.4147Z" stroke="#A6A4F7" stroke-width="4" stroke-miterlimit="10"/>
<path d="M567.652 122.114L574.116 124.379L577.138 119.112L571.868 114.741C572.648 112.371 572.976 109.876 572.834 107.385L579 104.418L577.437 98.5899L570.638 99.2219C569.518 96.9942 567.986 94.9986 566.123 93.3408L568.389 86.8804L563.119 83.8609L558.763 89.1275C556.391 88.3476 553.894 88.0201 551.402 88.162L548.433 82L542.601 83.5624L543.233 90.3564C541.008 91.481 539.012 93.0112 537.348 94.8682L530.884 92.6211L527.862 97.8877L533.132 102.259C532.352 104.629 532.024 107.124 532.166 109.615L526 112.582L527.563 118.41L534.362 117.778C535.499 120 537.035 121.993 538.894 123.659L536.628 130.12L541.898 133.139L546.272 127.872C548.644 128.652 551.141 128.98 553.633 128.838L556.602 135L562.434 133.438L561.802 126.644C564.036 125.524 565.998 123.987 567.652 122.114ZM546.36 119.323C544.22 118.089 542.495 116.248 541.402 114.034C540.309 111.819 539.898 109.331 540.221 106.883C540.543 104.435 541.585 102.138 543.214 100.282C544.843 98.4255 546.987 97.0939 549.373 96.4553C551.76 95.8167 554.282 95.8997 556.622 96.6939C558.961 97.4882 561.012 98.9579 562.516 100.917C564.019 102.876 564.907 105.237 565.068 107.701C565.228 110.165 564.654 112.621 563.418 114.759C561.761 117.624 559.033 119.714 555.835 120.57C552.636 121.426 549.228 120.977 546.36 119.323Z" stroke="#FADB96" stroke-width="4" stroke-miterlimit="10"/>
<path d="M82.864 114.88L55 139.002L82.864 163.123V150.058L70.0909 139.002L82.864 127.945V114.88Z" fill="white"/>
<path d="M125.699 163.123L153.58 139.002L125.699 114.88V127.945L138.472 139.002L125.699 150.058V163.123Z" fill="white"/>
<path d="M101.595 171.003H89.7828L106.985 107H118.78L101.595 171.003Z" fill="white"/>
<path d="M101.58 353.09C101.581 352.025 101.473 350.963 101.26 349.92L106.55 346.92L101.55 338.33L96.27 341.33C94.6568 339.88 92.7601 338.78 90.7 338.1V332H80.84V338.08C79.9244 338.388 79.0376 338.776 78.19 339.24L77.89 339.41L77.59 339.58C76.7654 340.085 75.9859 340.661 75.26 341.3L70 338.3L65 346.89L70.27 349.89C70.0708 350.838 69.9604 351.802 69.94 352.77V353.45C69.9604 354.418 70.0708 355.382 70.27 356.33L65 359.33L70 367.91L75.26 364.91C76.8773 366.355 78.7775 367.449 80.84 368.12V374.22H90.75V368.11C91.7562 367.767 92.7273 367.328 93.65 366.8C94.5909 366.252 95.4753 365.612 96.29 364.89L101.65 368L106.65 359.42L101.35 356.36C101.535 355.28 101.612 354.185 101.58 353.09ZM92.29 360.09L92.16 360.21C91.99 360.37 91.81 360.51 91.63 360.65L91.37 360.85L90.92 361.15C90.8 361.23 90.68 361.31 90.55 361.38L90.17 361.59L89.67 361.83L89.38 361.95C89.17 362.04 88.95 362.12 88.73 362.19L88.57 362.24C87.6722 362.514 86.7386 362.652 85.8 362.65C84.2298 362.653 82.6831 362.269 81.2974 361.53C79.9117 360.792 78.7299 359.723 77.8571 358.417C76.9843 357.112 76.4475 355.611 76.2945 354.049C76.1415 352.486 76.377 350.91 76.98 349.46L77.04 349.31C77.13 349.11 77.22 348.92 77.32 348.73L77.52 348.37L77.73 348.02C77.8408 347.837 77.9609 347.66 78.09 347.49L78.19 347.35C79.2921 345.917 80.7784 344.826 82.476 344.204C84.1736 343.583 86.0128 343.456 87.7798 343.838C89.5467 344.22 91.1689 345.096 92.4577 346.364C93.7464 347.632 94.6489 349.24 95.06 351V351.17C95.11 351.4 95.15 351.62 95.18 351.85C95.21 352.08 95.18 352.06 95.18 352.17C95.18 352.28 95.18 352.53 95.18 352.71C95.18 352.89 95.18 353 95.18 353.15C95.18 353.3 95.18 353.44 95.18 353.59C95.18 353.74 95.18 353.95 95.18 354.13C95.18 354.31 95.18 354.34 95.18 354.45C95.18 354.56 95.11 354.9 95.06 355.13V355.3C94.8549 356.211 94.518 357.087 94.06 357.9C93.5844 358.71 92.9875 359.441 92.29 360.07V360.09Z" fill="#6246EA"/>
<path fill-rule="evenodd" clip-rule="evenodd" d="M276.98 192.023L287.221 198.048L297.463 192.023L287.221 186L276.98 192.023ZM276.98 269.207L287.221 275.232L297.463 269.207L287.221 263.183L276.98 269.207ZM299 271.934V283.982L288.768 289.999L288.768 277.952L299 271.934ZM285.674 277.952V289.999L275.441 283.982V271.934L285.674 277.952ZM197.538 269.207L207.78 275.232L218.022 269.207L207.78 263.183L197.538 269.207ZM219.558 271.934V283.982L209.326 289.999V277.952L219.558 271.934ZM206.233 277.952V289.999L196 283.982L196.001 271.934L206.233 277.952ZM197.538 192.479L207.779 198.504L218.021 192.479L207.779 186.455L197.538 192.479ZM219.558 195.207V207.254L209.326 213.272V201.225L219.558 195.207ZM206.232 201.225V213.273L196 207.255L196.001 195.207L206.232 201.225ZM237.258 230.844L247.5 236.867L257.741 230.842L247.5 224.819L237.258 230.844ZM259.278 233.57V245.618L249.046 251.635L249.047 239.589L259.278 233.57ZM245.952 239.589V251.637L235.72 245.619L235.72 233.57L245.952 239.589ZM272.347 278.169H222.652V275.017H272.347V278.169ZM277.655 211.267L260.15 228.176L257.362 226.537L274.869 209.628L277.655 211.267ZM260.145 248.274L277.359 264.9L274.572 266.54L257.357 249.914L260.145 248.274ZM237.643 249.914L220.429 266.54L217.642 264.9L234.856 248.274L237.643 249.914ZM234.851 228.176L237.638 226.537L220.425 209.911L217.638 211.551L234.851 228.176ZM206.232 260.012V216.439L206.883 216.822C207.416 217.209 208.142 217.209 208.674 216.822L209.325 216.439V260.012L208.567 259.566C208.105 259.285 207.511 259.261 207.01 259.554L206.232 260.012ZM222.652 198.288H272.347V201.44L222.652 201.441V198.288ZM288.767 215.985V260.014L288.01 259.567C287.547 259.287 286.953 259.262 286.453 259.555L285.672 260.013V215.986L286.323 216.369C286.856 216.755 287.582 216.755 288.114 216.369L288.767 215.985ZM298.999 194.752V206.8L288.766 212.817L288.767 200.77L298.999 194.752ZM285.672 200.77V212.817L275.44 206.8V194.752L285.672 200.77Z" fill="#6246EA"/>
<g clip-path="url(#clip0_1367_17)">
<path d="M343.794 57.2177V39L326 46.7946L343.794 57.2177Z" fill="white"/>
<path d="M344.283 36.3762V14.9854L327.062 43.9192L344.283 36.3762Z" fill="white"/>
<path d="M345.43 14.9766V36.3761L362.892 44.0259L345.43 14.9766Z" fill="white"/>
<path d="M344.941 39V57.2182L362.748 46.7998L344.941 39Z" fill="white"/>
<path d="M344.283 74.1637V59.5108L326.608 49.1626L344.283 74.1637Z" fill="white"/>
<path d="M345.43 74.1637L363.104 49.1626L345.43 59.5108V74.1637Z" fill="white"/>
</g>
<defs>
<linearGradient id="paint0_linear_1367_17" x1="342.5" y1="144" x2="342.5" y2="150" gradientUnits="userSpaceOnUse">
<stop stop-color="#6246EA"/>
<stop offset="1" stop-color="#674DE4" stop-opacity="0.53"/>
</linearGradient>
<linearGradient id="paint1_linear_1367_17" x1="380.5" y1="144" x2="380.5" y2="150" gradientUnits="userSpaceOnUse">
<stop stop-color="#6246EA"/>
<stop offset="1" stop-color="#674DE4" stop-opacity="0.53"/>
</linearGradient>
<linearGradient id="paint2_linear_1367_17" x1="419.5" y1="144" x2="419.5" y2="150" gradientUnits="userSpaceOnUse">
<stop stop-color="#6246EA"/>
<stop offset="1" stop-color="#674DE4" stop-opacity="0.53"/>
</linearGradient>
<linearGradient id="paint3_linear_1367_17" x1="457.5" y1="144" x2="457.5" y2="150" gradientUnits="userSpaceOnUse">
<stop stop-color="#6246EA"/>
<stop offset="1" stop-color="#674DE4" stop-opacity="0.53"/>
</linearGradient>
<linearGradient id="paint4_linear_1367_17" x1="385" y1="185" x2="385" y2="201" gradientUnits="userSpaceOnUse">
<stop stop-color="#6246EA"/>
<stop offset="1" stop-color="#674DE4" stop-opacity="0.53"/>
</linearGradient>
<linearGradient id="paint5_linear_1367_17" x1="373" y1="214" x2="373" y2="220" gradientUnits="userSpaceOnUse">
<stop stop-color="#6246EA"/>
<stop offset="1" stop-color="#674DE4" stop-opacity="0.53"/>
</linearGradient>
<linearGradient id="paint6_linear_1367_17" x1="403.5" y1="228" x2="403.5" y2="234" gradientUnits="userSpaceOnUse">
<stop stop-color="#6246EA"/>
<stop offset="1" stop-color="#674DE4" stop-opacity="0.53"/>
</linearGradient>
<linearGradient id="paint7_linear_1367_17" x1="403.5" y1="242" x2="403.5" y2="248" gradientUnits="userSpaceOnUse">
<stop stop-color="#6246EA"/>
<stop offset="1" stop-color="#674DE4" stop-opacity="0.53"/>
</linearGradient>
<linearGradient id="paint8_linear_1367_17" x1="403.5" y1="256" x2="403.5" y2="262" gradientUnits="userSpaceOnUse">
<stop stop-color="#6246EA"/>
<stop offset="1" stop-color="#674DE4" stop-opacity="0.53"/>
</linearGradient>
<clipPath id="clip0_1367_17">
<rect width="59" height="59" fill="white" transform="translate(315 15)"/>
</clipPath>
</defs>
</svg>
