<svg width="812" height="582" viewBox="0 0 812 582" fill="none" xmlns="http://www.w3.org/2000/svg">
<path d="M811.492 219.533L429.505 187.189L405.029 295.436L811.492 219.533Z" fill="url(#paint0_linear_1367_6841)"/>
<path style="mix-blend-mode:multiply" d="M811.492 219.533L429.505 187.189L405.029 295.436L811.492 219.533Z" fill="url(#paint1_linear_1367_6841)"/>
<path d="M811.101 219.646L429.197 187.297L377.187 161.781L363.385 117.216L811.101 219.646Z" fill="url(#paint2_linear_1367_6841)"/>
<path d="M810.915 219.03L466.896 252.745L404.526 294.976L810.915 219.03Z" fill="url(#paint3_linear_1367_6841)"/>
<path style="mix-blend-mode:multiply" d="M810.915 219.03L466.896 252.745L404.526 294.976L810.915 219.03Z" fill="url(#paint4_linear_1367_6841)"/>
<path d="M811.338 219.527L467.461 253.183L481.32 316.91L518.063 360.796L811.338 219.527Z" fill="url(#paint5_linear_1367_6841)"/>
<path d="M517.701 361.079L480.861 317.104L466.946 253.263L404.488 295.51L428.958 187.155L376.845 161.6L363 117L378.402 161.364L430.016 187.293L406.984 291.844L466.946 253.263L482.026 315.412L517.701 361.079Z" fill="#AFB6E5"/>
<path d="M-0.140292 450.059L-0.706752 449.732C-1.10797 449.422 -1.44089 449.032 -1.68458 448.588C-1.92828 448.143 -2.07751 447.653 -2.12291 447.148C-2.16831 446.643 -2.10894 446.134 -1.94846 445.654C-1.78797 445.173 -1.52986 444.73 -1.19033 444.354C-0.332019 442.867 0.981073 441.737 2.12261 440.413C2.43554 440.004 2.82942 439.663 3.27978 439.411C3.73011 439.16 4.22731 439.004 4.74045 438.954C5.25359 438.903 5.77172 438.958 6.26265 439.116C6.75357 439.274 7.20681 439.531 7.59418 439.871C7.98155 440.212 8.29478 440.628 8.51441 441.095C8.73405 441.562 8.8554 442.069 8.87093 442.584C8.88644 443.1 8.79578 443.613 8.6046 444.092C8.41343 444.571 8.12581 445.005 7.75962 445.368C6.94217 446.784 5.62906 447.914 4.52838 449.167C3.98142 449.844 3.21224 450.305 2.35748 450.468C1.50272 450.631 0.617732 450.486 -0.140292 450.059ZM15.2145 433.434L14.294 432.903C13.9451 432.549 13.6698 432.129 13.484 431.668C13.2982 431.207 13.2057 430.714 13.2116 430.217C13.2175 429.72 13.3219 429.229 13.5186 428.772C13.7154 428.316 14.0006 427.903 14.3579 427.558L18.0848 424.045C18.8323 423.387 19.8061 423.045 20.801 423.091C21.7959 423.137 22.7341 423.568 23.4178 424.293C23.7535 424.658 24.0136 425.086 24.183 425.553C24.3525 426.02 24.4279 426.515 24.405 427.011C24.3821 427.507 24.2613 427.993 24.0496 428.442C23.8379 428.891 23.5394 429.293 23.1714 429.626C21.97 430.726 20.7685 431.826 19.6379 432.967C19.0462 433.506 18.2982 433.841 17.5027 433.925C16.7073 434.009 15.9057 433.837 15.2145 433.434ZM189.319 513.397C188.422 512.954 187.738 512.174 187.417 511.227C187.096 510.28 187.164 509.244 187.607 508.348C188.049 507.452 188.829 506.768 189.776 506.447C190.722 506.126 191.758 506.194 192.654 506.637L193.15 506.923L197.088 508.442C198.025 508.788 198.791 509.486 199.222 510.387C199.654 511.289 199.717 512.323 199.399 513.27C199.056 514.198 198.362 514.953 197.466 515.372C196.57 515.792 195.545 515.841 194.613 515.51L190.209 513.816L189.36 513.326L189.319 513.397ZM176.378 501.958C175.805 501.632 175.328 501.161 174.995 500.593C174.049 498.961 173.233 497.259 172.553 495.5C172.191 494.565 172.216 493.525 172.621 492.608C173.026 491.691 173.779 490.973 174.714 490.611C175.649 490.25 176.689 490.274 177.606 490.68C178.523 491.085 179.241 491.838 179.602 492.773C180.105 494.155 180.723 495.491 181.451 496.768C181.712 497.193 181.884 497.667 181.957 498.161C182.029 498.655 182 499.158 181.872 499.641C181.744 500.123 181.519 500.574 181.211 500.967C180.903 501.359 180.518 501.685 180.08 501.924C179.527 502.274 178.888 502.462 178.234 502.468C177.58 502.474 176.937 502.297 176.378 501.958ZM32.4264 418.826C31.9234 418.676 31.4625 418.41 31.0811 418.049C30.4971 417.236 30.2532 416.227 30.4014 415.237C30.5497 414.247 31.0783 413.354 31.8749 412.748L36.0456 409.775C36.4543 409.497 36.9139 409.301 37.3981 409.201C37.8823 409.1 38.3816 409.095 38.8676 409.187C39.3536 409.28 39.8167 409.467 40.2304 409.738C40.6442 410.009 41.0005 410.359 41.279 410.768C41.5576 411.176 41.7529 411.636 41.8538 412.12C41.9547 412.605 41.9593 413.104 41.8673 413.59C41.7752 414.076 41.5883 414.539 41.3173 414.953C41.0463 415.367 40.6965 415.723 40.2878 416.002C38.9856 416.949 37.6126 417.856 36.3813 418.844C35.7796 419.191 35.0963 419.373 34.4015 419.37C33.7066 419.367 33.0251 419.179 32.4264 418.826ZM210.876 518.576C210.286 518.249 209.799 517.763 209.472 517.174C209.145 516.584 208.99 515.914 209.024 515.241C209.052 514.253 209.467 513.317 210.18 512.633C210.893 511.949 211.846 511.573 212.833 511.586C214.332 511.643 215.833 511.561 217.316 511.343C218.315 511.219 219.322 511.496 220.116 512.114C220.91 512.732 221.426 513.64 221.551 514.638C221.676 515.637 221.399 516.644 220.781 517.438C220.163 518.232 219.255 518.748 218.257 518.873C216.39 519.056 214.514 519.139 212.638 519.121C212.019 519.066 211.418 518.88 210.876 518.576ZM171.546 479.907C170.945 479.561 170.452 479.057 170.12 478.448C169.788 477.84 169.63 477.152 169.665 476.46C169.723 474.691 169.89 472.927 170.164 471.178C170.166 470.648 170.28 470.123 170.499 469.64C170.717 469.157 171.036 468.725 171.433 468.374C171.83 468.022 172.297 467.759 172.803 467.601C173.309 467.443 173.844 467.393 174.37 467.456C174.897 467.519 175.404 467.693 175.859 467.966C176.314 468.238 176.706 468.605 177.009 469.04C177.313 469.475 177.521 469.969 177.62 470.49C177.719 471.012 177.706 471.548 177.584 472.064C177.373 473.736 177.245 475.267 177.187 476.839C177.174 477.337 177.06 477.827 176.852 478.279C176.644 478.732 176.347 479.137 175.977 479.471C175.608 479.805 175.175 480.061 174.704 480.223C174.233 480.384 173.734 480.448 173.237 480.411C172.751 480.383 172.274 480.267 171.829 480.07L171.546 479.907ZM231.444 510.91L230.595 510.42C229.885 509.721 229.481 508.768 229.472 507.772C229.463 506.775 229.849 505.816 230.547 505.105C231.547 504.073 232.448 502.949 233.239 501.75C233.513 501.337 233.866 500.983 234.277 500.707C234.688 500.432 235.15 500.24 235.636 500.143C236.122 500.046 236.622 500.047 237.107 500.144C237.593 500.241 238.055 500.433 238.466 500.709C239.282 501.276 239.846 502.138 240.04 503.113C240.235 504.088 240.044 505.1 239.508 505.937C238.44 507.518 237.236 509.002 235.909 510.373C235.363 510.897 234.672 511.244 233.927 511.369C233.181 511.494 232.414 511.391 231.728 511.074L231.444 510.91ZM51.0976 406.76C50.4923 406.377 50.0256 405.81 49.7661 405.142C49.3012 404.251 49.2036 403.214 49.494 402.252C49.7844 401.29 50.4398 400.481 51.3198 399.996L55.8935 397.634C56.8114 397.15 57.884 397.05 58.8754 397.357C59.8668 397.664 60.6958 398.352 61.1799 399.27C61.664 400.188 61.7637 401.261 61.457 402.253C61.1503 403.244 60.4623 404.073 59.5444 404.557C57.9999 405.27 56.597 406.065 55.1233 406.819C54.5644 407.123 53.9348 407.273 53.299 407.254C52.663 407.235 52.0435 407.048 51.5035 406.711L51.0976 406.76ZM175.901 457.968C175.147 457.553 174.562 456.886 174.249 456.084C173.935 455.282 173.913 454.396 174.186 453.579C175.044 452.092 175.336 450.278 175.982 448.668C176.367 447.676 177.13 446.877 178.104 446.448C179.077 446.019 180.182 445.994 181.174 446.379C182.166 446.764 182.965 447.528 183.394 448.502C183.823 449.476 183.848 450.58 183.463 451.572C182.646 452.989 182.365 454.62 181.872 456.129C181.551 457.07 180.87 457.846 179.979 458.287C179.088 458.728 178.058 458.797 177.115 458.481L175.901 457.968ZM71.6012 397.735C70.9812 397.194 70.5389 396.478 70.3325 395.681C70.0041 394.741 70.0532 393.71 70.4695 392.806C70.8858 391.902 71.6368 391.194 72.5643 390.833L77.8651 389.173C78.8118 388.856 79.8458 388.928 80.7396 389.374C81.6334 389.819 82.3138 390.601 82.6311 391.548C82.9483 392.495 82.8765 393.529 82.4314 394.423C81.9863 395.317 81.2043 395.997 80.2576 396.314L75.616 397.977C75.0345 398.181 74.4138 398.248 73.802 398.173C73.1902 398.098 72.604 397.883 72.0888 397.545L71.6012 397.735ZM240.051 490.766C239.391 490.41 238.855 489.861 238.515 489.193C238.176 488.524 238.048 487.768 238.15 487.025C238.35 485.535 238.478 484.004 238.576 482.361C238.615 481.369 239.044 480.432 239.771 479.755C240.498 479.078 241.463 478.716 242.456 478.748C242.954 478.761 243.444 478.875 243.896 479.083C244.349 479.292 244.754 479.589 245.088 479.959C245.422 480.328 245.678 480.762 245.839 481.233C246.001 481.704 246.065 482.203 246.028 482.7C246.014 484.482 245.87 486.261 245.6 488.022C245.476 489.004 244.971 489.897 244.194 490.508C243.417 491.12 242.43 491.4 241.448 491.29C241.116 491.09 240.811 490.85 240.538 490.576L240.051 490.766ZM93.6269 390.817C92.7527 390.3 92.1184 389.459 91.8625 388.476C91.6053 387.513 91.7406 386.488 92.2387 385.625C92.7368 384.762 93.557 384.132 94.5192 383.873L99.463 382.669C100.423 382.47 101.422 382.653 102.249 383.181C103.075 383.708 103.663 384.537 103.888 385.491C104.112 386.445 103.955 387.449 103.451 388.289C102.946 389.13 102.133 389.739 101.185 389.989L96.3533 391.164C95.4325 391.381 94.4642 391.258 93.6269 390.817ZM239.359 468.085C238.881 467.835 238.465 467.482 238.142 467.05C237.82 466.618 237.598 466.12 237.493 465.591L236.348 460.87C236.112 459.908 236.257 458.892 236.752 458.035C237.247 457.177 238.054 456.544 239.005 456.267C239.967 456.01 240.992 456.146 241.855 456.644C242.718 457.142 243.348 457.963 243.607 458.925C244.015 460.671 244.464 462.347 244.802 464.052C245.059 465.015 244.923 466.041 244.425 466.904C243.927 467.766 243.107 468.396 242.145 468.655C241.666 468.75 241.173 468.748 240.694 468.65C240.216 468.552 239.762 468.36 239.359 468.085ZM185.474 436.966C185.05 436.734 184.676 436.421 184.373 436.044C184.071 435.667 183.845 435.234 183.71 434.77C183.574 434.306 183.532 433.82 183.584 433.339C183.636 432.859 183.783 432.393 184.015 431.97C184.792 430.624 185.568 429.279 186.386 427.863C186.892 426.985 187.717 426.336 188.69 426.054C189.663 425.771 190.707 425.875 191.605 426.345C192.039 426.556 192.425 426.855 192.739 427.223C193.052 427.591 193.287 428.019 193.427 428.481C193.568 428.943 193.612 429.43 193.556 429.909C193.501 430.389 193.347 430.853 193.105 431.27L189.847 429.389L193.105 431.27C192.287 432.687 191.511 434.032 190.775 435.307C190.302 436.17 189.51 436.814 188.569 437.099C187.627 437.385 186.611 437.291 185.738 436.836L185.474 436.966ZM115.805 386.252C115.322 385.965 114.907 385.577 114.587 385.116C114.267 384.654 114.05 384.129 113.95 383.576C113.878 383.083 113.904 382.581 114.027 382.098C114.15 381.616 114.368 381.162 114.668 380.764C114.968 380.367 115.344 380.032 115.774 379.781C116.204 379.53 116.68 379.367 117.174 379.301L122.267 378.655C123.254 378.553 124.241 378.846 125.013 379.468C125.785 380.091 126.28 380.994 126.39 381.98C126.452 382.47 126.414 382.968 126.279 383.444C126.144 383.919 125.914 384.363 125.604 384.747C125.294 385.132 124.909 385.451 124.473 385.683C124.037 385.916 123.558 386.059 123.066 386.103L118.155 386.76C117.337 386.847 116.514 386.669 115.805 386.252ZM231.999 446.651C231.335 446.26 230.817 445.663 230.525 444.95L228.334 440.569C228.1 440.136 227.956 439.66 227.909 439.17C227.863 438.681 227.915 438.187 228.062 437.717C228.21 437.248 228.45 436.813 228.769 436.438C229.088 436.063 229.478 435.756 229.918 435.535C230.35 435.302 230.826 435.157 231.316 435.111C231.805 435.064 232.299 435.116 232.769 435.264C233.238 435.412 233.673 435.652 234.048 435.971C234.422 436.29 234.729 436.681 234.951 437.12L237.273 441.766C237.487 442.211 237.611 442.695 237.639 443.189C237.666 443.683 237.595 444.177 237.431 444.643C237.267 445.11 237.013 445.54 236.683 445.908C236.352 446.276 235.953 446.575 235.507 446.788C234.967 447.047 234.374 447.173 233.776 447.156C233.179 447.139 232.593 446.98 232.069 446.692L231.999 446.651ZM138.445 384.976C137.828 384.664 137.317 384.178 136.975 383.577C136.633 382.977 136.476 382.289 136.522 381.6C136.55 380.612 136.965 379.676 137.678 378.992C138.391 378.308 139.344 377.932 140.331 377.945L145.552 378.223C146.541 378.322 147.455 378.792 148.11 379.538C148.765 380.285 149.113 381.252 149.084 382.245C148.994 383.247 148.516 384.173 147.751 384.826C146.986 385.478 145.995 385.805 144.992 385.736C143.391 385.566 141.819 385.508 140.136 385.48C139.537 385.466 138.953 385.292 138.445 384.976ZM197.199 417.962C196.393 417.377 195.845 416.502 195.672 415.521C195.498 414.54 195.712 413.53 196.268 412.704L199.268 408.488C199.71 407.919 200.292 407.475 200.957 407.198C200.332 406.531 199.97 405.659 199.941 404.746C199.911 403.832 200.215 402.939 200.796 402.233C201.377 401.528 202.195 401.058 203.097 400.911C203.999 400.765 204.924 400.952 205.698 401.438C207.185 402.297 208.427 403.58 209.709 404.793C210.088 405.113 210.398 405.506 210.621 405.948C210.844 406.391 210.976 406.874 211.008 407.368C211.04 407.863 210.972 408.359 210.807 408.826C210.643 409.294 210.386 409.723 210.051 410.089C209.561 410.644 208.919 411.043 208.204 411.235C207.488 411.426 206.732 411.402 206.031 411.166C205.864 411.781 205.54 412.343 205.091 412.795C204.232 414.282 203.415 415.698 202.172 416.869C201.632 417.642 200.82 418.183 199.899 418.386C198.978 418.588 198.014 418.437 197.199 417.962ZM220.239 427.114C219.751 426.93 219.297 426.668 218.894 426.337L215.899 422.53C215.2 421.701 214.86 420.628 214.952 419.549C215.044 418.469 215.562 417.47 216.39 416.771C217.219 416.073 218.291 415.733 219.371 415.825C220.451 415.917 221.45 416.435 222.148 417.264L225.345 421.376C225.845 422.064 226.097 422.9 226.061 423.749C226.025 424.599 225.702 425.41 225.145 426.053C224.588 426.695 223.83 427.129 222.995 427.285C222.159 427.441 221.296 427.31 220.544 426.912L220.239 427.114ZM160.55 387.733C159.828 387.335 159.257 386.71 158.925 385.955C158.593 385.201 158.518 384.358 158.712 383.557C158.966 382.602 159.578 381.782 160.42 381.266C161.263 380.75 162.271 380.579 163.237 380.788L168.322 382.119C169.286 382.401 170.099 383.054 170.582 383.935C171.065 384.816 171.179 385.853 170.897 386.817C170.616 387.781 169.963 388.594 169.083 389.077C168.202 389.56 167.165 389.673 166.201 389.392L161.552 388.123C161.303 388.083 161.06 388.007 160.833 387.897L160.55 387.733ZM181.782 395.274C180.953 394.798 180.336 394.023 180.058 393.108C179.779 392.193 179.859 391.206 180.283 390.349C180.739 389.466 181.52 388.794 182.461 388.475C183.402 388.156 184.431 388.214 185.33 388.637L189.862 391.254C190.726 391.753 191.356 392.575 191.614 393.538C191.872 394.502 191.737 395.529 191.239 396.392C190.74 397.256 189.919 397.887 188.955 398.145C187.992 398.403 186.965 398.268 186.101 397.769C184.685 396.951 183.269 396.133 181.853 395.315L181.782 395.274ZM210.846 399.879L210.209 399.511C209.463 398.853 209.009 397.926 208.945 396.934C208.881 395.941 209.212 394.964 209.867 394.215C210.684 392.799 212.038 391.598 213.21 390.387C213.868 389.641 214.794 389.187 215.787 389.123C216.779 389.059 217.756 389.391 218.505 390.045C219.25 390.704 219.705 391.631 219.769 392.623C219.833 393.615 219.501 394.593 218.847 395.341L215.545 399.099C215.018 399.725 214.298 400.157 213.499 400.328C212.699 400.499 211.866 400.399 211.129 400.043L210.846 399.879ZM226.302 383.407L225.381 382.876C225.032 382.522 224.757 382.102 224.571 381.641C224.385 381.18 224.293 380.687 224.299 380.19C224.305 379.693 224.409 379.202 224.606 378.745C224.802 378.289 225.088 377.876 225.445 377.531C226.576 376.39 227.818 375.219 229.101 373.977C229.823 373.294 230.787 372.925 231.78 372.951C232.774 372.976 233.717 373.394 234.404 374.113C234.75 374.475 235.021 374.902 235.2 375.37C235.379 375.838 235.463 376.337 235.447 376.837C235.43 377.338 235.314 377.83 235.105 378.286C234.896 378.741 234.598 379.149 234.229 379.488L230.725 382.94C230.17 383.435 229.483 383.757 228.748 383.869C228.014 383.981 227.262 383.877 226.585 383.571L226.302 383.407ZM243.04 368.148C242.626 367.999 242.242 367.778 241.907 367.494C241.275 366.724 240.966 365.738 241.046 364.745C241.126 363.752 241.588 362.829 242.336 362.171L246.264 358.963C247.032 358.332 248.018 358.03 249.008 358.124C249.997 358.218 250.91 358.7 251.545 359.464C252.173 360.25 252.469 361.25 252.368 362.251C252.267 363.252 251.777 364.173 251.005 364.817L247.188 367.994C246.63 368.385 245.978 368.621 245.298 368.676C244.619 368.732 243.937 368.606 243.323 368.311L243.04 368.148ZM260.625 354.039C260.122 353.889 259.661 353.622 259.279 353.262C258.98 352.863 258.762 352.408 258.64 351.925C258.518 351.441 258.493 350.938 258.567 350.445C258.64 349.952 258.812 349.478 259.07 349.051C259.329 348.625 259.67 348.254 260.073 347.961L264.203 345.059C265.021 344.495 266.026 344.27 267.007 344.431C267.988 344.593 268.868 345.128 269.462 345.924C270.027 346.742 270.246 347.749 270.07 348.727C269.895 349.705 269.34 350.573 268.527 351.143C267.184 352.162 265.882 353.109 264.468 354.086C263.991 354.483 263.421 354.75 262.811 354.861C262.201 354.972 261.572 354.923 260.987 354.72L260.625 354.039ZM279.37 341.354C278.817 341.061 278.351 340.629 278.016 340.101C277.492 339.257 277.323 338.24 277.545 337.272C277.768 336.304 278.365 335.463 279.205 334.934L283.577 332.266C284.426 331.761 285.439 331.61 286.398 331.846C287.357 332.082 288.185 332.685 288.703 333.526C288.964 333.944 289.139 334.409 289.217 334.895C289.294 335.381 289.274 335.878 289.157 336.356C289.039 336.834 288.827 337.284 288.533 337.678C288.238 338.073 287.868 338.404 287.443 338.653L283.183 341.291C282.706 341.596 282.166 341.79 281.604 341.858C281.042 341.925 280.472 341.865 279.936 341.682L279.37 341.354ZM298.95 330.003C298.323 329.646 297.809 329.12 297.466 328.485C297.233 328.052 297.088 327.576 297.042 327.086C296.995 326.597 297.047 326.103 297.195 325.633C297.342 325.164 297.583 324.729 297.901 324.354C298.22 323.979 298.611 323.672 299.05 323.451L303.553 321.048C304.432 320.598 305.452 320.513 306.394 320.809C307.335 321.106 308.123 321.761 308.586 322.632C308.818 323.074 308.96 323.556 309.004 324.053C309.048 324.55 308.992 325.05 308.841 325.525C308.69 326 308.446 326.44 308.123 326.82C307.801 327.199 307.406 327.511 306.961 327.737L302.611 330.04C302.144 330.301 301.627 330.462 301.095 330.512C300.562 330.562 300.024 330.5 299.517 330.33L298.95 330.003ZM319.185 319.973C318.587 319.595 318.107 319.056 317.802 318.417C317.496 317.779 317.377 317.068 317.457 316.365C317.537 315.662 317.814 314.996 318.256 314.444C318.698 313.891 319.286 313.475 319.954 313.242L324.588 311.102C325.505 310.706 326.543 310.69 327.472 311.058C328.401 311.427 329.146 312.149 329.543 313.067C329.94 313.985 329.956 315.022 329.588 315.952C329.219 316.881 328.497 317.626 327.58 318.023L323.028 320.02C322.534 320.301 321.986 320.472 321.42 320.52C320.854 320.568 320.285 320.493 319.751 320.3L319.185 319.973ZM340.113 311.193C339.463 310.865 338.924 310.351 338.567 309.716C338.209 309.081 338.047 308.355 338.102 307.628C338.158 306.902 338.427 306.208 338.877 305.635C339.327 305.062 339.937 304.636 340.629 304.41L345.353 302.606C346.292 302.259 347.33 302.3 348.239 302.718C349.148 303.137 349.854 303.9 350.2 304.839C350.547 305.778 350.507 306.816 350.089 307.726C349.67 308.635 348.907 309.34 347.969 309.687L343.286 311.42C342.457 311.764 341.532 311.799 340.679 311.52L340.113 311.193ZM361.512 303.724C360.867 303.37 360.339 302.834 359.995 302.183C359.651 301.532 359.505 300.794 359.576 300.061C359.647 299.328 359.932 298.632 360.395 298.06C360.858 297.487 361.479 297.063 362.181 296.84L367.065 295.412C367.542 295.273 368.042 295.233 368.535 295.292C369.028 295.352 369.504 295.51 369.934 295.759C370.364 296.007 370.739 296.34 371.037 296.737C371.335 297.134 371.55 297.588 371.668 298.07C371.903 299.032 371.758 300.048 371.263 300.905C370.768 301.763 369.962 302.396 369.011 302.673L364.239 304.071C363.534 304.286 362.78 304.279 362.079 304.051L361.512 303.724ZM383.353 297.454C382.905 297.197 382.513 296.854 382.198 296.446C381.883 296.037 381.652 295.57 381.517 295.072C381.282 294.11 381.427 293.095 381.922 292.237C382.417 291.38 383.224 290.747 384.174 290.469L389.118 289.265C389.604 289.137 390.11 289.107 390.607 289.178C391.105 289.249 391.583 289.419 392.013 289.678C392.444 289.937 392.818 290.279 393.114 290.685C393.411 291.091 393.622 291.552 393.738 292.041C393.853 292.53 393.869 293.037 393.784 293.532C393.7 294.028 393.518 294.501 393.248 294.925C392.978 295.348 392.626 295.713 392.212 295.999C391.799 296.284 391.332 296.483 390.84 296.585L386.008 297.76C385.314 298.018 384.562 298.074 383.837 297.923L383.353 297.454Z" fill="url(#paint6_linear_1367_6841)"/>
<defs>
<linearGradient id="paint0_linear_1367_6841" x1="475.233" y1="57.1923" x2="664.831" y2="342.839" gradientUnits="userSpaceOnUse">
<stop offset="0.14" stop-color="#AFB6E5"/>
<stop offset="0.52" stop-color="#CED3F4"/>
<stop offset="1" stop-color="#E5E9FF"/>
</linearGradient>
<linearGradient id="paint1_linear_1367_6841" x1="611.763" y1="204.081" x2="607.304" y2="271.363" gradientUnits="userSpaceOnUse">
<stop stop-color="white"/>
<stop offset="1" stop-color="#E5E9FF"/>
</linearGradient>
<linearGradient id="paint2_linear_1367_6841" x1="-195.053" y1="-30.8545" x2="742.3" y2="237.802" gradientUnits="userSpaceOnUse">
<stop offset="0.14" stop-color="#AFB6E5"/>
<stop offset="0.52" stop-color="#CED3F4"/>
<stop offset="1" stop-color="#E5E9FF"/>
</linearGradient>
<linearGradient id="paint3_linear_1367_6841" x1="469.607" y1="200.727" x2="608.04" y2="257.093" gradientUnits="userSpaceOnUse">
<stop offset="0.14" stop-color="#AFB6E5"/>
<stop offset="0.52" stop-color="#CED3F4"/>
<stop offset="1" stop-color="#E5E9FF"/>
</linearGradient>
<linearGradient id="paint4_linear_1367_6841" x1="528.812" y1="379.793" x2="572.976" y2="311.172" gradientUnits="userSpaceOnUse">
<stop stop-color="white"/>
<stop offset="1" stop-color="#AFB6E5"/>
</linearGradient>
<linearGradient id="paint5_linear_1367_6841" x1="323.553" y1="565.523" x2="687.757" y2="185.933" gradientUnits="userSpaceOnUse">
<stop offset="0.14" stop-color="#AFB6E5"/>
<stop offset="0.52" stop-color="#CED3F4"/>
<stop offset="1" stop-color="#E5E9FF"/>
</linearGradient>
<linearGradient id="paint6_linear_1367_6841" x1="413.257" y1="322.646" x2="30.3081" y2="511.428" gradientUnits="userSpaceOnUse">
<stop offset="0.14" stop-color="#AFB6E5"/>
<stop offset="0.52" stop-color="#CED3F4"/>
<stop offset="1" stop-color="#E5E9FF"/>
</linearGradient>
</defs>
</svg>
