<svg width="55" height="49" viewBox="0 0 55 49" fill="none" xmlns="http://www.w3.org/2000/svg">
<path d="M12.9637 43.5206V38.4128H10.3448C8.90439 38.4128 7.72588 37.1583 7.72588 35.2317V28.1525C7.72588 26.2707 7.15846 24.7025 5.71806 24.0752C7.15846 23.448 7.72588 21.8798 7.72588 19.998V12.874C7.72588 10.9026 8.90439 9.73765 10.3448 9.73765H12.9637V4.62988H10.3448C6.11089 4.62988 2.26984 7.72143 2.26984 12.9188V19.1019C2.26984 20.7597 1.52782 21.9694 0.00012207 21.9694V26.1811C1.52782 26.1811 2.26984 27.3908 2.26984 29.0486V35.2765C2.26984 40.4739 6.11089 43.5206 10.3448 43.5206H12.9637Z" fill="#5537D2"/>
<path d="M39.8168 4.62986L39.8168 9.73762L42.4357 9.73762C43.8761 9.73762 45.0546 10.9922 45.0546 12.9188L45.0546 19.998C45.0546 21.8798 45.6221 23.4479 47.0625 24.0752C45.6221 24.7025 45.0546 26.2707 45.0546 28.1525L45.0546 35.2765C45.0546 37.2479 43.8761 38.4128 42.4357 38.4128L39.8168 38.4128L39.8168 43.5206L42.4357 43.5206C46.6696 43.5206 50.5107 40.429 50.5107 35.2317L50.5107 29.0486C50.5107 27.3908 51.2527 26.181 52.7804 26.181L52.7804 21.9694C51.2527 21.9694 50.5107 20.7596 50.5107 19.1019L50.5107 12.874C50.5107 7.6766 46.6696 4.62986 42.4357 4.62986L39.8168 4.62986Z" fill="#9C6DF6"/>
<path d="M33.335 36.1128V12.0376H29.4879V21.0252H23.2925V12.0376H19.4454V36.1128H23.2925V26.4394H29.4879V36.1128H33.335Z" fill="url(#paint0_linear_1367_672)"/>
<defs>
<linearGradient id="paint0_linear_1367_672" x1="26.3902" y1="12.0376" x2="26.3902" y2="36.1128" gradientUnits="userSpaceOnUse">
<stop stop-color="#A171F6"/>
<stop offset="1" stop-color="#4D32CE"/>
</linearGradient>
</defs>
</svg>
